<svg width="600" height="380" viewBox="0 0 600 380" fill="none" xmlns="http://www.w3.org/2000/svg">
<mask id="path-1-inside-1" fill="white">
<rect width="600" height="380" rx="5"/>
</mask>
<rect width="600" height="380" rx="5" fill="#007CAD" stroke="#007CAD" stroke-width="40" mask="url(#path-1-inside-1)"/>
<rect x="20" y="20" width="560" height="340" rx="5" fill="white"/>
<path d="M144.227 312H145.527V317.9H149.187V319H144.227V312ZM152.445 319.07C151.905 319.07 151.418 318.953 150.985 318.72C150.551 318.487 150.211 318.163 149.965 317.75C149.725 317.33 149.605 316.857 149.605 316.33C149.605 315.803 149.725 315.333 149.965 314.92C150.211 314.507 150.551 314.183 150.985 313.95C151.418 313.717 151.905 313.6 152.445 313.6C152.991 313.6 153.481 313.717 153.915 313.95C154.348 314.183 154.685 314.507 154.925 314.92C155.171 315.333 155.295 315.803 155.295 316.33C155.295 316.857 155.171 317.33 154.925 317.75C154.685 318.163 154.348 318.487 153.915 318.72C153.481 318.953 152.991 319.07 152.445 319.07ZM152.445 318C152.905 318 153.285 317.847 153.585 317.54C153.885 317.233 154.035 316.83 154.035 316.33C154.035 315.83 153.885 315.427 153.585 315.12C153.285 314.813 152.905 314.66 152.445 314.66C151.985 314.66 151.605 314.813 151.305 315.12C151.011 315.427 150.865 315.83 150.865 316.33C150.865 316.83 151.011 317.233 151.305 317.54C151.605 317.847 151.985 318 152.445 318ZM164.673 313.66L162.703 319H161.503L160.123 315.32L158.723 319H157.523L155.563 313.66H156.743L158.153 317.6L159.623 313.66H160.673L162.113 317.62L163.563 313.66H164.673Z" fill="#51646D"/>
<path d="M212.235 317.38H208.735L208.045 319H206.705L209.855 312H211.135L214.295 319H212.935L212.235 317.38ZM211.805 316.36L210.485 313.3L209.175 316.36H211.805Z" fill="#51646D"/>
<path d="M269.096 315.36C269.483 315.487 269.79 315.7 270.016 316C270.243 316.293 270.356 316.66 270.356 317.1C270.356 317.707 270.123 318.177 269.656 318.51C269.19 318.837 268.51 319 267.616 319H264.136V312H267.416C268.243 312 268.88 312.163 269.326 312.49C269.773 312.81 269.996 313.253 269.996 313.82C269.996 314.167 269.916 314.473 269.756 314.74C269.596 315.007 269.376 315.213 269.096 315.36ZM265.436 313.02V314.95H267.276C267.73 314.95 268.076 314.87 268.316 314.71C268.563 314.543 268.686 314.303 268.686 313.99C268.686 313.67 268.563 313.43 268.316 313.27C268.076 313.103 267.73 313.02 267.276 313.02H265.436ZM267.536 317.98C268.543 317.98 269.046 317.643 269.046 316.97C269.046 316.297 268.543 315.96 267.536 315.96H265.436V317.98H267.536Z" fill="#51646D"/>
<path d="M323.047 319.1C322.341 319.1 321.701 318.947 321.127 318.64C320.561 318.327 320.114 317.897 319.787 317.35C319.467 316.803 319.307 316.187 319.307 315.5C319.307 314.813 319.471 314.197 319.797 313.65C320.124 313.103 320.571 312.677 321.137 312.37C321.711 312.057 322.351 311.9 323.057 311.9C323.631 311.9 324.154 312 324.627 312.2C325.101 312.4 325.501 312.69 325.827 313.07L324.987 313.86C324.481 313.313 323.857 313.04 323.117 313.04C322.637 313.04 322.207 313.147 321.827 313.36C321.447 313.567 321.151 313.857 320.937 314.23C320.724 314.603 320.617 315.027 320.617 315.5C320.617 315.973 320.724 316.397 320.937 316.77C321.151 317.143 321.447 317.437 321.827 317.65C322.207 317.857 322.637 317.96 323.117 317.96C323.857 317.96 324.481 317.683 324.987 317.13L325.827 317.93C325.501 318.31 325.097 318.6 324.617 318.8C324.144 319 323.621 319.1 323.047 319.1Z" fill="#51646D"/>
<path d="M374.809 312H377.869C378.616 312 379.279 312.147 379.859 312.44C380.439 312.727 380.889 313.137 381.209 313.67C381.529 314.197 381.689 314.807 381.689 315.5C381.689 316.193 381.529 316.807 381.209 317.34C380.889 317.867 380.439 318.277 379.859 318.57C379.279 318.857 378.616 319 377.869 319H374.809V312ZM377.809 317.9C378.322 317.9 378.772 317.803 379.159 317.61C379.552 317.41 379.852 317.13 380.059 316.77C380.272 316.403 380.379 315.98 380.379 315.5C380.379 315.02 380.272 314.6 380.059 314.24C379.852 313.873 379.552 313.593 379.159 313.4C378.772 313.2 378.322 313.1 377.809 313.1H376.109V317.9H377.809Z" fill="#51646D"/>
<path d="M438.34 317.91V319H433.09V312H438.2V313.09H434.39V314.91H437.77V315.98H434.39V317.91H438.34Z" fill="#51646D"/>
<path d="M415.5 290H468L460.5 305H408L415.5 290Z" fill="#6B1668"/>
<path d="M359.5 290H412L404.5 305H352L359.5 290Z" fill="#8A419E"/>
<path d="M303.5 290H356L348.5 305H296L303.5 290Z" fill="#8D6CB0"/>
<path d="M247.5 290H300L292.5 305H240L247.5 290Z" fill="#8B96C9"/>
<path d="M191.5 290H244L236.5 305H184L191.5 290Z" fill="#A1BDDC"/>
<path d="M135.5 290H188L180.5 305H128L135.5 290Z" fill="#BED4E6"/>
<path d="M144.227 98H145.527V103.9H149.187V105H144.227V98ZM152.445 105.07C151.905 105.07 151.418 104.953 150.985 104.72C150.551 104.487 150.211 104.163 149.965 103.75C149.725 103.33 149.605 102.857 149.605 102.33C149.605 101.803 149.725 101.333 149.965 100.92C150.211 100.507 150.551 100.183 150.985 99.95C151.418 99.7167 151.905 99.6 152.445 99.6C152.991 99.6 153.481 99.7167 153.915 99.95C154.348 100.183 154.685 100.507 154.925 100.92C155.171 101.333 155.295 101.803 155.295 102.33C155.295 102.857 155.171 103.33 154.925 103.75C154.685 104.163 154.348 104.487 153.915 104.72C153.481 104.953 152.991 105.07 152.445 105.07ZM152.445 104C152.905 104 153.285 103.847 153.585 103.54C153.885 103.233 154.035 102.83 154.035 102.33C154.035 101.83 153.885 101.427 153.585 101.12C153.285 100.813 152.905 100.66 152.445 100.66C151.985 100.66 151.605 100.813 151.305 101.12C151.011 101.427 150.865 101.83 150.865 102.33C150.865 102.83 151.011 103.233 151.305 103.54C151.605 103.847 151.985 104 152.445 104ZM164.673 99.66L162.703 105H161.503L160.123 101.32L158.723 105H157.523L155.563 99.66H156.743L158.153 103.6L159.623 99.66H160.673L162.113 103.62L163.563 99.66H164.673Z" fill="#51646D"/>
<path d="M234.176 59L232.317 56.335C232.239 56.3437 232.122 56.348 231.966 56.348H229.912V59H228.222V49.9H231.966C232.755 49.9 233.439 50.03 234.02 50.29C234.609 50.55 235.06 50.9227 235.372 51.408C235.684 51.8933 235.84 52.4697 235.84 53.137C235.84 53.8217 235.671 54.411 235.333 54.905C235.004 55.399 234.527 55.7673 233.903 56.01L235.996 59H234.176ZM234.137 53.137C234.137 52.5563 233.946 52.11 233.565 51.798C233.184 51.486 232.625 51.33 231.888 51.33H229.912V54.957H231.888C232.625 54.957 233.184 54.801 233.565 54.489C233.946 54.1683 234.137 53.7177 234.137 53.137ZM237.575 52.058H239.2V59H237.575V52.058ZM238.394 50.914C238.099 50.914 237.852 50.823 237.653 50.641C237.453 50.4503 237.354 50.2163 237.354 49.939C237.354 49.6617 237.453 49.432 237.653 49.25C237.852 49.0593 238.099 48.964 238.394 48.964C238.688 48.964 238.935 49.055 239.135 49.237C239.334 49.4103 239.434 49.6313 239.434 49.9C239.434 50.186 239.334 50.4287 239.135 50.628C238.944 50.8187 238.697 50.914 238.394 50.914ZM243.478 59.091C242.914 59.091 242.364 59.0173 241.827 58.87C241.289 58.7227 240.86 58.5363 240.54 58.311L241.164 57.076C241.476 57.284 241.848 57.453 242.282 57.583C242.724 57.7043 243.157 57.765 243.582 57.765C244.552 57.765 245.038 57.5093 245.038 56.998C245.038 56.7553 244.912 56.5863 244.661 56.491C244.418 56.3957 244.024 56.3047 243.478 56.218C242.906 56.1313 242.438 56.0317 242.074 55.919C241.718 55.8063 241.406 55.6113 241.138 55.334C240.878 55.048 240.748 54.6537 240.748 54.151C240.748 53.4923 241.021 52.968 241.567 52.578C242.121 52.1793 242.867 51.98 243.803 51.98C244.279 51.98 244.756 52.0363 245.233 52.149C245.709 52.253 246.099 52.396 246.403 52.578L245.779 53.813C245.189 53.4663 244.526 53.293 243.79 53.293C243.313 53.293 242.949 53.3667 242.698 53.514C242.455 53.6527 242.334 53.839 242.334 54.073C242.334 54.333 242.464 54.5193 242.724 54.632C242.992 54.736 243.404 54.8357 243.959 54.931C244.513 55.0177 244.968 55.1173 245.324 55.23C245.679 55.3427 245.982 55.5333 246.234 55.802C246.494 56.0707 246.624 56.452 246.624 56.946C246.624 57.596 246.342 58.116 245.779 58.506C245.215 58.896 244.448 59.091 243.478 59.091ZM250.857 56.023L249.648 57.167V59H248.023V49.354H249.648V55.178L253.015 52.058H254.965L252.066 54.97L255.238 59H253.262L250.857 56.023ZM260.036 49.9H261.726V57.57H266.484V59H260.036V49.9ZM274.125 55.568C274.125 55.6807 274.117 55.841 274.099 56.049H268.652C268.748 56.5603 268.995 56.9677 269.393 57.271C269.801 57.5657 270.303 57.713 270.901 57.713C271.664 57.713 272.292 57.4617 272.786 56.959L273.657 57.96C273.345 58.3327 272.951 58.6143 272.474 58.805C271.998 58.9957 271.46 59.091 270.862 59.091C270.1 59.091 269.428 58.9393 268.847 58.636C268.267 58.3327 267.816 57.9123 267.495 57.375C267.183 56.829 267.027 56.2137 267.027 55.529C267.027 54.853 267.179 54.2463 267.482 53.709C267.794 53.163 268.223 52.7383 268.769 52.435C269.315 52.1317 269.931 51.98 270.615 51.98C271.291 51.98 271.894 52.1317 272.422 52.435C272.96 52.7297 273.376 53.15 273.67 53.696C273.974 54.2333 274.125 54.8573 274.125 55.568ZM270.615 53.28C270.095 53.28 269.653 53.436 269.289 53.748C268.934 54.0513 268.717 54.4587 268.639 54.97H272.578C272.509 54.4673 272.297 54.06 271.941 53.748C271.586 53.436 271.144 53.28 270.615 53.28ZM282.059 52.058L279.082 59H277.405L274.428 52.058H276.118L278.276 57.206L280.499 52.058H282.059ZM289.41 55.568C289.41 55.6807 289.402 55.841 289.384 56.049H283.937C284.033 56.5603 284.28 56.9677 284.678 57.271C285.086 57.5657 285.588 57.713 286.186 57.713C286.949 57.713 287.577 57.4617 288.071 56.959L288.942 57.96C288.63 58.3327 288.236 58.6143 287.759 58.805C287.283 58.9957 286.745 59.091 286.147 59.091C285.385 59.091 284.713 58.9393 284.132 58.636C283.552 58.3327 283.101 57.9123 282.78 57.375C282.468 56.829 282.312 56.2137 282.312 55.529C282.312 54.853 282.464 54.2463 282.767 53.709C283.079 53.163 283.508 52.7383 284.054 52.435C284.6 52.1317 285.216 51.98 285.9 51.98C286.576 51.98 287.179 52.1317 287.707 52.435C288.245 52.7297 288.661 53.15 288.955 53.696C289.259 54.2333 289.41 54.8573 289.41 55.568ZM285.9 53.28C285.38 53.28 284.938 53.436 284.574 53.748C284.219 54.0513 284.002 54.4587 283.924 54.97H287.863C287.794 54.4673 287.582 54.06 287.226 53.748C286.871 53.436 286.429 53.28 285.9 53.28ZM290.971 49.354H292.596V59H290.971V49.354ZM299.934 61.522C299.423 60.7333 299.028 59.819 298.751 58.779C298.482 57.739 298.348 56.6253 298.348 55.438C298.348 54.2507 298.482 53.137 298.751 52.097C299.028 51.0483 299.423 50.134 299.934 49.354H301.481C300.952 50.29 300.562 51.2563 300.311 52.253C300.068 53.241 299.947 54.3027 299.947 55.438C299.947 56.5733 300.068 57.6393 300.311 58.636C300.562 59.624 300.952 60.586 301.481 61.522H299.934ZM302.985 49.9H304.675V59H302.985V49.9ZM311.153 58.623C310.962 58.779 310.728 58.896 310.451 58.974C310.182 59.052 309.896 59.091 309.593 59.091C308.83 59.091 308.241 58.8917 307.825 58.493C307.409 58.0943 307.201 57.5137 307.201 56.751V53.41H306.057V52.11H307.201V50.524H308.826V52.11H310.685V53.41H308.826V56.712C308.826 57.05 308.908 57.31 309.073 57.492C309.238 57.6653 309.476 57.752 309.788 57.752C310.152 57.752 310.455 57.6567 310.698 57.466L311.153 58.623ZM318.787 55.568C318.787 55.6807 318.779 55.841 318.761 56.049H313.314C313.41 56.5603 313.657 56.9677 314.055 57.271C314.463 57.5657 314.965 57.713 315.563 57.713C316.326 57.713 316.954 57.4617 317.448 56.959L318.319 57.96C318.007 58.3327 317.613 58.6143 317.136 58.805C316.66 58.9957 316.122 59.091 315.524 59.091C314.762 59.091 314.09 58.9393 313.509 58.636C312.929 58.3327 312.478 57.9123 312.157 57.375C311.845 56.829 311.689 56.2137 311.689 55.529C311.689 54.853 311.841 54.2463 312.144 53.709C312.456 53.163 312.885 52.7383 313.431 52.435C313.977 52.1317 314.593 51.98 315.277 51.98C315.953 51.98 316.556 52.1317 317.084 52.435C317.622 52.7297 318.038 53.15 318.332 53.696C318.636 54.2333 318.787 54.8573 318.787 55.568ZM315.277 53.28C314.757 53.28 314.315 53.436 313.951 53.748C313.596 54.0513 313.379 54.4587 313.301 54.97H317.24C317.171 54.4673 316.959 54.06 316.603 53.748C316.248 53.436 315.806 53.28 315.277 53.28ZM321.895 53.072C322.363 52.344 323.187 51.98 324.365 51.98V53.527C324.227 53.501 324.101 53.488 323.988 53.488C323.356 53.488 322.862 53.6743 322.506 54.047C322.151 54.411 321.973 54.9397 321.973 55.633V59H320.348V52.058H321.895V53.072ZM328.358 51.98C329.38 51.98 330.16 52.227 330.698 52.721C331.244 53.2063 331.517 53.943 331.517 54.931V59H329.983V58.155C329.783 58.4583 329.497 58.6923 329.125 58.857C328.761 59.013 328.319 59.091 327.799 59.091C327.279 59.091 326.824 59.0043 326.434 58.831C326.044 58.649 325.74 58.402 325.524 58.09C325.316 57.7693 325.212 57.4097 325.212 57.011C325.212 56.387 325.441 55.8887 325.901 55.516C326.369 55.1347 327.101 54.944 328.098 54.944H329.892V54.84C329.892 54.3547 329.744 53.982 329.45 53.722C329.164 53.462 328.735 53.332 328.163 53.332C327.773 53.332 327.387 53.3927 327.006 53.514C326.633 53.6353 326.317 53.8043 326.057 54.021L325.42 52.838C325.784 52.5607 326.221 52.3483 326.733 52.201C327.244 52.0537 327.786 51.98 328.358 51.98ZM328.137 57.908C328.544 57.908 328.904 57.817 329.216 57.635C329.536 57.4443 329.762 57.1757 329.892 56.829V56.023H328.215C327.279 56.023 326.811 56.3307 326.811 56.946C326.811 57.2407 326.928 57.4747 327.162 57.648C327.396 57.8213 327.721 57.908 328.137 57.908ZM337.775 58.623C337.584 58.779 337.35 58.896 337.073 58.974C336.804 59.052 336.518 59.091 336.215 59.091C335.452 59.091 334.863 58.8917 334.447 58.493C334.031 58.0943 333.823 57.5137 333.823 56.751V53.41H332.679V52.11H333.823V50.524H335.448V52.11H337.307V53.41H335.448V56.712C335.448 57.05 335.53 57.31 335.695 57.492C335.86 57.6653 336.098 57.752 336.41 57.752C336.774 57.752 337.077 57.6567 337.32 57.466L337.775 58.623ZM339.112 52.058H340.737V59H339.112V52.058ZM339.931 50.914C339.636 50.914 339.389 50.823 339.19 50.641C338.991 50.4503 338.891 50.2163 338.891 49.939C338.891 49.6617 338.991 49.432 339.19 49.25C339.389 49.0593 339.636 48.964 339.931 48.964C340.226 48.964 340.473 49.055 340.672 49.237C340.871 49.4103 340.971 49.6313 340.971 49.9C340.971 50.186 340.871 50.4287 340.672 50.628C340.481 50.8187 340.234 50.914 339.931 50.914ZM345.99 59.091C345.288 59.091 344.655 58.9393 344.092 58.636C343.528 58.3327 343.086 57.9123 342.766 57.375C342.454 56.829 342.298 56.2137 342.298 55.529C342.298 54.8443 342.454 54.2333 342.766 53.696C343.086 53.1587 343.528 52.7383 344.092 52.435C344.655 52.1317 345.288 51.98 345.99 51.98C346.7 51.98 347.337 52.1317 347.901 52.435C348.464 52.7383 348.902 53.1587 349.214 53.696C349.534 54.2333 349.695 54.8443 349.695 55.529C349.695 56.2137 349.534 56.829 349.214 57.375C348.902 57.9123 348.464 58.3327 347.901 58.636C347.337 58.9393 346.7 59.091 345.99 59.091ZM345.99 57.7C346.588 57.7 347.082 57.5007 347.472 57.102C347.862 56.7033 348.057 56.179 348.057 55.529C348.057 54.879 347.862 54.3547 347.472 53.956C347.082 53.5573 346.588 53.358 345.99 53.358C345.392 53.358 344.898 53.5573 344.508 53.956C344.126 54.3547 343.936 54.879 343.936 55.529C343.936 56.179 344.126 56.7033 344.508 57.102C344.898 57.5007 345.392 57.7 345.99 57.7ZM355.188 51.98C356.063 51.98 356.765 52.2357 357.294 52.747C357.822 53.2583 358.087 54.0167 358.087 55.022V59H356.462V55.23C356.462 54.6233 356.319 54.1683 356.033 53.865C355.747 53.553 355.339 53.397 354.811 53.397C354.213 53.397 353.74 53.579 353.394 53.943C353.047 54.2983 352.874 54.814 352.874 55.49V59H351.249V52.058H352.796V52.955C353.064 52.6343 353.402 52.3917 353.81 52.227C354.217 52.0623 354.676 51.98 355.188 51.98ZM366.393 49.9V59H364.703V51.317H362.779V49.9H366.393ZM367.912 61.522C368.441 60.586 368.831 59.6197 369.082 58.623C369.333 57.6263 369.459 56.5647 369.459 55.438C369.459 54.3113 369.333 53.2497 369.082 52.253C368.831 51.2563 368.441 50.29 367.912 49.354H369.459C369.97 50.1253 370.36 51.0353 370.629 52.084C370.906 53.124 371.045 54.242 371.045 55.438C371.045 56.634 370.906 57.752 370.629 58.792C370.36 59.8233 369.97 60.7333 369.459 61.522H367.912Z" fill="black"/>
<path d="M234.176 166L232.317 163.335C232.239 163.344 232.122 163.348 231.966 163.348H229.912V166H228.222V156.9H231.966C232.755 156.9 233.439 157.03 234.02 157.29C234.609 157.55 235.06 157.923 235.372 158.408C235.684 158.893 235.84 159.47 235.84 160.137C235.84 160.822 235.671 161.411 235.333 161.905C235.004 162.399 234.527 162.767 233.903 163.01L235.996 166H234.176ZM234.137 160.137C234.137 159.556 233.946 159.11 233.565 158.798C233.184 158.486 232.625 158.33 231.888 158.33H229.912V161.957H231.888C232.625 161.957 233.184 161.801 233.565 161.489C233.946 161.168 234.137 160.718 234.137 160.137ZM237.575 159.058H239.2V166H237.575V159.058ZM238.394 157.914C238.099 157.914 237.852 157.823 237.653 157.641C237.453 157.45 237.354 157.216 237.354 156.939C237.354 156.662 237.453 156.432 237.653 156.25C237.852 156.059 238.099 155.964 238.394 155.964C238.688 155.964 238.935 156.055 239.135 156.237C239.334 156.41 239.434 156.631 239.434 156.9C239.434 157.186 239.334 157.429 239.135 157.628C238.944 157.819 238.697 157.914 238.394 157.914ZM243.478 166.091C242.914 166.091 242.364 166.017 241.827 165.87C241.289 165.723 240.86 165.536 240.54 165.311L241.164 164.076C241.476 164.284 241.848 164.453 242.282 164.583C242.724 164.704 243.157 164.765 243.582 164.765C244.552 164.765 245.038 164.509 245.038 163.998C245.038 163.755 244.912 163.586 244.661 163.491C244.418 163.396 244.024 163.305 243.478 163.218C242.906 163.131 242.438 163.032 242.074 162.919C241.718 162.806 241.406 162.611 241.138 162.334C240.878 162.048 240.748 161.654 240.748 161.151C240.748 160.492 241.021 159.968 241.567 159.578C242.121 159.179 242.867 158.98 243.803 158.98C244.279 158.98 244.756 159.036 245.233 159.149C245.709 159.253 246.099 159.396 246.403 159.578L245.779 160.813C245.189 160.466 244.526 160.293 243.79 160.293C243.313 160.293 242.949 160.367 242.698 160.514C242.455 160.653 242.334 160.839 242.334 161.073C242.334 161.333 242.464 161.519 242.724 161.632C242.992 161.736 243.404 161.836 243.959 161.931C244.513 162.018 244.968 162.117 245.324 162.23C245.679 162.343 245.982 162.533 246.234 162.802C246.494 163.071 246.624 163.452 246.624 163.946C246.624 164.596 246.342 165.116 245.779 165.506C245.215 165.896 244.448 166.091 243.478 166.091ZM250.857 163.023L249.648 164.167V166H248.023V156.354H249.648V162.178L253.015 159.058H254.965L252.066 161.97L255.238 166H253.262L250.857 163.023ZM260.036 156.9H261.726V164.57H266.484V166H260.036V156.9ZM274.125 162.568C274.125 162.681 274.117 162.841 274.099 163.049H268.652C268.748 163.56 268.995 163.968 269.393 164.271C269.801 164.566 270.303 164.713 270.901 164.713C271.664 164.713 272.292 164.462 272.786 163.959L273.657 164.96C273.345 165.333 272.951 165.614 272.474 165.805C271.998 165.996 271.46 166.091 270.862 166.091C270.1 166.091 269.428 165.939 268.847 165.636C268.267 165.333 267.816 164.912 267.495 164.375C267.183 163.829 267.027 163.214 267.027 162.529C267.027 161.853 267.179 161.246 267.482 160.709C267.794 160.163 268.223 159.738 268.769 159.435C269.315 159.132 269.931 158.98 270.615 158.98C271.291 158.98 271.894 159.132 272.422 159.435C272.96 159.73 273.376 160.15 273.67 160.696C273.974 161.233 274.125 161.857 274.125 162.568ZM270.615 160.28C270.095 160.28 269.653 160.436 269.289 160.748C268.934 161.051 268.717 161.459 268.639 161.97H272.578C272.509 161.467 272.297 161.06 271.941 160.748C271.586 160.436 271.144 160.28 270.615 160.28ZM282.059 159.058L279.082 166H277.405L274.428 159.058H276.118L278.276 164.206L280.499 159.058H282.059ZM289.41 162.568C289.41 162.681 289.402 162.841 289.384 163.049H283.937C284.033 163.56 284.28 163.968 284.678 164.271C285.086 164.566 285.588 164.713 286.186 164.713C286.949 164.713 287.577 164.462 288.071 163.959L288.942 164.96C288.63 165.333 288.236 165.614 287.759 165.805C287.283 165.996 286.745 166.091 286.147 166.091C285.385 166.091 284.713 165.939 284.132 165.636C283.552 165.333 283.101 164.912 282.78 164.375C282.468 163.829 282.312 163.214 282.312 162.529C282.312 161.853 282.464 161.246 282.767 160.709C283.079 160.163 283.508 159.738 284.054 159.435C284.6 159.132 285.216 158.98 285.9 158.98C286.576 158.98 287.179 159.132 287.707 159.435C288.245 159.73 288.661 160.15 288.955 160.696C289.259 161.233 289.41 161.857 289.41 162.568ZM285.9 160.28C285.38 160.28 284.938 160.436 284.574 160.748C284.219 161.051 284.002 161.459 283.924 161.97H287.863C287.794 161.467 287.582 161.06 287.226 160.748C286.871 160.436 286.429 160.28 285.9 160.28ZM290.971 156.354H292.596V166H290.971V156.354ZM299.934 168.522C299.423 167.733 299.028 166.819 298.751 165.779C298.482 164.739 298.348 163.625 298.348 162.438C298.348 161.251 298.482 160.137 298.751 159.097C299.028 158.048 299.423 157.134 299.934 156.354H301.481C300.952 157.29 300.562 158.256 300.311 159.253C300.068 160.241 299.947 161.303 299.947 162.438C299.947 163.573 300.068 164.639 300.311 165.636C300.562 166.624 300.952 167.586 301.481 168.522H299.934ZM302.985 156.9H304.675V166H302.985V156.9ZM311.153 165.623C310.962 165.779 310.728 165.896 310.451 165.974C310.182 166.052 309.896 166.091 309.593 166.091C308.83 166.091 308.241 165.892 307.825 165.493C307.409 165.094 307.201 164.514 307.201 163.751V160.41H306.057V159.11H307.201V157.524H308.826V159.11H310.685V160.41H308.826V163.712C308.826 164.05 308.908 164.31 309.073 164.492C309.238 164.665 309.476 164.752 309.788 164.752C310.152 164.752 310.455 164.657 310.698 164.466L311.153 165.623ZM318.787 162.568C318.787 162.681 318.779 162.841 318.761 163.049H313.314C313.41 163.56 313.657 163.968 314.055 164.271C314.463 164.566 314.965 164.713 315.563 164.713C316.326 164.713 316.954 164.462 317.448 163.959L318.319 164.96C318.007 165.333 317.613 165.614 317.136 165.805C316.66 165.996 316.122 166.091 315.524 166.091C314.762 166.091 314.09 165.939 313.509 165.636C312.929 165.333 312.478 164.912 312.157 164.375C311.845 163.829 311.689 163.214 311.689 162.529C311.689 161.853 311.841 161.246 312.144 160.709C312.456 160.163 312.885 159.738 313.431 159.435C313.977 159.132 314.593 158.98 315.277 158.98C315.953 158.98 316.556 159.132 317.084 159.435C317.622 159.73 318.038 160.15 318.332 160.696C318.636 161.233 318.787 161.857 318.787 162.568ZM315.277 160.28C314.757 160.28 314.315 160.436 313.951 160.748C313.596 161.051 313.379 161.459 313.301 161.97H317.24C317.171 161.467 316.959 161.06 316.603 160.748C316.248 160.436 315.806 160.28 315.277 160.28ZM321.895 160.072C322.363 159.344 323.187 158.98 324.365 158.98V160.527C324.227 160.501 324.101 160.488 323.988 160.488C323.356 160.488 322.862 160.674 322.506 161.047C322.151 161.411 321.973 161.94 321.973 162.633V166H320.348V159.058H321.895V160.072ZM328.358 158.98C329.38 158.98 330.16 159.227 330.698 159.721C331.244 160.206 331.517 160.943 331.517 161.931V166H329.983V165.155C329.783 165.458 329.497 165.692 329.125 165.857C328.761 166.013 328.319 166.091 327.799 166.091C327.279 166.091 326.824 166.004 326.434 165.831C326.044 165.649 325.74 165.402 325.524 165.09C325.316 164.769 325.212 164.41 325.212 164.011C325.212 163.387 325.441 162.889 325.901 162.516C326.369 162.135 327.101 161.944 328.098 161.944H329.892V161.84C329.892 161.355 329.744 160.982 329.45 160.722C329.164 160.462 328.735 160.332 328.163 160.332C327.773 160.332 327.387 160.393 327.006 160.514C326.633 160.635 326.317 160.804 326.057 161.021L325.42 159.838C325.784 159.561 326.221 159.348 326.733 159.201C327.244 159.054 327.786 158.98 328.358 158.98ZM328.137 164.908C328.544 164.908 328.904 164.817 329.216 164.635C329.536 164.444 329.762 164.176 329.892 163.829V163.023H328.215C327.279 163.023 326.811 163.331 326.811 163.946C326.811 164.241 326.928 164.475 327.162 164.648C327.396 164.821 327.721 164.908 328.137 164.908ZM337.775 165.623C337.584 165.779 337.35 165.896 337.073 165.974C336.804 166.052 336.518 166.091 336.215 166.091C335.452 166.091 334.863 165.892 334.447 165.493C334.031 165.094 333.823 164.514 333.823 163.751V160.41H332.679V159.11H333.823V157.524H335.448V159.11H337.307V160.41H335.448V163.712C335.448 164.05 335.53 164.31 335.695 164.492C335.86 164.665 336.098 164.752 336.41 164.752C336.774 164.752 337.077 164.657 337.32 164.466L337.775 165.623ZM339.112 159.058H340.737V166H339.112V159.058ZM339.931 157.914C339.636 157.914 339.389 157.823 339.19 157.641C338.991 157.45 338.891 157.216 338.891 156.939C338.891 156.662 338.991 156.432 339.19 156.25C339.389 156.059 339.636 155.964 339.931 155.964C340.226 155.964 340.473 156.055 340.672 156.237C340.871 156.41 340.971 156.631 340.971 156.9C340.971 157.186 340.871 157.429 340.672 157.628C340.481 157.819 340.234 157.914 339.931 157.914ZM345.99 166.091C345.288 166.091 344.655 165.939 344.092 165.636C343.528 165.333 343.086 164.912 342.766 164.375C342.454 163.829 342.298 163.214 342.298 162.529C342.298 161.844 342.454 161.233 342.766 160.696C343.086 160.159 343.528 159.738 344.092 159.435C344.655 159.132 345.288 158.98 345.99 158.98C346.7 158.98 347.337 159.132 347.901 159.435C348.464 159.738 348.902 160.159 349.214 160.696C349.534 161.233 349.695 161.844 349.695 162.529C349.695 163.214 349.534 163.829 349.214 164.375C348.902 164.912 348.464 165.333 347.901 165.636C347.337 165.939 346.7 166.091 345.99 166.091ZM345.99 164.7C346.588 164.7 347.082 164.501 347.472 164.102C347.862 163.703 348.057 163.179 348.057 162.529C348.057 161.879 347.862 161.355 347.472 160.956C347.082 160.557 346.588 160.358 345.99 160.358C345.392 160.358 344.898 160.557 344.508 160.956C344.126 161.355 343.936 161.879 343.936 162.529C343.936 163.179 344.126 163.703 344.508 164.102C344.898 164.501 345.392 164.7 345.99 164.7ZM355.188 158.98C356.063 158.98 356.765 159.236 357.294 159.747C357.822 160.258 358.087 161.017 358.087 162.022V166H356.462V162.23C356.462 161.623 356.319 161.168 356.033 160.865C355.747 160.553 355.339 160.397 354.811 160.397C354.213 160.397 353.74 160.579 353.394 160.943C353.047 161.298 352.874 161.814 352.874 162.49V166H351.249V159.058H352.796V159.955C353.064 159.634 353.402 159.392 353.81 159.227C354.217 159.062 354.676 158.98 355.188 158.98ZM369.838 164.57V166H363.13V164.869L366.744 161.437C367.151 161.047 367.424 160.709 367.563 160.423C367.71 160.128 367.784 159.838 367.784 159.552C367.784 159.127 367.641 158.802 367.355 158.577C367.069 158.352 366.648 158.239 366.094 158.239C365.166 158.239 364.456 158.555 363.962 159.188L362.779 158.278C363.134 157.801 363.611 157.433 364.209 157.173C364.815 156.904 365.491 156.77 366.237 156.77C367.225 156.77 368.013 157.004 368.603 157.472C369.192 157.94 369.487 158.577 369.487 159.383C369.487 159.877 369.383 160.341 369.175 160.774C368.967 161.207 368.568 161.701 367.979 162.256L365.548 164.57H369.838ZM370.527 168.522C371.056 167.586 371.446 166.62 371.697 165.623C371.949 164.626 372.074 163.565 372.074 162.438C372.074 161.311 371.949 160.25 371.697 159.253C371.446 158.256 371.056 157.29 370.527 156.354H372.074C372.586 157.125 372.976 158.035 373.244 159.084C373.522 160.124 373.66 161.242 373.66 162.438C373.66 163.634 373.522 164.752 373.244 165.792C372.976 166.823 372.586 167.733 372.074 168.522H370.527Z" fill="black"/>
<path d="M234.176 273L232.317 270.335C232.239 270.344 232.122 270.348 231.966 270.348H229.912V273H228.222V263.9H231.966C232.755 263.9 233.439 264.03 234.02 264.29C234.609 264.55 235.06 264.923 235.372 265.408C235.684 265.893 235.84 266.47 235.84 267.137C235.84 267.822 235.671 268.411 235.333 268.905C235.004 269.399 234.527 269.767 233.903 270.01L235.996 273H234.176ZM234.137 267.137C234.137 266.556 233.946 266.11 233.565 265.798C233.184 265.486 232.625 265.33 231.888 265.33H229.912V268.957H231.888C232.625 268.957 233.184 268.801 233.565 268.489C233.946 268.168 234.137 267.718 234.137 267.137ZM237.575 266.058H239.2V273H237.575V266.058ZM238.394 264.914C238.099 264.914 237.852 264.823 237.653 264.641C237.453 264.45 237.354 264.216 237.354 263.939C237.354 263.662 237.453 263.432 237.653 263.25C237.852 263.059 238.099 262.964 238.394 262.964C238.688 262.964 238.935 263.055 239.135 263.237C239.334 263.41 239.434 263.631 239.434 263.9C239.434 264.186 239.334 264.429 239.135 264.628C238.944 264.819 238.697 264.914 238.394 264.914ZM243.478 273.091C242.914 273.091 242.364 273.017 241.827 272.87C241.289 272.723 240.86 272.536 240.54 272.311L241.164 271.076C241.476 271.284 241.848 271.453 242.282 271.583C242.724 271.704 243.157 271.765 243.582 271.765C244.552 271.765 245.038 271.509 245.038 270.998C245.038 270.755 244.912 270.586 244.661 270.491C244.418 270.396 244.024 270.305 243.478 270.218C242.906 270.131 242.438 270.032 242.074 269.919C241.718 269.806 241.406 269.611 241.138 269.334C240.878 269.048 240.748 268.654 240.748 268.151C240.748 267.492 241.021 266.968 241.567 266.578C242.121 266.179 242.867 265.98 243.803 265.98C244.279 265.98 244.756 266.036 245.233 266.149C245.709 266.253 246.099 266.396 246.403 266.578L245.779 267.813C245.189 267.466 244.526 267.293 243.79 267.293C243.313 267.293 242.949 267.367 242.698 267.514C242.455 267.653 242.334 267.839 242.334 268.073C242.334 268.333 242.464 268.519 242.724 268.632C242.992 268.736 243.404 268.836 243.959 268.931C244.513 269.018 244.968 269.117 245.324 269.23C245.679 269.343 245.982 269.533 246.234 269.802C246.494 270.071 246.624 270.452 246.624 270.946C246.624 271.596 246.342 272.116 245.779 272.506C245.215 272.896 244.448 273.091 243.478 273.091ZM250.857 270.023L249.648 271.167V273H248.023V263.354H249.648V269.178L253.015 266.058H254.965L252.066 268.97L255.238 273H253.262L250.857 270.023ZM260.036 263.9H261.726V271.57H266.484V273H260.036V263.9ZM274.125 269.568C274.125 269.681 274.117 269.841 274.099 270.049H268.652C268.748 270.56 268.995 270.968 269.393 271.271C269.801 271.566 270.303 271.713 270.901 271.713C271.664 271.713 272.292 271.462 272.786 270.959L273.657 271.96C273.345 272.333 272.951 272.614 272.474 272.805C271.998 272.996 271.46 273.091 270.862 273.091C270.1 273.091 269.428 272.939 268.847 272.636C268.267 272.333 267.816 271.912 267.495 271.375C267.183 270.829 267.027 270.214 267.027 269.529C267.027 268.853 267.179 268.246 267.482 267.709C267.794 267.163 268.223 266.738 268.769 266.435C269.315 266.132 269.931 265.98 270.615 265.98C271.291 265.98 271.894 266.132 272.422 266.435C272.96 266.73 273.376 267.15 273.67 267.696C273.974 268.233 274.125 268.857 274.125 269.568ZM270.615 267.28C270.095 267.28 269.653 267.436 269.289 267.748C268.934 268.051 268.717 268.459 268.639 268.97H272.578C272.509 268.467 272.297 268.06 271.941 267.748C271.586 267.436 271.144 267.28 270.615 267.28ZM282.059 266.058L279.082 273H277.405L274.428 266.058H276.118L278.276 271.206L280.499 266.058H282.059ZM289.41 269.568C289.41 269.681 289.402 269.841 289.384 270.049H283.937C284.033 270.56 284.28 270.968 284.678 271.271C285.086 271.566 285.588 271.713 286.186 271.713C286.949 271.713 287.577 271.462 288.071 270.959L288.942 271.96C288.63 272.333 288.236 272.614 287.759 272.805C287.283 272.996 286.745 273.091 286.147 273.091C285.385 273.091 284.713 272.939 284.132 272.636C283.552 272.333 283.101 271.912 282.78 271.375C282.468 270.829 282.312 270.214 282.312 269.529C282.312 268.853 282.464 268.246 282.767 267.709C283.079 267.163 283.508 266.738 284.054 266.435C284.6 266.132 285.216 265.98 285.9 265.98C286.576 265.98 287.179 266.132 287.707 266.435C288.245 266.73 288.661 267.15 288.955 267.696C289.259 268.233 289.41 268.857 289.41 269.568ZM285.9 267.28C285.38 267.28 284.938 267.436 284.574 267.748C284.219 268.051 284.002 268.459 283.924 268.97H287.863C287.794 268.467 287.582 268.06 287.226 267.748C286.871 267.436 286.429 267.28 285.9 267.28ZM290.971 263.354H292.596V273H290.971V263.354ZM299.934 275.522C299.423 274.733 299.028 273.819 298.751 272.779C298.482 271.739 298.348 270.625 298.348 269.438C298.348 268.251 298.482 267.137 298.751 266.097C299.028 265.048 299.423 264.134 299.934 263.354H301.481C300.952 264.29 300.562 265.256 300.311 266.253C300.068 267.241 299.947 268.303 299.947 269.438C299.947 270.573 300.068 271.639 300.311 272.636C300.562 273.624 300.952 274.586 301.481 275.522H299.934ZM302.985 263.9H304.675V273H302.985V263.9ZM311.153 272.623C310.962 272.779 310.728 272.896 310.451 272.974C310.182 273.052 309.896 273.091 309.593 273.091C308.83 273.091 308.241 272.892 307.825 272.493C307.409 272.094 307.201 271.514 307.201 270.751V267.41H306.057V266.11H307.201V264.524H308.826V266.11H310.685V267.41H308.826V270.712C308.826 271.05 308.908 271.31 309.073 271.492C309.238 271.665 309.476 271.752 309.788 271.752C310.152 271.752 310.455 271.657 310.698 271.466L311.153 272.623ZM318.787 269.568C318.787 269.681 318.779 269.841 318.761 270.049H313.314C313.41 270.56 313.657 270.968 314.055 271.271C314.463 271.566 314.965 271.713 315.563 271.713C316.326 271.713 316.954 271.462 317.448 270.959L318.319 271.96C318.007 272.333 317.613 272.614 317.136 272.805C316.66 272.996 316.122 273.091 315.524 273.091C314.762 273.091 314.09 272.939 313.509 272.636C312.929 272.333 312.478 271.912 312.157 271.375C311.845 270.829 311.689 270.214 311.689 269.529C311.689 268.853 311.841 268.246 312.144 267.709C312.456 267.163 312.885 266.738 313.431 266.435C313.977 266.132 314.593 265.98 315.277 265.98C315.953 265.98 316.556 266.132 317.084 266.435C317.622 266.73 318.038 267.15 318.332 267.696C318.636 268.233 318.787 268.857 318.787 269.568ZM315.277 267.28C314.757 267.28 314.315 267.436 313.951 267.748C313.596 268.051 313.379 268.459 313.301 268.97H317.24C317.171 268.467 316.959 268.06 316.603 267.748C316.248 267.436 315.806 267.28 315.277 267.28ZM321.895 267.072C322.363 266.344 323.187 265.98 324.365 265.98V267.527C324.227 267.501 324.101 267.488 323.988 267.488C323.356 267.488 322.862 267.674 322.506 268.047C322.151 268.411 321.973 268.94 321.973 269.633V273H320.348V266.058H321.895V267.072ZM328.358 265.98C329.38 265.98 330.16 266.227 330.698 266.721C331.244 267.206 331.517 267.943 331.517 268.931V273H329.983V272.155C329.783 272.458 329.497 272.692 329.125 272.857C328.761 273.013 328.319 273.091 327.799 273.091C327.279 273.091 326.824 273.004 326.434 272.831C326.044 272.649 325.74 272.402 325.524 272.09C325.316 271.769 325.212 271.41 325.212 271.011C325.212 270.387 325.441 269.889 325.901 269.516C326.369 269.135 327.101 268.944 328.098 268.944H329.892V268.84C329.892 268.355 329.744 267.982 329.45 267.722C329.164 267.462 328.735 267.332 328.163 267.332C327.773 267.332 327.387 267.393 327.006 267.514C326.633 267.635 326.317 267.804 326.057 268.021L325.42 266.838C325.784 266.561 326.221 266.348 326.733 266.201C327.244 266.054 327.786 265.98 328.358 265.98ZM328.137 271.908C328.544 271.908 328.904 271.817 329.216 271.635C329.536 271.444 329.762 271.176 329.892 270.829V270.023H328.215C327.279 270.023 326.811 270.331 326.811 270.946C326.811 271.241 326.928 271.475 327.162 271.648C327.396 271.821 327.721 271.908 328.137 271.908ZM337.775 272.623C337.584 272.779 337.35 272.896 337.073 272.974C336.804 273.052 336.518 273.091 336.215 273.091C335.452 273.091 334.863 272.892 334.447 272.493C334.031 272.094 333.823 271.514 333.823 270.751V267.41H332.679V266.11H333.823V264.524H335.448V266.11H337.307V267.41H335.448V270.712C335.448 271.05 335.53 271.31 335.695 271.492C335.86 271.665 336.098 271.752 336.41 271.752C336.774 271.752 337.077 271.657 337.32 271.466L337.775 272.623ZM339.112 266.058H340.737V273H339.112V266.058ZM339.931 264.914C339.636 264.914 339.389 264.823 339.19 264.641C338.991 264.45 338.891 264.216 338.891 263.939C338.891 263.662 338.991 263.432 339.19 263.25C339.389 263.059 339.636 262.964 339.931 262.964C340.226 262.964 340.473 263.055 340.672 263.237C340.871 263.41 340.971 263.631 340.971 263.9C340.971 264.186 340.871 264.429 340.672 264.628C340.481 264.819 340.234 264.914 339.931 264.914ZM345.99 273.091C345.288 273.091 344.655 272.939 344.092 272.636C343.528 272.333 343.086 271.912 342.766 271.375C342.454 270.829 342.298 270.214 342.298 269.529C342.298 268.844 342.454 268.233 342.766 267.696C343.086 267.159 343.528 266.738 344.092 266.435C344.655 266.132 345.288 265.98 345.99 265.98C346.7 265.98 347.337 266.132 347.901 266.435C348.464 266.738 348.902 267.159 349.214 267.696C349.534 268.233 349.695 268.844 349.695 269.529C349.695 270.214 349.534 270.829 349.214 271.375C348.902 271.912 348.464 272.333 347.901 272.636C347.337 272.939 346.7 273.091 345.99 273.091ZM345.99 271.7C346.588 271.7 347.082 271.501 347.472 271.102C347.862 270.703 348.057 270.179 348.057 269.529C348.057 268.879 347.862 268.355 347.472 267.956C347.082 267.557 346.588 267.358 345.99 267.358C345.392 267.358 344.898 267.557 344.508 267.956C344.126 268.355 343.936 268.879 343.936 269.529C343.936 270.179 344.126 270.703 344.508 271.102C344.898 271.501 345.392 271.7 345.99 271.7ZM355.188 265.98C356.063 265.98 356.765 266.236 357.294 266.747C357.822 267.258 358.087 268.017 358.087 269.022V273H356.462V269.23C356.462 268.623 356.319 268.168 356.033 267.865C355.747 267.553 355.339 267.397 354.811 267.397C354.213 267.397 353.74 267.579 353.394 267.943C353.047 268.298 352.874 268.814 352.874 269.49V273H351.249V266.058H352.796V266.955C353.064 266.634 353.402 266.392 353.81 266.227C354.217 266.062 354.676 265.98 355.188 265.98ZM367.121 267.657C367.961 267.761 368.603 268.047 369.045 268.515C369.487 268.983 369.708 269.568 369.708 270.27C369.708 270.799 369.573 271.28 369.305 271.713C369.036 272.146 368.629 272.493 368.083 272.753C367.545 273.004 366.887 273.13 366.107 273.13C365.457 273.13 364.828 273.039 364.222 272.857C363.624 272.666 363.112 272.406 362.688 272.077L363.416 270.764C363.745 271.041 364.144 271.262 364.612 271.427C365.088 271.583 365.578 271.661 366.081 271.661C366.679 271.661 367.147 271.54 367.485 271.297C367.831 271.046 368.005 270.708 368.005 270.283C368.005 269.858 367.84 269.529 367.511 269.295C367.19 269.052 366.696 268.931 366.029 268.931H365.197V267.774L367.264 265.317H363.13V263.9H369.331V265.031L367.121 267.657ZM370.527 275.522C371.056 274.586 371.446 273.62 371.697 272.623C371.949 271.626 372.074 270.565 372.074 269.438C372.074 268.311 371.949 267.25 371.697 266.253C371.446 265.256 371.056 264.29 370.527 263.354H372.074C372.586 264.125 372.976 265.035 373.244 266.084C373.522 267.124 373.66 268.242 373.66 269.438C373.66 270.634 373.522 271.752 373.244 272.792C372.976 273.823 372.586 274.733 372.074 275.522H370.527Z" fill="black"/>
<path d="M196.439 105L196.429 100.36L194.129 104.2H193.549L191.249 100.42V105H190.009V98H191.079L193.859 102.64L196.589 98H197.659L197.669 105H196.439ZM204.46 102.36C204.46 102.447 204.453 102.57 204.44 102.73H200.25C200.323 103.123 200.513 103.437 200.82 103.67C201.133 103.897 201.52 104.01 201.98 104.01C202.567 104.01 203.05 103.817 203.43 103.43L204.1 104.2C203.86 104.487 203.557 104.703 203.19 104.85C202.823 104.997 202.41 105.07 201.95 105.07C201.363 105.07 200.847 104.953 200.4 104.72C199.953 104.487 199.607 104.163 199.36 103.75C199.12 103.33 199 102.857 199 102.33C199 101.81 199.117 101.343 199.35 100.93C199.59 100.51 199.92 100.183 200.34 99.95C200.76 99.7167 201.233 99.6 201.76 99.6C202.28 99.6 202.743 99.7167 203.15 99.95C203.563 100.177 203.883 100.5 204.11 100.92C204.343 101.333 204.46 101.813 204.46 102.36ZM201.76 100.6C201.36 100.6 201.02 100.72 200.74 100.96C200.467 101.193 200.3 101.507 200.24 101.9H203.27C203.217 101.513 203.053 101.2 202.78 100.96C202.507 100.72 202.167 100.6 201.76 100.6ZM210.891 97.58V105H209.691V104.31C209.484 104.563 209.227 104.753 208.921 104.88C208.621 105.007 208.287 105.07 207.921 105.07C207.407 105.07 206.944 104.957 206.531 104.73C206.124 104.503 205.804 104.183 205.571 103.77C205.337 103.35 205.221 102.87 205.221 102.33C205.221 101.79 205.337 101.313 205.571 100.9C205.804 100.487 206.124 100.167 206.531 99.94C206.944 99.7133 207.407 99.6 207.921 99.6C208.274 99.6 208.597 99.66 208.891 99.78C209.184 99.9 209.434 100.08 209.641 100.32V97.58H210.891ZM208.071 104C208.371 104 208.641 103.933 208.881 103.8C209.121 103.66 209.311 103.463 209.451 103.21C209.591 102.957 209.661 102.663 209.661 102.33C209.661 101.997 209.591 101.703 209.451 101.45C209.311 101.197 209.121 101.003 208.881 100.87C208.641 100.73 208.371 100.66 208.071 100.66C207.771 100.66 207.501 100.73 207.261 100.87C207.021 101.003 206.831 101.197 206.691 101.45C206.551 101.703 206.481 101.997 206.481 102.33C206.481 102.663 206.551 102.957 206.691 103.21C206.831 103.463 207.021 103.66 207.261 103.8C207.501 103.933 207.771 104 208.071 104ZM212.526 99.66H213.776V105H212.526V99.66ZM213.156 98.78C212.929 98.78 212.739 98.71 212.586 98.57C212.433 98.4233 212.356 98.2433 212.356 98.03C212.356 97.8167 212.433 97.64 212.586 97.5C212.739 97.3533 212.929 97.28 213.156 97.28C213.383 97.28 213.573 97.35 213.726 97.49C213.879 97.6233 213.956 97.7933 213.956 98C213.956 98.22 213.879 98.4067 213.726 98.56C213.579 98.7067 213.389 98.78 213.156 98.78ZM220.587 99.66V105H219.397V104.32C219.197 104.56 218.947 104.747 218.647 104.88C218.347 105.007 218.023 105.07 217.677 105.07C216.963 105.07 216.4 104.873 215.987 104.48C215.58 104.08 215.377 103.49 215.377 102.71V99.66H216.627V102.54C216.627 103.02 216.733 103.38 216.947 103.62C217.167 103.853 217.477 103.97 217.877 103.97C218.323 103.97 218.677 103.833 218.937 103.56C219.203 103.28 219.337 102.88 219.337 102.36V99.66H220.587ZM228.963 99.6C229.637 99.6 230.17 99.7967 230.563 100.19C230.957 100.577 231.153 101.16 231.153 101.94V105H229.903V102.1C229.903 101.633 229.8 101.283 229.593 101.05C229.387 100.81 229.09 100.69 228.703 100.69C228.283 100.69 227.947 100.83 227.693 101.11C227.44 101.383 227.313 101.777 227.313 102.29V105H226.063V102.1C226.063 101.633 225.96 101.283 225.753 101.05C225.547 100.81 225.25 100.69 224.863 100.69C224.437 100.69 224.097 100.827 223.843 101.1C223.597 101.373 223.473 101.77 223.473 102.29V105H222.223V99.66H223.413V100.34C223.613 100.1 223.863 99.9167 224.163 99.79C224.463 99.6633 224.797 99.6 225.163 99.6C225.563 99.6 225.917 99.6767 226.223 99.83C226.537 99.9767 226.783 100.197 226.963 100.49C227.183 100.21 227.467 99.9933 227.813 99.84C228.16 99.68 228.543 99.6 228.963 99.6Z" fill="#51646D"/>
<path d="M248.74 105L248.73 100.36L246.43 104.2H245.85L243.55 100.42V105H242.31V98H243.38L246.16 102.64L248.89 98H249.96L249.97 105H248.74ZM256.761 102.36C256.761 102.447 256.754 102.57 256.741 102.73H252.551C252.624 103.123 252.814 103.437 253.121 103.67C253.434 103.897 253.821 104.01 254.281 104.01C254.868 104.01 255.351 103.817 255.731 103.43L256.401 104.2C256.161 104.487 255.858 104.703 255.491 104.85C255.124 104.997 254.711 105.07 254.251 105.07C253.664 105.07 253.148 104.953 252.701 104.72C252.254 104.487 251.908 104.163 251.661 103.75C251.421 103.33 251.301 102.857 251.301 102.33C251.301 101.81 251.418 101.343 251.651 100.93C251.891 100.51 252.221 100.183 252.641 99.95C253.061 99.7167 253.534 99.6 254.061 99.6C254.581 99.6 255.044 99.7167 255.451 99.95C255.864 100.177 256.184 100.5 256.411 100.92C256.644 101.333 256.761 101.813 256.761 102.36ZM254.061 100.6C253.661 100.6 253.321 100.72 253.041 100.96C252.768 101.193 252.601 101.507 252.541 101.9H255.571C255.518 101.513 255.354 101.2 255.081 100.96C254.808 100.72 254.468 100.6 254.061 100.6ZM263.192 97.58V105H261.992V104.31C261.785 104.563 261.528 104.753 261.222 104.88C260.922 105.007 260.588 105.07 260.222 105.07C259.708 105.07 259.245 104.957 258.832 104.73C258.425 104.503 258.105 104.183 257.872 103.77C257.638 103.35 257.522 102.87 257.522 102.33C257.522 101.79 257.638 101.313 257.872 100.9C258.105 100.487 258.425 100.167 258.832 99.94C259.245 99.7133 259.708 99.6 260.222 99.6C260.575 99.6 260.898 99.66 261.192 99.78C261.485 99.9 261.735 100.08 261.942 100.32V97.58H263.192ZM260.372 104C260.672 104 260.942 103.933 261.182 103.8C261.422 103.66 261.612 103.463 261.752 103.21C261.892 102.957 261.962 102.663 261.962 102.33C261.962 101.997 261.892 101.703 261.752 101.45C261.612 101.197 261.422 101.003 261.182 100.87C260.942 100.73 260.672 100.66 260.372 100.66C260.072 100.66 259.802 100.73 259.562 100.87C259.322 101.003 259.132 101.197 258.992 101.45C258.852 101.703 258.782 101.997 258.782 102.33C258.782 102.663 258.852 102.957 258.992 103.21C259.132 103.463 259.322 103.66 259.562 103.8C259.802 103.933 260.072 104 260.372 104ZM264.557 101.7H267.307V102.74H264.557V101.7ZM275.014 98V105H273.714V102H270.094V105H268.794V98H270.094V100.89H273.714V98H275.014ZM276.77 99.66H278.02V105H276.77V99.66ZM277.4 98.78C277.174 98.78 276.984 98.71 276.83 98.57C276.677 98.4233 276.6 98.2433 276.6 98.03C276.6 97.8167 276.677 97.64 276.83 97.5C276.984 97.3533 277.174 97.28 277.4 97.28C277.627 97.28 277.817 97.35 277.97 97.49C278.124 97.6233 278.2 97.7933 278.2 98C278.2 98.22 278.124 98.4067 277.97 98.56C277.824 98.7067 277.634 98.78 277.4 98.78ZM284.961 99.66V104.19C284.961 106.07 284.001 107.01 282.081 107.01C281.567 107.01 281.081 106.943 280.621 106.81C280.161 106.683 279.781 106.497 279.481 106.25L280.041 105.31C280.274 105.503 280.567 105.657 280.921 105.77C281.281 105.89 281.644 105.95 282.011 105.95C282.597 105.95 283.027 105.817 283.301 105.55C283.574 105.283 283.711 104.877 283.711 104.33V104.05C283.497 104.283 283.237 104.46 282.931 104.58C282.624 104.7 282.287 104.76 281.921 104.76C281.414 104.76 280.954 104.653 280.541 104.44C280.134 104.22 279.811 103.913 279.571 103.52C279.337 103.127 279.221 102.677 279.221 102.17C279.221 101.663 279.337 101.217 279.571 100.83C279.811 100.437 280.134 100.133 280.541 99.92C280.954 99.7067 281.414 99.6 281.921 99.6C282.307 99.6 282.657 99.6633 282.971 99.79C283.291 99.9167 283.557 100.11 283.771 100.37V99.66H284.961ZM282.111 103.7C282.584 103.7 282.971 103.56 283.271 103.28C283.577 102.993 283.731 102.623 283.731 102.17C283.731 101.723 283.577 101.36 283.271 101.08C282.971 100.8 282.584 100.66 282.111 100.66C281.631 100.66 281.237 100.8 280.931 101.08C280.631 101.36 280.481 101.723 280.481 102.17C280.481 102.623 280.631 102.993 280.931 103.28C281.237 103.56 281.631 103.7 282.111 103.7ZM289.634 99.6C290.308 99.6 290.848 99.7967 291.254 100.19C291.661 100.583 291.864 101.167 291.864 101.94V105H290.614V102.1C290.614 101.633 290.504 101.283 290.284 101.05C290.064 100.81 289.751 100.69 289.344 100.69C288.884 100.69 288.521 100.83 288.254 101.11C287.988 101.383 287.854 101.78 287.854 102.3V105H286.604V97.58H287.854V100.28C288.061 100.06 288.314 99.8933 288.614 99.78C288.921 99.66 289.261 99.6 289.634 99.6Z" fill="#51646D"/>
<path d="M317.272 98V105H315.972V102H312.352V105H311.052V98H312.352V100.89H315.972V98H317.272ZM319.028 99.66H320.278V105H319.028V99.66ZM319.658 98.78C319.431 98.78 319.241 98.71 319.088 98.57C318.935 98.4233 318.858 98.2433 318.858 98.03C318.858 97.8167 318.935 97.64 319.088 97.5C319.241 97.3533 319.431 97.28 319.658 97.28C319.885 97.28 320.075 97.35 320.228 97.49C320.381 97.6233 320.458 97.7933 320.458 98C320.458 98.22 320.381 98.4067 320.228 98.56C320.081 98.7067 319.891 98.78 319.658 98.78ZM327.219 99.66V104.19C327.219 106.07 326.259 107.01 324.339 107.01C323.825 107.01 323.339 106.943 322.879 106.81C322.419 106.683 322.039 106.497 321.739 106.25L322.299 105.31C322.532 105.503 322.825 105.657 323.179 105.77C323.539 105.89 323.902 105.95 324.269 105.95C324.855 105.95 325.285 105.817 325.559 105.55C325.832 105.283 325.969 104.877 325.969 104.33V104.05C325.755 104.283 325.495 104.46 325.189 104.58C324.882 104.7 324.545 104.76 324.179 104.76C323.672 104.76 323.212 104.653 322.799 104.44C322.392 104.22 322.069 103.913 321.829 103.52C321.595 103.127 321.479 102.677 321.479 102.17C321.479 101.663 321.595 101.217 321.829 100.83C322.069 100.437 322.392 100.133 322.799 99.92C323.212 99.7067 323.672 99.6 324.179 99.6C324.565 99.6 324.915 99.6633 325.229 99.79C325.549 99.9167 325.815 100.11 326.029 100.37V99.66H327.219ZM324.369 103.7C324.842 103.7 325.229 103.56 325.529 103.28C325.835 102.993 325.989 102.623 325.989 102.17C325.989 101.723 325.835 101.36 325.529 101.08C325.229 100.8 324.842 100.66 324.369 100.66C323.889 100.66 323.495 100.8 323.189 101.08C322.889 101.36 322.739 101.723 322.739 102.17C322.739 102.623 322.889 102.993 323.189 103.28C323.495 103.56 323.889 103.7 324.369 103.7ZM331.892 99.6C332.565 99.6 333.105 99.7967 333.512 100.19C333.919 100.583 334.122 101.167 334.122 101.94V105H332.872V102.1C332.872 101.633 332.762 101.283 332.542 101.05C332.322 100.81 332.009 100.69 331.602 100.69C331.142 100.69 330.779 100.83 330.512 101.11C330.245 101.383 330.112 101.78 330.112 102.3V105H328.862V97.58H330.112V100.28C330.319 100.06 330.572 99.8933 330.872 99.78C331.179 99.66 331.519 99.6 331.892 99.6Z" fill="#51646D"/>
<path d="M367.538 98V105H366.238V102H362.618V105H361.318V98H362.618V100.89H366.238V98H367.538ZM369.294 99.66H370.544V105H369.294V99.66ZM369.924 98.78C369.697 98.78 369.507 98.71 369.354 98.57C369.2 98.4233 369.124 98.2433 369.124 98.03C369.124 97.8167 369.2 97.64 369.354 97.5C369.507 97.3533 369.697 97.28 369.924 97.28C370.15 97.28 370.34 97.35 370.494 97.49C370.647 97.6233 370.724 97.7933 370.724 98C370.724 98.22 370.647 98.4067 370.494 98.56C370.347 98.7067 370.157 98.78 369.924 98.78ZM377.484 99.66V104.19C377.484 106.07 376.524 107.01 374.604 107.01C374.091 107.01 373.604 106.943 373.144 106.81C372.684 106.683 372.304 106.497 372.004 106.25L372.564 105.31C372.798 105.503 373.091 105.657 373.444 105.77C373.804 105.89 374.168 105.95 374.534 105.95C375.121 105.95 375.551 105.817 375.824 105.55C376.098 105.283 376.234 104.877 376.234 104.33V104.05C376.021 104.283 375.761 104.46 375.454 104.58C375.148 104.7 374.811 104.76 374.444 104.76C373.938 104.76 373.478 104.653 373.064 104.44C372.658 104.22 372.334 103.913 372.094 103.52C371.861 103.127 371.744 102.677 371.744 102.17C371.744 101.663 371.861 101.217 372.094 100.83C372.334 100.437 372.658 100.133 373.064 99.92C373.478 99.7067 373.938 99.6 374.444 99.6C374.831 99.6 375.181 99.6633 375.494 99.79C375.814 99.9167 376.081 100.11 376.294 100.37V99.66H377.484ZM374.634 103.7C375.108 103.7 375.494 103.56 375.794 103.28C376.101 102.993 376.254 102.623 376.254 102.17C376.254 101.723 376.101 101.36 375.794 101.08C375.494 100.8 375.108 100.66 374.634 100.66C374.154 100.66 373.761 100.8 373.454 101.08C373.154 101.36 373.004 101.723 373.004 102.17C373.004 102.623 373.154 102.993 373.454 103.28C373.761 103.56 374.154 103.7 374.634 103.7ZM382.158 99.6C382.831 99.6 383.371 99.7967 383.778 100.19C384.184 100.583 384.388 101.167 384.388 101.94V105H383.138V102.1C383.138 101.633 383.028 101.283 382.808 101.05C382.588 100.81 382.274 100.69 381.868 100.69C381.408 100.69 381.044 100.83 380.778 101.11C380.511 101.383 380.378 101.78 380.378 102.3V105H379.128V97.58H380.378V100.28C380.584 100.06 380.838 99.8933 381.138 99.78C381.444 99.66 381.784 99.6 382.158 99.6ZM391.042 102.36C391.042 102.447 391.035 102.57 391.022 102.73H386.832C386.905 103.123 387.095 103.437 387.402 103.67C387.715 103.897 388.102 104.01 388.562 104.01C389.149 104.01 389.632 103.817 390.012 103.43L390.682 104.2C390.442 104.487 390.139 104.703 389.772 104.85C389.405 104.997 388.992 105.07 388.532 105.07C387.945 105.07 387.429 104.953 386.982 104.72C386.535 104.487 386.189 104.163 385.942 103.75C385.702 103.33 385.582 102.857 385.582 102.33C385.582 101.81 385.699 101.343 385.932 100.93C386.172 100.51 386.502 100.183 386.922 99.95C387.342 99.7167 387.815 99.6 388.342 99.6C388.862 99.6 389.325 99.7167 389.732 99.95C390.145 100.177 390.465 100.5 390.692 100.92C390.925 101.333 391.042 101.813 391.042 102.36ZM388.342 100.6C387.942 100.6 387.602 100.72 387.322 100.96C387.049 101.193 386.882 101.507 386.822 101.9H389.852C389.799 101.513 389.635 101.2 389.362 100.96C389.089 100.72 388.749 100.6 388.342 100.6ZM393.433 100.44C393.793 99.88 394.426 99.6 395.333 99.6V100.79C395.226 100.77 395.13 100.76 395.043 100.76C394.556 100.76 394.176 100.903 393.903 101.19C393.63 101.47 393.493 101.877 393.493 102.41V105H392.243V99.66H393.433V100.44Z" fill="#51646D"/>
<path d="M422.445 98V105H421.145V102H417.525V105H416.225V98H417.525V100.89H421.145V98H422.445ZM424.201 99.66H425.451V105H424.201V99.66ZM424.831 98.78C424.604 98.78 424.414 98.71 424.261 98.57C424.108 98.4233 424.031 98.2433 424.031 98.03C424.031 97.8167 424.108 97.64 424.261 97.5C424.414 97.3533 424.604 97.28 424.831 97.28C425.058 97.28 425.248 97.35 425.401 97.49C425.554 97.6233 425.631 97.7933 425.631 98C425.631 98.22 425.554 98.4067 425.401 98.56C425.254 98.7067 425.064 98.78 424.831 98.78ZM432.391 99.66V104.19C432.391 106.07 431.431 107.01 429.511 107.01C428.998 107.01 428.511 106.943 428.051 106.81C427.591 106.683 427.211 106.497 426.911 106.25L427.471 105.31C427.705 105.503 427.998 105.657 428.351 105.77C428.711 105.89 429.075 105.95 429.441 105.95C430.028 105.95 430.458 105.817 430.731 105.55C431.005 105.283 431.141 104.877 431.141 104.33V104.05C430.928 104.283 430.668 104.46 430.361 104.58C430.055 104.7 429.718 104.76 429.351 104.76C428.845 104.76 428.385 104.653 427.971 104.44C427.565 104.22 427.241 103.913 427.001 103.52C426.768 103.127 426.651 102.677 426.651 102.17C426.651 101.663 426.768 101.217 427.001 100.83C427.241 100.437 427.565 100.133 427.971 99.92C428.385 99.7067 428.845 99.6 429.351 99.6C429.738 99.6 430.088 99.6633 430.401 99.79C430.721 99.9167 430.988 100.11 431.201 100.37V99.66H432.391ZM429.541 103.7C430.015 103.7 430.401 103.56 430.701 103.28C431.008 102.993 431.161 102.623 431.161 102.17C431.161 101.723 431.008 101.36 430.701 101.08C430.401 100.8 430.015 100.66 429.541 100.66C429.061 100.66 428.668 100.8 428.361 101.08C428.061 101.36 427.911 101.723 427.911 102.17C427.911 102.623 428.061 102.993 428.361 103.28C428.668 103.56 429.061 103.7 429.541 103.7ZM437.065 99.6C437.738 99.6 438.278 99.7967 438.685 100.19C439.092 100.583 439.295 101.167 439.295 101.94V105H438.045V102.1C438.045 101.633 437.935 101.283 437.715 101.05C437.495 100.81 437.182 100.69 436.775 100.69C436.315 100.69 435.952 100.83 435.685 101.11C435.418 101.383 435.285 101.78 435.285 102.3V105H434.035V97.58H435.285V100.28C435.492 100.06 435.745 99.8933 436.045 99.78C436.352 99.66 436.692 99.6 437.065 99.6ZM445.949 102.36C445.949 102.447 445.943 102.57 445.929 102.73H441.739C441.813 103.123 442.003 103.437 442.309 103.67C442.623 103.897 443.009 104.01 443.469 104.01C444.056 104.01 444.539 103.817 444.919 103.43L445.589 104.2C445.349 104.487 445.046 104.703 444.679 104.85C444.313 104.997 443.899 105.07 443.439 105.07C442.853 105.07 442.336 104.953 441.889 104.72C441.443 104.487 441.096 104.163 440.849 103.75C440.609 103.33 440.489 102.857 440.489 102.33C440.489 101.81 440.606 101.343 440.839 100.93C441.079 100.51 441.409 100.183 441.829 99.95C442.249 99.7167 442.723 99.6 443.249 99.6C443.769 99.6 444.233 99.7167 444.639 99.95C445.053 100.177 445.373 100.5 445.599 100.92C445.833 101.333 445.949 101.813 445.949 102.36ZM443.249 100.6C442.849 100.6 442.509 100.72 442.229 100.96C441.956 101.193 441.789 101.507 441.729 101.9H444.759C444.706 101.513 444.543 101.2 444.269 100.96C443.996 100.72 443.656 100.6 443.249 100.6ZM448.8 105.07C448.367 105.07 447.943 105.013 447.53 104.9C447.117 104.787 446.787 104.643 446.54 104.47L447.02 103.52C447.26 103.68 447.547 103.81 447.88 103.91C448.22 104.003 448.553 104.05 448.88 104.05C449.627 104.05 450 103.853 450 103.46C450 103.273 449.903 103.143 449.71 103.07C449.523 102.997 449.22 102.927 448.8 102.86C448.36 102.793 448 102.717 447.72 102.63C447.447 102.543 447.207 102.393 447 102.18C446.8 101.96 446.7 101.657 446.7 101.27C446.7 100.763 446.91 100.36 447.33 100.06C447.757 99.7533 448.33 99.6 449.05 99.6C449.417 99.6 449.783 99.6433 450.15 99.73C450.517 99.81 450.817 99.92 451.05 100.06L450.57 101.01C450.117 100.743 449.607 100.61 449.04 100.61C448.673 100.61 448.393 100.667 448.2 100.78C448.013 100.887 447.92 101.03 447.92 101.21C447.92 101.41 448.02 101.553 448.22 101.64C448.427 101.72 448.743 101.797 449.17 101.87C449.597 101.937 449.947 102.013 450.22 102.1C450.493 102.187 450.727 102.333 450.92 102.54C451.12 102.747 451.22 103.04 451.22 103.42C451.22 103.92 451.003 104.32 450.57 104.62C450.137 104.92 449.547 105.07 448.8 105.07ZM455.507 104.71C455.36 104.83 455.18 104.92 454.967 104.98C454.76 105.04 454.54 105.07 454.307 105.07C453.72 105.07 453.267 104.917 452.947 104.61C452.627 104.303 452.467 103.857 452.467 103.27V100.7H451.587V99.7H452.467V98.48H453.717V99.7H455.147V100.7H453.717V103.24C453.717 103.5 453.78 103.7 453.907 103.84C454.033 103.973 454.217 104.04 454.457 104.04C454.737 104.04 454.97 103.967 455.157 103.82L455.507 104.71Z" fill="#51646D"/>
<path d="M415.5 76H468L460.5 91H408L415.5 76Z" fill="#850A0B"/>
<path d="M359.5 76H412L404.5 91H352L359.5 76Z" fill="#CB2917"/>
<path d="M303.5 76H356L348.5 91H296L303.5 76Z" fill="#FD7A24"/>
<path d="M247.5 76H300L292.5 91H240L247.5 76Z" fill="#FECE41"/>
<path d="M191.5 76H244L236.5 91H184L191.5 76Z" fill="#176798"/>
<path d="M135.5 76H188L180.5 91H128L135.5 76Z" fill="#1F3F53"/>
<path d="M144.227 205H145.527V210.9H149.187V212H144.227V205ZM152.445 212.07C151.905 212.07 151.418 211.953 150.985 211.72C150.551 211.487 150.211 211.163 149.965 210.75C149.725 210.33 149.605 209.857 149.605 209.33C149.605 208.803 149.725 208.333 149.965 207.92C150.211 207.507 150.551 207.183 150.985 206.95C151.418 206.717 151.905 206.6 152.445 206.6C152.991 206.6 153.481 206.717 153.915 206.95C154.348 207.183 154.685 207.507 154.925 207.92C155.171 208.333 155.295 208.803 155.295 209.33C155.295 209.857 155.171 210.33 154.925 210.75C154.685 211.163 154.348 211.487 153.915 211.72C153.481 211.953 152.991 212.07 152.445 212.07ZM152.445 211C152.905 211 153.285 210.847 153.585 210.54C153.885 210.233 154.035 209.83 154.035 209.33C154.035 208.83 153.885 208.427 153.585 208.12C153.285 207.813 152.905 207.66 152.445 207.66C151.985 207.66 151.605 207.813 151.305 208.12C151.011 208.427 150.865 208.83 150.865 209.33C150.865 209.83 151.011 210.233 151.305 210.54C151.605 210.847 151.985 211 152.445 211ZM164.673 206.66L162.703 212H161.503L160.123 208.32L158.723 212H157.523L155.563 206.66H156.743L158.153 210.6L159.623 206.66H160.673L162.113 210.62L163.563 206.66H164.673Z" fill="#51646D"/>
<path d="M196.439 212L196.429 207.36L194.129 211.2H193.549L191.249 207.42V212H190.009V205H191.079L193.859 209.64L196.589 205H197.659L197.669 212H196.439ZM204.46 209.36C204.46 209.447 204.453 209.57 204.44 209.73H200.25C200.323 210.123 200.513 210.437 200.82 210.67C201.133 210.897 201.52 211.01 201.98 211.01C202.567 211.01 203.05 210.817 203.43 210.43L204.1 211.2C203.86 211.487 203.557 211.703 203.19 211.85C202.823 211.997 202.41 212.07 201.95 212.07C201.363 212.07 200.847 211.953 200.4 211.72C199.953 211.487 199.607 211.163 199.36 210.75C199.12 210.33 199 209.857 199 209.33C199 208.81 199.117 208.343 199.35 207.93C199.59 207.51 199.92 207.183 200.34 206.95C200.76 206.717 201.233 206.6 201.76 206.6C202.28 206.6 202.743 206.717 203.15 206.95C203.563 207.177 203.883 207.5 204.11 207.92C204.343 208.333 204.46 208.813 204.46 209.36ZM201.76 207.6C201.36 207.6 201.02 207.72 200.74 207.96C200.467 208.193 200.3 208.507 200.24 208.9H203.27C203.217 208.513 203.053 208.2 202.78 207.96C202.507 207.72 202.167 207.6 201.76 207.6ZM210.891 204.58V212H209.691V211.31C209.484 211.563 209.227 211.753 208.921 211.88C208.621 212.007 208.287 212.07 207.921 212.07C207.407 212.07 206.944 211.957 206.531 211.73C206.124 211.503 205.804 211.183 205.571 210.77C205.337 210.35 205.221 209.87 205.221 209.33C205.221 208.79 205.337 208.313 205.571 207.9C205.804 207.487 206.124 207.167 206.531 206.94C206.944 206.713 207.407 206.6 207.921 206.6C208.274 206.6 208.597 206.66 208.891 206.78C209.184 206.9 209.434 207.08 209.641 207.32V204.58H210.891ZM208.071 211C208.371 211 208.641 210.933 208.881 210.8C209.121 210.66 209.311 210.463 209.451 210.21C209.591 209.957 209.661 209.663 209.661 209.33C209.661 208.997 209.591 208.703 209.451 208.45C209.311 208.197 209.121 208.003 208.881 207.87C208.641 207.73 208.371 207.66 208.071 207.66C207.771 207.66 207.501 207.73 207.261 207.87C207.021 208.003 206.831 208.197 206.691 208.45C206.551 208.703 206.481 208.997 206.481 209.33C206.481 209.663 206.551 209.957 206.691 210.21C206.831 210.463 207.021 210.66 207.261 210.8C207.501 210.933 207.771 211 208.071 211ZM212.526 206.66H213.776V212H212.526V206.66ZM213.156 205.78C212.929 205.78 212.739 205.71 212.586 205.57C212.433 205.423 212.356 205.243 212.356 205.03C212.356 204.817 212.433 204.64 212.586 204.5C212.739 204.353 212.929 204.28 213.156 204.28C213.383 204.28 213.573 204.35 213.726 204.49C213.879 204.623 213.956 204.793 213.956 205C213.956 205.22 213.879 205.407 213.726 205.56C213.579 205.707 213.389 205.78 213.156 205.78ZM220.587 206.66V212H219.397V211.32C219.197 211.56 218.947 211.747 218.647 211.88C218.347 212.007 218.023 212.07 217.677 212.07C216.963 212.07 216.4 211.873 215.987 211.48C215.58 211.08 215.377 210.49 215.377 209.71V206.66H216.627V209.54C216.627 210.02 216.733 210.38 216.947 210.62C217.167 210.853 217.477 210.97 217.877 210.97C218.323 210.97 218.677 210.833 218.937 210.56C219.203 210.28 219.337 209.88 219.337 209.36V206.66H220.587ZM228.963 206.6C229.637 206.6 230.17 206.797 230.563 207.19C230.957 207.577 231.153 208.16 231.153 208.94V212H229.903V209.1C229.903 208.633 229.8 208.283 229.593 208.05C229.387 207.81 229.09 207.69 228.703 207.69C228.283 207.69 227.947 207.83 227.693 208.11C227.44 208.383 227.313 208.777 227.313 209.29V212H226.063V209.1C226.063 208.633 225.96 208.283 225.753 208.05C225.547 207.81 225.25 207.69 224.863 207.69C224.437 207.69 224.097 207.827 223.843 208.1C223.597 208.373 223.473 208.77 223.473 209.29V212H222.223V206.66H223.413V207.34C223.613 207.1 223.863 206.917 224.163 206.79C224.463 206.663 224.797 206.6 225.163 206.6C225.563 206.6 225.917 206.677 226.223 206.83C226.537 206.977 226.783 207.197 226.963 207.49C227.183 207.21 227.467 206.993 227.813 206.84C228.16 206.68 228.543 206.6 228.963 206.6Z" fill="#51646D"/>
<path d="M248.74 212L248.73 207.36L246.43 211.2H245.85L243.55 207.42V212H242.31V205H243.38L246.16 209.64L248.89 205H249.96L249.97 212H248.74ZM256.761 209.36C256.761 209.447 256.754 209.57 256.741 209.73H252.551C252.624 210.123 252.814 210.437 253.121 210.67C253.434 210.897 253.821 211.01 254.281 211.01C254.868 211.01 255.351 210.817 255.731 210.43L256.401 211.2C256.161 211.487 255.858 211.703 255.491 211.85C255.124 211.997 254.711 212.07 254.251 212.07C253.664 212.07 253.148 211.953 252.701 211.72C252.254 211.487 251.908 211.163 251.661 210.75C251.421 210.33 251.301 209.857 251.301 209.33C251.301 208.81 251.418 208.343 251.651 207.93C251.891 207.51 252.221 207.183 252.641 206.95C253.061 206.717 253.534 206.6 254.061 206.6C254.581 206.6 255.044 206.717 255.451 206.95C255.864 207.177 256.184 207.5 256.411 207.92C256.644 208.333 256.761 208.813 256.761 209.36ZM254.061 207.6C253.661 207.6 253.321 207.72 253.041 207.96C252.768 208.193 252.601 208.507 252.541 208.9H255.571C255.518 208.513 255.354 208.2 255.081 207.96C254.808 207.72 254.468 207.6 254.061 207.6ZM263.192 204.58V212H261.992V211.31C261.785 211.563 261.528 211.753 261.222 211.88C260.922 212.007 260.588 212.07 260.222 212.07C259.708 212.07 259.245 211.957 258.832 211.73C258.425 211.503 258.105 211.183 257.872 210.77C257.638 210.35 257.522 209.87 257.522 209.33C257.522 208.79 257.638 208.313 257.872 207.9C258.105 207.487 258.425 207.167 258.832 206.94C259.245 206.713 259.708 206.6 260.222 206.6C260.575 206.6 260.898 206.66 261.192 206.78C261.485 206.9 261.735 207.08 261.942 207.32V204.58H263.192ZM260.372 211C260.672 211 260.942 210.933 261.182 210.8C261.422 210.66 261.612 210.463 261.752 210.21C261.892 209.957 261.962 209.663 261.962 209.33C261.962 208.997 261.892 208.703 261.752 208.45C261.612 208.197 261.422 208.003 261.182 207.87C260.942 207.73 260.672 207.66 260.372 207.66C260.072 207.66 259.802 207.73 259.562 207.87C259.322 208.003 259.132 208.197 258.992 208.45C258.852 208.703 258.782 208.997 258.782 209.33C258.782 209.663 258.852 209.957 258.992 210.21C259.132 210.463 259.322 210.66 259.562 210.8C259.802 210.933 260.072 211 260.372 211ZM264.557 208.7H267.307V209.74H264.557V208.7ZM275.014 205V212H273.714V209H270.094V212H268.794V205H270.094V207.89H273.714V205H275.014ZM276.77 206.66H278.02V212H276.77V206.66ZM277.4 205.78C277.174 205.78 276.984 205.71 276.83 205.57C276.677 205.423 276.6 205.243 276.6 205.03C276.6 204.817 276.677 204.64 276.83 204.5C276.984 204.353 277.174 204.28 277.4 204.28C277.627 204.28 277.817 204.35 277.97 204.49C278.124 204.623 278.2 204.793 278.2 205C278.2 205.22 278.124 205.407 277.97 205.56C277.824 205.707 277.634 205.78 277.4 205.78ZM284.961 206.66V211.19C284.961 213.07 284.001 214.01 282.081 214.01C281.567 214.01 281.081 213.943 280.621 213.81C280.161 213.683 279.781 213.497 279.481 213.25L280.041 212.31C280.274 212.503 280.567 212.657 280.921 212.77C281.281 212.89 281.644 212.95 282.011 212.95C282.597 212.95 283.027 212.817 283.301 212.55C283.574 212.283 283.711 211.877 283.711 211.33V211.05C283.497 211.283 283.237 211.46 282.931 211.58C282.624 211.7 282.287 211.76 281.921 211.76C281.414 211.76 280.954 211.653 280.541 211.44C280.134 211.22 279.811 210.913 279.571 210.52C279.337 210.127 279.221 209.677 279.221 209.17C279.221 208.663 279.337 208.217 279.571 207.83C279.811 207.437 280.134 207.133 280.541 206.92C280.954 206.707 281.414 206.6 281.921 206.6C282.307 206.6 282.657 206.663 282.971 206.79C283.291 206.917 283.557 207.11 283.771 207.37V206.66H284.961ZM282.111 210.7C282.584 210.7 282.971 210.56 283.271 210.28C283.577 209.993 283.731 209.623 283.731 209.17C283.731 208.723 283.577 208.36 283.271 208.08C282.971 207.8 282.584 207.66 282.111 207.66C281.631 207.66 281.237 207.8 280.931 208.08C280.631 208.36 280.481 208.723 280.481 209.17C280.481 209.623 280.631 209.993 280.931 210.28C281.237 210.56 281.631 210.7 282.111 210.7ZM289.634 206.6C290.308 206.6 290.848 206.797 291.254 207.19C291.661 207.583 291.864 208.167 291.864 208.94V212H290.614V209.1C290.614 208.633 290.504 208.283 290.284 208.05C290.064 207.81 289.751 207.69 289.344 207.69C288.884 207.69 288.521 207.83 288.254 208.11C287.988 208.383 287.854 208.78 287.854 209.3V212H286.604V204.58H287.854V207.28C288.061 207.06 288.314 206.893 288.614 206.78C288.921 206.66 289.261 206.6 289.634 206.6Z" fill="#51646D"/>
<path d="M317.272 205V212H315.972V209H312.352V212H311.052V205H312.352V207.89H315.972V205H317.272ZM319.028 206.66H320.278V212H319.028V206.66ZM319.658 205.78C319.431 205.78 319.241 205.71 319.088 205.57C318.935 205.423 318.858 205.243 318.858 205.03C318.858 204.817 318.935 204.64 319.088 204.5C319.241 204.353 319.431 204.28 319.658 204.28C319.885 204.28 320.075 204.35 320.228 204.49C320.381 204.623 320.458 204.793 320.458 205C320.458 205.22 320.381 205.407 320.228 205.56C320.081 205.707 319.891 205.78 319.658 205.78ZM327.219 206.66V211.19C327.219 213.07 326.259 214.01 324.339 214.01C323.825 214.01 323.339 213.943 322.879 213.81C322.419 213.683 322.039 213.497 321.739 213.25L322.299 212.31C322.532 212.503 322.825 212.657 323.179 212.77C323.539 212.89 323.902 212.95 324.269 212.95C324.855 212.95 325.285 212.817 325.559 212.55C325.832 212.283 325.969 211.877 325.969 211.33V211.05C325.755 211.283 325.495 211.46 325.189 211.58C324.882 211.7 324.545 211.76 324.179 211.76C323.672 211.76 323.212 211.653 322.799 211.44C322.392 211.22 322.069 210.913 321.829 210.52C321.595 210.127 321.479 209.677 321.479 209.17C321.479 208.663 321.595 208.217 321.829 207.83C322.069 207.437 322.392 207.133 322.799 206.92C323.212 206.707 323.672 206.6 324.179 206.6C324.565 206.6 324.915 206.663 325.229 206.79C325.549 206.917 325.815 207.11 326.029 207.37V206.66H327.219ZM324.369 210.7C324.842 210.7 325.229 210.56 325.529 210.28C325.835 209.993 325.989 209.623 325.989 209.17C325.989 208.723 325.835 208.36 325.529 208.08C325.229 207.8 324.842 207.66 324.369 207.66C323.889 207.66 323.495 207.8 323.189 208.08C322.889 208.36 322.739 208.723 322.739 209.17C322.739 209.623 322.889 209.993 323.189 210.28C323.495 210.56 323.889 210.7 324.369 210.7ZM331.892 206.6C332.565 206.6 333.105 206.797 333.512 207.19C333.919 207.583 334.122 208.167 334.122 208.94V212H332.872V209.1C332.872 208.633 332.762 208.283 332.542 208.05C332.322 207.81 332.009 207.69 331.602 207.69C331.142 207.69 330.779 207.83 330.512 208.11C330.245 208.383 330.112 208.78 330.112 209.3V212H328.862V204.58H330.112V207.28C330.319 207.06 330.572 206.893 330.872 206.78C331.179 206.66 331.519 206.6 331.892 206.6Z" fill="#51646D"/>
<path d="M367.538 205V212H366.238V209H362.618V212H361.318V205H362.618V207.89H366.238V205H367.538ZM369.294 206.66H370.544V212H369.294V206.66ZM369.924 205.78C369.697 205.78 369.507 205.71 369.354 205.57C369.2 205.423 369.124 205.243 369.124 205.03C369.124 204.817 369.2 204.64 369.354 204.5C369.507 204.353 369.697 204.28 369.924 204.28C370.15 204.28 370.34 204.35 370.494 204.49C370.647 204.623 370.724 204.793 370.724 205C370.724 205.22 370.647 205.407 370.494 205.56C370.347 205.707 370.157 205.78 369.924 205.78ZM377.484 206.66V211.19C377.484 213.07 376.524 214.01 374.604 214.01C374.091 214.01 373.604 213.943 373.144 213.81C372.684 213.683 372.304 213.497 372.004 213.25L372.564 212.31C372.798 212.503 373.091 212.657 373.444 212.77C373.804 212.89 374.168 212.95 374.534 212.95C375.121 212.95 375.551 212.817 375.824 212.55C376.098 212.283 376.234 211.877 376.234 211.33V211.05C376.021 211.283 375.761 211.46 375.454 211.58C375.148 211.7 374.811 211.76 374.444 211.76C373.938 211.76 373.478 211.653 373.064 211.44C372.658 211.22 372.334 210.913 372.094 210.52C371.861 210.127 371.744 209.677 371.744 209.17C371.744 208.663 371.861 208.217 372.094 207.83C372.334 207.437 372.658 207.133 373.064 206.92C373.478 206.707 373.938 206.6 374.444 206.6C374.831 206.6 375.181 206.663 375.494 206.79C375.814 206.917 376.081 207.11 376.294 207.37V206.66H377.484ZM374.634 210.7C375.108 210.7 375.494 210.56 375.794 210.28C376.101 209.993 376.254 209.623 376.254 209.17C376.254 208.723 376.101 208.36 375.794 208.08C375.494 207.8 375.108 207.66 374.634 207.66C374.154 207.66 373.761 207.8 373.454 208.08C373.154 208.36 373.004 208.723 373.004 209.17C373.004 209.623 373.154 209.993 373.454 210.28C373.761 210.56 374.154 210.7 374.634 210.7ZM382.158 206.6C382.831 206.6 383.371 206.797 383.778 207.19C384.184 207.583 384.388 208.167 384.388 208.94V212H383.138V209.1C383.138 208.633 383.028 208.283 382.808 208.05C382.588 207.81 382.274 207.69 381.868 207.69C381.408 207.69 381.044 207.83 380.778 208.11C380.511 208.383 380.378 208.78 380.378 209.3V212H379.128V204.58H380.378V207.28C380.584 207.06 380.838 206.893 381.138 206.78C381.444 206.66 381.784 206.6 382.158 206.6ZM391.042 209.36C391.042 209.447 391.035 209.57 391.022 209.73H386.832C386.905 210.123 387.095 210.437 387.402 210.67C387.715 210.897 388.102 211.01 388.562 211.01C389.149 211.01 389.632 210.817 390.012 210.43L390.682 211.2C390.442 211.487 390.139 211.703 389.772 211.85C389.405 211.997 388.992 212.07 388.532 212.07C387.945 212.07 387.429 211.953 386.982 211.72C386.535 211.487 386.189 211.163 385.942 210.75C385.702 210.33 385.582 209.857 385.582 209.33C385.582 208.81 385.699 208.343 385.932 207.93C386.172 207.51 386.502 207.183 386.922 206.95C387.342 206.717 387.815 206.6 388.342 206.6C388.862 206.6 389.325 206.717 389.732 206.95C390.145 207.177 390.465 207.5 390.692 207.92C390.925 208.333 391.042 208.813 391.042 209.36ZM388.342 207.6C387.942 207.6 387.602 207.72 387.322 207.96C387.049 208.193 386.882 208.507 386.822 208.9H389.852C389.799 208.513 389.635 208.2 389.362 207.96C389.089 207.72 388.749 207.6 388.342 207.6ZM393.433 207.44C393.793 206.88 394.426 206.6 395.333 206.6V207.79C395.226 207.77 395.13 207.76 395.043 207.76C394.556 207.76 394.176 207.903 393.903 208.19C393.63 208.47 393.493 208.877 393.493 209.41V212H392.243V206.66H393.433V207.44Z" fill="#51646D"/>
<path d="M422.445 205V212H421.145V209H417.525V212H416.225V205H417.525V207.89H421.145V205H422.445ZM424.201 206.66H425.451V212H424.201V206.66ZM424.831 205.78C424.604 205.78 424.414 205.71 424.261 205.57C424.108 205.423 424.031 205.243 424.031 205.03C424.031 204.817 424.108 204.64 424.261 204.5C424.414 204.353 424.604 204.28 424.831 204.28C425.058 204.28 425.248 204.35 425.401 204.49C425.554 204.623 425.631 204.793 425.631 205C425.631 205.22 425.554 205.407 425.401 205.56C425.254 205.707 425.064 205.78 424.831 205.78ZM432.391 206.66V211.19C432.391 213.07 431.431 214.01 429.511 214.01C428.998 214.01 428.511 213.943 428.051 213.81C427.591 213.683 427.211 213.497 426.911 213.25L427.471 212.31C427.705 212.503 427.998 212.657 428.351 212.77C428.711 212.89 429.075 212.95 429.441 212.95C430.028 212.95 430.458 212.817 430.731 212.55C431.005 212.283 431.141 211.877 431.141 211.33V211.05C430.928 211.283 430.668 211.46 430.361 211.58C430.055 211.7 429.718 211.76 429.351 211.76C428.845 211.76 428.385 211.653 427.971 211.44C427.565 211.22 427.241 210.913 427.001 210.52C426.768 210.127 426.651 209.677 426.651 209.17C426.651 208.663 426.768 208.217 427.001 207.83C427.241 207.437 427.565 207.133 427.971 206.92C428.385 206.707 428.845 206.6 429.351 206.6C429.738 206.6 430.088 206.663 430.401 206.79C430.721 206.917 430.988 207.11 431.201 207.37V206.66H432.391ZM429.541 210.7C430.015 210.7 430.401 210.56 430.701 210.28C431.008 209.993 431.161 209.623 431.161 209.17C431.161 208.723 431.008 208.36 430.701 208.08C430.401 207.8 430.015 207.66 429.541 207.66C429.061 207.66 428.668 207.8 428.361 208.08C428.061 208.36 427.911 208.723 427.911 209.17C427.911 209.623 428.061 209.993 428.361 210.28C428.668 210.56 429.061 210.7 429.541 210.7ZM437.065 206.6C437.738 206.6 438.278 206.797 438.685 207.19C439.092 207.583 439.295 208.167 439.295 208.94V212H438.045V209.1C438.045 208.633 437.935 208.283 437.715 208.05C437.495 207.81 437.182 207.69 436.775 207.69C436.315 207.69 435.952 207.83 435.685 208.11C435.418 208.383 435.285 208.78 435.285 209.3V212H434.035V204.58H435.285V207.28C435.492 207.06 435.745 206.893 436.045 206.78C436.352 206.66 436.692 206.6 437.065 206.6ZM445.949 209.36C445.949 209.447 445.943 209.57 445.929 209.73H441.739C441.813 210.123 442.003 210.437 442.309 210.67C442.623 210.897 443.009 211.01 443.469 211.01C444.056 211.01 444.539 210.817 444.919 210.43L445.589 211.2C445.349 211.487 445.046 211.703 444.679 211.85C444.313 211.997 443.899 212.07 443.439 212.07C442.853 212.07 442.336 211.953 441.889 211.72C441.443 211.487 441.096 211.163 440.849 210.75C440.609 210.33 440.489 209.857 440.489 209.33C440.489 208.81 440.606 208.343 440.839 207.93C441.079 207.51 441.409 207.183 441.829 206.95C442.249 206.717 442.723 206.6 443.249 206.6C443.769 206.6 444.233 206.717 444.639 206.95C445.053 207.177 445.373 207.5 445.599 207.92C445.833 208.333 445.949 208.813 445.949 209.36ZM443.249 207.6C442.849 207.6 442.509 207.72 442.229 207.96C441.956 208.193 441.789 208.507 441.729 208.9H444.759C444.706 208.513 444.543 208.2 444.269 207.96C443.996 207.72 443.656 207.6 443.249 207.6ZM448.8 212.07C448.367 212.07 447.943 212.013 447.53 211.9C447.117 211.787 446.787 211.643 446.54 211.47L447.02 210.52C447.26 210.68 447.547 210.81 447.88 210.91C448.22 211.003 448.553 211.05 448.88 211.05C449.627 211.05 450 210.853 450 210.46C450 210.273 449.903 210.143 449.71 210.07C449.523 209.997 449.22 209.927 448.8 209.86C448.36 209.793 448 209.717 447.72 209.63C447.447 209.543 447.207 209.393 447 209.18C446.8 208.96 446.7 208.657 446.7 208.27C446.7 207.763 446.91 207.36 447.33 207.06C447.757 206.753 448.33 206.6 449.05 206.6C449.417 206.6 449.783 206.643 450.15 206.73C450.517 206.81 450.817 206.92 451.05 207.06L450.57 208.01C450.117 207.743 449.607 207.61 449.04 207.61C448.673 207.61 448.393 207.667 448.2 207.78C448.013 207.887 447.92 208.03 447.92 208.21C447.92 208.41 448.02 208.553 448.22 208.64C448.427 208.72 448.743 208.797 449.17 208.87C449.597 208.937 449.947 209.013 450.22 209.1C450.493 209.187 450.727 209.333 450.92 209.54C451.12 209.747 451.22 210.04 451.22 210.42C451.22 210.92 451.003 211.32 450.57 211.62C450.137 211.92 449.547 212.07 448.8 212.07ZM455.507 211.71C455.36 211.83 455.18 211.92 454.967 211.98C454.76 212.04 454.54 212.07 454.307 212.07C453.72 212.07 453.267 211.917 452.947 211.61C452.627 211.303 452.467 210.857 452.467 210.27V207.7H451.587V206.7H452.467V205.48H453.717V206.7H455.147V207.7H453.717V210.24C453.717 210.5 453.78 210.7 453.907 210.84C454.033 210.973 454.217 211.04 454.457 211.04C454.737 211.04 454.97 210.967 455.157 210.82L455.507 211.71Z" fill="#51646D"/>
<path d="M415.5 183H468L460.5 198H408L415.5 183Z" fill="#501700"/>
<path d="M359.5 183H412L404.5 198H352L359.5 183Z" fill="#8C2F08"/>
<path d="M303.5 183H356L348.5 198H296L303.5 183Z" fill="#CC4C01"/>
<path d="M247.5 183H300L292.5 198H240L247.5 183Z" fill="#EE8029"/>
<path d="M191.5 183H244L236.5 198H184L191.5 183Z" fill="#FEC44F"/>
<path d="M135.5 183H188L180.5 198H128L135.5 183Z" fill="#FFE5B8"/>
</svg>
