<svg width="235" height="280" viewBox="0 0 235 280" fill="none" xmlns="http://www.w3.org/2000/svg">
<rect width="235" height="140" fill="url(#paint0_linear_62_67)"/>
<rect width="9" height="140" fill="url(#paint1_linear_62_67)"/>
<rect y="140" width="235" height="140" fill="#000355"/>
<rect y="141.937" width="9.07725" height="137.036" fill="#000355"/>
<rect x="6" y="140" width="1" height="139" fill="url(#paint2_linear_62_67)"/>
<rect x="6" width="1" height="140" fill="url(#paint3_linear_62_67)"/>
<path d="M40.878 64.972C40.878 64.916 40.8687 64.8227 40.85 64.692C40.738 63.9453 40.6633 63.432 40.626 63.152C40.5513 62.7973 40.402 62.396 40.178 61.948C39.9727 61.4813 39.6927 61.0987 39.338 60.8C38.9087 60.408 38.3767 60.2027 37.742 60.184C37.1073 60.1467 36.4913 60.2773 35.894 60.576C35.278 60.856 34.7647 61.248 34.354 61.752C33.9433 62.2373 33.7193 62.7507 33.682 63.292C33.6073 64.244 33.9993 65.28 34.858 66.4C35.362 67.0533 36.3887 68.108 37.938 69.564C39.45 70.9827 40.4953 72.1027 41.074 72.924C42.0447 74.2867 42.4553 75.612 42.306 76.9C42.138 78.244 41.5313 79.112 40.486 79.504C39.59 79.8213 38.526 79.756 37.294 79.308C36.174 78.8787 35.138 78.2067 34.186 77.292C33.2527 76.3587 32.6647 75.36 32.422 74.296C32.4033 74.1653 32.4313 74.044 32.506 73.932C32.5807 73.8013 32.6833 73.7267 32.814 73.708C32.9447 73.6707 33.066 73.6893 33.178 73.764C33.3087 73.8387 33.3927 73.9413 33.43 74.072C33.6167 74.9493 34.1113 75.7893 34.914 76.592C35.7353 77.3947 36.65 77.9827 37.658 78.356C38.6473 78.7293 39.4687 78.7947 40.122 78.552C40.794 78.3093 41.186 77.7213 41.298 76.788C41.4287 75.7613 41.0833 74.6693 40.262 73.512C39.702 72.7467 38.694 71.6733 37.238 70.292C35.6513 68.8173 34.5873 67.7253 34.046 67.016C33.038 65.6907 32.5807 64.4307 32.674 63.236C32.73 62.4707 33.0193 61.7707 33.542 61.136C34.0833 60.5013 34.7273 60.0067 35.474 59.652C36.1647 59.2973 36.9393 59.1387 37.798 59.176C38.6567 59.2133 39.394 59.4933 40.01 60.016C40.1593 60.1467 40.2993 60.296 40.43 60.464C40.5607 60.6133 40.6727 60.7533 40.766 60.884C40.8593 61.0147 40.9527 61.1733 41.046 61.36L41.27 61.836C41.326 61.948 41.382 62.116 41.438 62.34C41.494 62.564 41.5313 62.732 41.55 62.844C41.5873 62.9373 41.6247 63.1147 41.662 63.376C41.718 63.6187 41.746 63.7773 41.746 63.852C41.7647 63.9267 41.7833 64.104 41.802 64.384C41.8393 64.6453 41.8673 64.804 41.886 64.86C41.9047 64.9907 41.8673 65.112 41.774 65.224C41.6993 65.336 41.5873 65.4013 41.438 65.42C41.3073 65.4387 41.186 65.4107 41.074 65.336C40.962 65.2427 40.8967 65.1213 40.878 64.972ZM44.1929 71.216C45.0889 71.5333 45.9289 71.5053 46.7129 71.132C47.5343 70.7213 48.1596 70.04 48.5889 69.088C48.9996 68.192 49.1023 67.4173 48.8969 66.764C48.7103 66.1853 48.2623 65.9427 47.5529 66.036C46.6196 66.148 45.8076 66.876 45.1169 68.22C44.6876 69.0973 44.3796 70.096 44.1929 71.216ZM43.2129 70.992C43.4183 69.7787 43.7543 68.7053 44.2209 67.772C45.0609 66.1107 46.1343 65.196 47.4409 65.028C48.0569 64.9533 48.5703 65.0467 48.9809 65.308C49.4103 65.5693 49.7089 65.952 49.8769 66.456C50.1569 67.352 50.0356 68.3693 49.5129 69.508C48.9716 70.684 48.1876 71.524 47.1609 72.028C46.1903 72.4947 45.1636 72.5693 44.0809 72.252C44.0623 72.42 44.0529 72.5973 44.0529 72.784C43.9969 74.5387 44.2863 75.9387 44.9209 76.984C45.5929 78.0667 46.5636 78.5053 47.8329 78.3C48.5609 78.188 49.2423 77.852 49.8769 77.292C50.5116 76.732 51.0529 76.0507 51.5009 75.248C51.5756 75.136 51.6783 75.0613 51.8089 75.024C51.9396 74.9867 52.0609 75.0053 52.1729 75.08C52.3036 75.136 52.3876 75.2293 52.4249 75.36C52.4623 75.4907 52.4529 75.6213 52.3969 75.752C51.8743 76.6293 51.2396 77.404 50.4929 78.076C49.7463 78.748 48.9156 79.1587 48.0009 79.308C46.2649 79.5693 44.9489 78.972 44.0529 77.516C43.3063 76.3027 42.9703 74.716 43.0449 72.756C43.0449 72.4387 43.0636 72.1213 43.1009 71.804C42.9143 71.636 42.8769 71.44 42.9889 71.216C43.0449 71.104 43.1196 71.0293 43.2129 70.992ZM54.1668 71.216C55.0628 71.5333 55.9028 71.5053 56.6868 71.132C57.5082 70.7213 58.1335 70.04 58.5628 69.088C58.9735 68.192 59.0762 67.4173 58.8708 66.764C58.6842 66.1853 58.2362 65.9427 57.5268 66.036C56.5935 66.148 55.7815 66.876 55.0908 68.22C54.6615 69.0973 54.3535 70.096 54.1668 71.216ZM53.1868 70.992C53.3922 69.7787 53.7282 68.7053 54.1948 67.772C55.0348 66.1107 56.1082 65.196 57.4148 65.028C58.0308 64.9533 58.5442 65.0467 58.9548 65.308C59.3842 65.5693 59.6828 65.952 59.8508 66.456C60.1308 67.352 60.0095 68.3693 59.4868 69.508C58.9455 70.684 58.1615 71.524 57.1348 72.028C56.1642 72.4947 55.1375 72.5693 54.0548 72.252C54.0362 72.42 54.0268 72.5973 54.0268 72.784C53.9708 74.5387 54.2602 75.9387 54.8948 76.984C55.5668 78.0667 56.5375 78.5053 57.8068 78.3C58.5348 78.188 59.2162 77.852 59.8508 77.292C60.4855 76.732 61.0268 76.0507 61.4748 75.248C61.5495 75.136 61.6522 75.0613 61.7828 75.024C61.9135 74.9867 62.0348 75.0053 62.1468 75.08C62.2775 75.136 62.3615 75.2293 62.3988 75.36C62.4362 75.4907 62.4268 75.6213 62.3708 75.752C61.8482 76.6293 61.2135 77.404 60.4668 78.076C59.7202 78.748 58.8895 79.1587 57.9748 79.308C56.2388 79.5693 54.9228 78.972 54.0268 77.516C53.2802 76.3027 52.9442 74.716 53.0188 72.756C53.0188 72.4387 53.0375 72.1213 53.0748 71.804C52.8882 71.636 52.8508 71.44 52.9628 71.216C53.0188 71.104 53.0935 71.0293 53.1868 70.992ZM64.4487 65.84C64.2994 71.3653 64.4394 75.7427 64.8688 78.972C64.8874 79.1027 64.8501 79.224 64.7567 79.336C64.6821 79.448 64.5701 79.5133 64.4207 79.532C64.2901 79.5507 64.1687 79.5133 64.0567 79.42C63.9447 79.3453 63.8794 79.2333 63.8607 79.084C63.4314 75.7427 63.2914 71.328 63.4407 65.84C63.4407 65.6907 63.4874 65.5693 63.5807 65.476C63.6927 65.3827 63.8141 65.336 63.9447 65.336C64.0941 65.336 64.2154 65.392 64.3087 65.504C64.4021 65.5973 64.4487 65.7093 64.4487 65.84ZM63.9447 61.752C64.0567 61.8453 64.1127 61.9573 64.1127 62.088C64.1127 62.2187 64.0567 62.34 63.9447 62.452C63.8514 62.5453 63.7394 62.592 63.6087 62.592C63.4781 62.592 63.3567 62.5453 63.2447 62.452C63.1514 62.34 63.1047 62.2187 63.1047 62.088C63.1047 61.9573 63.1514 61.8453 63.2447 61.752C63.3567 61.64 63.4781 61.584 63.6087 61.584C63.7394 61.584 63.8514 61.64 63.9447 61.752ZM66.7318 71.44C67.2358 69.9467 67.8332 68.6493 68.5238 67.548C69.1585 66.54 69.8118 65.8493 70.4838 65.476C71.3798 64.972 72.2385 65.056 73.0598 65.728C73.6572 66.1947 74.1145 67.0533 74.4318 68.304C74.6745 69.256 74.8425 70.4787 74.9358 71.972C74.9732 72.7187 74.9918 73.5213 74.9918 74.38C75.0105 75.2387 75.0105 76.1253 74.9918 77.04C74.9732 77.936 74.9638 78.4867 74.9638 78.692C74.9638 78.8227 74.9078 78.9347 74.7958 79.028C74.7025 79.14 74.5905 79.196 74.4598 79.196C74.3292 79.196 74.2078 79.14 74.0958 79.028C74.0025 78.9347 73.9558 78.8227 73.9558 78.692C73.9558 78.4867 73.9652 77.936 73.9838 77.04C74.0025 76.144 74.0025 75.276 73.9838 74.436C73.9838 73.596 73.9652 72.7933 73.9278 72.028C73.8345 70.6093 73.6758 69.452 73.4518 68.556C73.1905 67.5293 72.8545 66.848 72.4438 66.512C71.9585 66.1387 71.4638 66.092 70.9598 66.372C70.4558 66.652 69.9332 67.2307 69.3918 68.108C68.9438 68.8173 68.5425 69.6107 68.1878 70.488C67.8332 71.3467 67.5812 72.0467 67.4318 72.588C67.3385 72.9613 67.2545 73.344 67.1798 73.736C67.1052 74.128 67.0492 74.5667 67.0118 75.052C66.9745 75.5187 66.9372 75.892 66.8998 76.172C66.8812 76.452 66.8532 76.9 66.8158 77.516C66.7972 78.1133 66.7785 78.5147 66.7598 78.72C66.7598 78.7947 66.7505 78.8507 66.7318 78.888V78.944C66.7132 78.9813 66.7038 79.0187 66.7038 79.056C66.6105 79.224 66.4798 79.3173 66.3118 79.336C66.0692 79.3547 65.9012 79.2613 65.8078 79.056L65.7518 78.944C65.7518 78.9253 65.7425 78.8973 65.7238 78.86V78.524V77.208V74.744C65.7238 70.7307 65.6678 68.0147 65.5558 66.596C65.5372 66.4653 65.5745 66.3533 65.6678 66.26C65.7612 66.148 65.8732 66.0827 66.0038 66.064C66.1532 66.0453 66.2745 66.0827 66.3678 66.176C66.4798 66.2693 66.5452 66.3907 66.5638 66.54C66.6758 67.8653 66.7318 69.4987 66.7318 71.44ZM83.7865 67.24C83.2078 66.6613 82.4518 66.6333 81.5185 67.156C80.5851 67.6973 79.6518 68.6493 78.7185 70.012C77.8038 71.3747 77.1971 72.6907 76.8985 73.96C76.5998 75.2853 76.7025 76.2187 77.2065 76.76C77.4865 77.0587 77.8691 77.1053 78.3545 76.9C78.8585 76.6947 79.4371 76.2373 80.0905 75.528C80.6505 74.968 81.1731 74.324 81.6585 73.596C82.1625 72.8867 82.5078 72.3267 82.6945 71.916C83.0305 71.2067 83.2918 70.432 83.4785 69.592C83.5531 69.2373 83.6185 69.004 83.6745 68.892C83.7491 68.724 83.8611 68.6027 84.0105 68.528C84.1785 68.4533 84.3558 68.4533 84.5425 68.528C84.6358 68.5653 84.7198 68.6307 84.7945 68.724C84.8131 68.7427 84.8318 68.7707 84.8505 68.808C84.8691 68.8453 84.8785 68.8827 84.8785 68.92C84.8971 68.9573 84.9158 69.0227 84.9345 69.116C84.9531 69.2467 84.9905 69.4333 85.0465 69.676C85.1025 70.068 85.1865 70.6093 85.2985 71.3C85.4851 72.6067 85.5971 73.4373 85.6345 73.792C85.9145 76.4053 85.9051 78.3933 85.6065 79.756C85.3265 80.932 84.8225 81.9307 84.0945 82.752C83.3665 83.5733 82.5825 84.1333 81.7425 84.432C80.9211 84.7307 80.1278 84.824 79.3625 84.712C78.7651 84.6373 78.2611 84.4227 77.8505 84.068C77.4398 83.7133 77.2065 83.2467 77.1505 82.668C77.0945 82.2387 77.1505 81.9867 77.3185 81.912C77.5051 81.8373 77.7851 82.052 78.1585 82.556C78.2145 83.2093 78.6625 83.6013 79.5025 83.732C80.0998 83.8253 80.7345 83.7413 81.4065 83.48C82.0785 83.2373 82.7225 82.7707 83.3385 82.08C83.9545 81.3893 84.3745 80.54 84.5985 79.532C84.8971 78.2627 84.9065 76.3867 84.6265 73.904C84.5891 73.568 84.4771 72.7467 84.2905 71.44L84.2065 70.824C84.0385 71.3093 83.8331 71.8227 83.5905 72.364C83.3851 72.812 83.0211 73.4187 82.4985 74.184C81.9758 74.9307 81.4158 75.612 80.8185 76.228C80.0718 77.0307 79.3811 77.5627 78.7465 77.824C77.8318 78.216 77.0758 78.0853 76.4785 77.432C75.7318 76.6293 75.5451 75.3973 75.9185 73.736C76.2545 72.3173 76.9078 70.8893 77.8785 69.452C78.8865 67.9587 79.9411 66.904 81.0425 66.288C82.4051 65.504 83.5625 65.5787 84.5145 66.512C84.6078 66.624 84.6545 66.7453 84.6545 66.876C84.6545 67.0067 84.5985 67.128 84.4865 67.24C84.3931 67.3333 84.2811 67.38 84.1505 67.38C84.0198 67.38 83.8985 67.3333 83.7865 67.24Z" fill="white"/>
<path d="M122.598 23.3605C122.349 29.4618 122.378 34.6025 122.686 38.7825C122.686 38.8852 122.649 38.9732 122.576 39.0465C122.517 39.1345 122.429 39.1785 122.312 39.1785C122.209 39.1932 122.114 39.1638 122.026 39.0905C121.953 39.0318 121.909 38.9438 121.894 38.8265C121.586 34.6318 121.557 29.4618 121.806 23.3165C121.806 23.2138 121.843 23.1258 121.916 23.0525C122.004 22.9792 122.099 22.9425 122.202 22.9425C122.319 22.9425 122.415 22.9865 122.488 23.0745C122.561 23.1478 122.598 23.2432 122.598 23.3605Z" fill="#FF5C00"/>
<path d="M140.839 26.4589C137.523 31.5917 134.937 36.0342 133.082 39.7863C133.029 39.8747 132.953 39.9325 132.852 39.9596C132.756 40.0065 132.657 40.0011 132.555 39.9434C132.458 39.9055 132.39 39.8333 132.351 39.7269C132.317 39.6402 132.323 39.5428 132.37 39.4345C134.232 35.6698 136.833 31.202 140.172 26.0313C140.224 25.9428 140.301 25.8851 140.402 25.858C140.516 25.8381 140.617 25.8535 140.707 25.904C140.809 25.9617 140.869 26.0465 140.888 26.1584C140.915 26.2577 140.899 26.3578 140.839 26.4589Z" fill="#FF5C00"/>
<path d="M154.373 34.5492C149.835 38.6431 146.183 42.2599 143.416 45.3995C143.343 45.4714 143.254 45.5073 143.149 45.5073C143.044 45.5278 142.95 45.497 142.866 45.4149C142.782 45.3534 142.735 45.2661 142.724 45.1533C142.714 45.0609 142.745 44.9686 142.819 44.8763C145.596 41.7263 149.269 38.089 153.839 33.9643C153.912 33.8925 154.001 33.8566 154.106 33.8566C154.221 33.8669 154.316 33.9079 154.389 33.9797C154.473 34.0618 154.509 34.1593 154.499 34.2721C154.499 34.3748 154.457 34.4671 154.373 34.5492Z" fill="#FF5C00"/>
<path d="M104.28 26.1087C107.163 31.4869 109.8 35.9006 112.191 39.3495C112.243 39.438 112.256 39.5318 112.229 39.6311C112.223 39.7357 112.169 39.8169 112.067 39.8747C111.985 39.9378 111.887 39.9595 111.773 39.9396C111.679 39.9252 111.596 39.871 111.524 39.7772C109.125 36.3155 106.473 31.8767 103.569 26.4605C103.517 26.3721 103.504 26.2783 103.53 26.179C103.57 26.0725 103.634 25.9941 103.723 25.9435C103.826 25.8858 103.931 25.8768 104.039 25.9165C104.141 25.9436 104.221 26.0077 104.28 26.1087Z" fill="#FF5C00"/>
<path d="M90.6467 34.0404C94.8283 38.4831 98.5226 42.0589 101.73 44.7676C101.803 44.8394 101.84 44.9266 101.84 45.0292C101.861 45.1318 101.829 45.2242 101.745 45.3063C101.682 45.3884 101.593 45.4345 101.478 45.4448C101.384 45.4551 101.289 45.4243 101.195 45.3524C97.9777 42.6334 94.2624 39.0372 90.0494 34.5637C89.976 34.4918 89.9393 34.4046 89.9393 34.302C89.9498 34.1891 89.9917 34.0968 90.0651 34.025C90.1489 33.9429 90.2485 33.907 90.3638 33.9172C90.4686 33.9172 90.5629 33.9583 90.6467 34.0404Z" fill="#FF5C00"/>
<path d="M121.902 116.43C122.152 110.328 122.122 105.188 121.814 101.008C121.814 100.905 121.851 100.817 121.924 100.744C121.983 100.656 122.071 100.612 122.188 100.612C122.291 100.597 122.386 100.626 122.474 100.7C122.548 100.758 122.592 100.846 122.606 100.964C122.914 105.158 122.944 110.328 122.694 116.474C122.694 116.576 122.658 116.664 122.584 116.738C122.496 116.811 122.401 116.848 122.298 116.848C122.181 116.848 122.086 116.804 122.012 116.716C121.939 116.642 121.902 116.547 121.902 116.43Z" fill="#FF5C00"/>
<path d="M103.661 113.331C106.978 108.198 109.563 103.756 111.419 100.004C111.471 99.9155 111.547 99.8577 111.648 99.8306C111.744 99.7837 111.843 99.7891 111.945 99.8468C112.042 99.8847 112.11 99.9569 112.15 100.063C112.184 100.15 112.177 100.247 112.13 100.356C110.268 104.12 107.667 108.588 104.328 113.759C104.276 113.847 104.2 113.905 104.099 113.932C103.985 113.952 103.883 113.937 103.794 113.886C103.692 113.828 103.631 113.744 103.612 113.632C103.585 113.533 103.602 113.432 103.661 113.331Z" fill="#FF5C00"/>
<path d="M90.127 105.241C94.665 101.147 98.3174 97.5304 101.084 94.3907C101.158 94.3189 101.247 94.283 101.351 94.283C101.456 94.2624 101.551 94.2932 101.634 94.3753C101.718 94.4369 101.765 94.5241 101.776 94.6369C101.786 94.7293 101.755 94.8216 101.682 94.914C98.9043 98.0639 95.2309 101.701 90.6615 105.826C90.5882 105.898 90.4991 105.934 90.3943 105.934C90.279 105.923 90.1847 105.882 90.1113 105.81C90.0275 105.728 89.9908 105.631 90.0013 105.518C90.0013 105.415 90.0432 105.323 90.127 105.241Z" fill="#FF5C00"/>
<path d="M140.22 113.681C137.338 108.303 134.701 103.89 132.309 100.441C132.257 100.352 132.244 100.258 132.271 100.159C132.277 100.054 132.332 99.9733 132.434 99.9155C132.516 99.8524 132.613 99.8307 132.727 99.8506C132.821 99.865 132.904 99.9192 132.976 100.013C135.375 103.475 138.027 107.914 140.932 113.33C140.984 113.418 140.997 113.512 140.97 113.611C140.931 113.718 140.866 113.796 140.777 113.847C140.675 113.904 140.569 113.913 140.461 113.874C140.36 113.847 140.279 113.783 140.22 113.681Z" fill="#FF5C00"/>
<path d="M153.854 105.75C149.672 101.307 145.978 97.7313 142.771 95.0226C142.697 94.9508 142.661 94.8636 142.661 94.761C142.64 94.6584 142.671 94.566 142.755 94.4839C142.818 94.4018 142.907 94.3557 143.022 94.3454C143.116 94.3352 143.211 94.3659 143.305 94.4378C146.523 97.1568 150.238 100.753 154.451 105.227C154.524 105.298 154.561 105.386 154.561 105.488C154.55 105.601 154.509 105.693 154.435 105.765C154.351 105.847 154.252 105.883 154.136 105.873C154.032 105.873 153.937 105.832 153.854 105.75Z" fill="#FF5C00"/>
<path d="M167.31 70.3693C166.769 73.0199 165.957 75.1666 164.874 76.8093C164.183 77.8546 163.343 78.5079 162.354 78.7693C161.197 79.0679 160.189 78.7133 159.33 77.7053C157.911 76.0253 157.277 73.4773 157.426 70.0613C157.482 68.6053 157.687 67.2053 158.042 65.8613C158.378 64.4799 158.807 63.3226 159.33 62.3893C160.058 61.1386 160.842 60.2146 161.682 59.6173C162.541 59.0199 163.399 58.8053 164.258 58.9733C165.098 59.1226 165.826 59.6266 166.442 60.4853C167.058 61.3439 167.525 62.4639 167.842 63.8453C167.879 64.0133 167.833 64.1626 167.702 64.2933C167.739 64.3306 167.767 64.3679 167.786 64.4053C167.823 64.4426 167.842 64.4799 167.842 64.5173L167.87 64.6573V64.7133C167.889 65.2733 167.954 66.0853 168.066 67.1493C168.178 68.2133 168.243 69.0066 168.262 69.5293C168.318 70.4439 168.411 71.7226 168.542 73.3653C168.598 74.0933 168.831 75.8199 169.242 78.5453C169.261 78.6946 169.223 78.8253 169.13 78.9373C169.055 79.0493 168.943 79.1146 168.794 79.1333C168.663 79.1519 168.542 79.1146 168.43 79.0213C168.318 78.9466 168.253 78.8439 168.234 78.7133C167.823 75.8386 167.59 74.0933 167.534 73.4773C167.441 72.2639 167.366 71.2279 167.31 70.3693ZM166.834 64.0693C166.554 62.8186 166.162 61.8479 165.658 61.1573C165.173 60.4666 164.641 60.0653 164.062 59.9533C163.502 59.8413 162.886 60.0186 162.214 60.4853C161.542 60.9519 160.879 61.7546 160.226 62.8933C159.722 63.7333 159.311 64.8066 158.994 66.1133C158.677 67.4013 158.49 68.7266 158.434 70.0893C158.303 73.2439 158.863 75.5586 160.114 77.0333C160.693 77.7239 161.355 77.9759 162.102 77.7893C162.849 77.5839 163.493 77.0706 164.034 76.2493C165.247 74.4199 166.087 71.9186 166.554 68.7453C166.647 68.1853 166.741 67.2613 166.834 65.9733C166.853 65.8239 166.862 65.5159 166.862 65.0493V64.6853V64.6293V64.5733C166.862 64.5359 166.871 64.5079 166.89 64.4893C166.909 64.4333 166.937 64.3773 166.974 64.3213C166.918 64.2466 166.871 64.1626 166.834 64.0693ZM177.824 66.9813C177.246 66.4026 176.49 66.3746 175.556 66.8973C174.623 67.4386 173.69 68.3906 172.756 69.7533C171.842 71.1159 171.235 72.4319 170.936 73.7013C170.638 75.0266 170.74 75.9599 171.244 76.5013C171.524 76.7999 171.907 76.8466 172.392 76.6413C172.896 76.4359 173.475 75.9786 174.128 75.2693C174.688 74.7093 175.211 74.0653 175.696 73.3373C176.2 72.6279 176.546 72.0679 176.732 71.6573C177.068 70.9479 177.33 70.1733 177.516 69.3333C177.591 68.9786 177.656 68.7453 177.712 68.6333C177.787 68.4653 177.899 68.3439 178.048 68.2693C178.216 68.1946 178.394 68.1946 178.58 68.2693C178.674 68.3066 178.758 68.3719 178.832 68.4653C178.851 68.4839 178.87 68.5119 178.888 68.5493C178.907 68.5866 178.916 68.6239 178.916 68.6613C178.935 68.6986 178.954 68.7639 178.972 68.8573C178.991 68.9879 179.028 69.1746 179.084 69.4173C179.14 69.8093 179.224 70.3506 179.336 71.0413C179.523 72.3479 179.635 73.1786 179.672 73.5333C179.952 76.1466 179.943 78.1346 179.644 79.4973C179.364 80.6733 178.86 81.6719 178.132 82.4933C177.404 83.3146 176.62 83.8746 175.78 84.1733C174.959 84.4719 174.166 84.5653 173.4 84.4533C172.803 84.3786 172.299 84.1639 171.888 83.8093C171.478 83.4546 171.244 82.9879 171.188 82.4093C171.132 81.9799 171.188 81.7279 171.356 81.6533C171.543 81.5786 171.823 81.7933 172.196 82.2973C172.252 82.9506 172.7 83.3426 173.54 83.4733C174.138 83.5666 174.772 83.4826 175.444 83.2213C176.116 82.9786 176.76 82.5119 177.376 81.8213C177.992 81.1306 178.412 80.2813 178.636 79.2733C178.935 78.0039 178.944 76.1279 178.664 73.6453C178.627 73.3093 178.515 72.4879 178.328 71.1813L178.244 70.5653C178.076 71.0506 177.871 71.5639 177.628 72.1053C177.423 72.5533 177.059 73.1599 176.536 73.9253C176.014 74.6719 175.454 75.3533 174.856 75.9693C174.11 76.7719 173.419 77.3039 172.784 77.5653C171.87 77.9573 171.114 77.8266 170.516 77.1733C169.77 76.3706 169.583 75.1386 169.956 73.4773C170.292 72.0586 170.946 70.6306 171.916 69.1933C172.924 67.6999 173.979 66.6453 175.08 66.0293C176.443 65.2453 177.6 65.3199 178.552 66.2533C178.646 66.3653 178.692 66.4866 178.692 66.6173C178.692 66.7479 178.636 66.8693 178.524 66.9813C178.431 67.0746 178.319 67.1213 178.188 67.1213C178.058 67.1213 177.936 67.0746 177.824 66.9813ZM187.874 66.2253C187.052 65.5719 186.128 65.6093 185.102 66.3373C184.094 67.0653 183.179 68.2599 182.358 69.9213C181.555 71.5639 181.098 73.1319 180.986 74.6253C180.874 76.1559 181.172 77.1733 181.882 77.6773C182.516 78.1439 183.142 78.1253 183.758 77.6213C184.374 77.1173 184.98 76.1933 185.578 74.8493C186.007 73.8786 186.464 72.6466 186.95 71.1533C187.454 69.5853 187.734 68.7546 187.79 68.6613V68.5773V68.4373V68.3253C187.808 68.1573 187.846 68.0173 187.902 67.9053C188.032 67.6626 188.247 67.5506 188.546 67.5693C188.714 67.5879 188.844 67.6813 188.938 67.8493C188.975 67.8866 188.994 67.9426 188.994 68.0173C189.012 68.0546 189.022 68.1199 189.022 68.2133C189.04 68.2879 189.05 68.4559 189.05 68.7173C189.068 69.4826 189.096 70.1826 189.134 70.8173C189.152 71.1719 189.171 71.6853 189.19 72.3573C189.227 73.1039 189.264 73.6733 189.302 74.0653C189.432 75.9693 189.61 77.4719 189.834 78.5733C189.852 78.7039 189.824 78.8253 189.75 78.9373C189.675 79.0493 189.563 79.1146 189.414 79.1333C189.283 79.1706 189.162 79.1519 189.05 79.0773C188.938 79.0026 188.863 78.8906 188.826 78.7413C188.62 77.6213 188.443 76.0813 188.294 74.1213L188.21 72.4133C188.172 71.6853 188.144 71.1719 188.126 70.8733V70.8173L187.93 71.4613C187.426 73.0106 186.95 74.2799 186.502 75.2693C185.83 76.7439 185.13 77.7799 184.402 78.3773C183.394 79.2359 182.348 79.2826 181.266 78.5173C180.276 77.7893 179.847 76.4733 179.978 74.5693C180.108 72.9266 180.603 71.2279 181.462 69.4733C182.358 67.6813 183.384 66.3653 184.542 65.5253C185.96 64.4986 187.276 64.4706 188.49 65.4413C188.602 65.5346 188.667 65.6466 188.686 65.7773C188.704 65.9079 188.667 66.0293 188.574 66.1413C188.48 66.2533 188.368 66.3186 188.238 66.3373C188.107 66.3559 187.986 66.3186 187.874 66.2253ZM191.82 65.5813C191.671 71.1066 191.811 75.4839 192.24 78.7133C192.259 78.8439 192.221 78.9653 192.128 79.0773C192.053 79.1893 191.941 79.2546 191.792 79.2733C191.661 79.2919 191.54 79.2546 191.428 79.1613C191.316 79.0866 191.251 78.9746 191.232 78.8253C190.803 75.4839 190.663 71.0693 190.812 65.5813C190.812 65.4319 190.859 65.3106 190.952 65.2173C191.064 65.1239 191.185 65.0773 191.316 65.0773C191.465 65.0773 191.587 65.1333 191.68 65.2453C191.773 65.3386 191.82 65.4506 191.82 65.5813ZM191.316 61.4933C191.428 61.5866 191.484 61.6986 191.484 61.8293C191.484 61.9599 191.428 62.0813 191.316 62.1933C191.223 62.2866 191.111 62.3333 190.98 62.3333C190.849 62.3333 190.728 62.2866 190.616 62.1933C190.523 62.0813 190.476 61.9599 190.476 61.8293C190.476 61.6986 190.523 61.5866 190.616 61.4933C190.728 61.3813 190.849 61.3253 190.98 61.3253C191.111 61.3253 191.223 61.3813 191.316 61.4933ZM194.103 71.1813C194.607 69.6879 195.204 68.3906 195.895 67.2893C196.53 66.2813 197.183 65.5906 197.855 65.2173C198.751 64.7133 199.61 64.7973 200.431 65.4693C201.028 65.9359 201.486 66.7946 201.803 68.0453C202.046 68.9973 202.214 70.2199 202.307 71.7133C202.344 72.4599 202.363 73.2626 202.363 74.1213C202.382 74.9799 202.382 75.8666 202.363 76.7813C202.344 77.6773 202.335 78.2279 202.335 78.4333C202.335 78.5639 202.279 78.6759 202.167 78.7693C202.074 78.8813 201.962 78.9373 201.831 78.9373C201.7 78.9373 201.579 78.8813 201.467 78.7693C201.374 78.6759 201.327 78.5639 201.327 78.4333C201.327 78.2279 201.336 77.6773 201.355 76.7813C201.374 75.8853 201.374 75.0173 201.355 74.1773C201.355 73.3373 201.336 72.5346 201.299 71.7693C201.206 70.3506 201.047 69.1933 200.823 68.2973C200.562 67.2706 200.226 66.5893 199.815 66.2533C199.33 65.8799 198.835 65.8333 198.331 66.1133C197.827 66.3933 197.304 66.9719 196.763 67.8493C196.315 68.5586 195.914 69.3519 195.559 70.2293C195.204 71.0879 194.952 71.7879 194.803 72.3293C194.71 72.7026 194.626 73.0853 194.551 73.4773C194.476 73.8693 194.42 74.3079 194.383 74.7933C194.346 75.2599 194.308 75.6333 194.271 75.9133C194.252 76.1933 194.224 76.6413 194.187 77.2573C194.168 77.8546 194.15 78.2559 194.131 78.4613C194.131 78.5359 194.122 78.5919 194.103 78.6293V78.6853C194.084 78.7226 194.075 78.7599 194.075 78.7973C193.982 78.9653 193.851 79.0586 193.683 79.0773C193.44 79.0959 193.272 79.0026 193.179 78.7973L193.123 78.6853C193.123 78.6666 193.114 78.6386 193.095 78.6013V78.2653V76.9493V74.4853C193.095 70.4719 193.039 67.7559 192.927 66.3373C192.908 66.2066 192.946 66.0946 193.039 66.0013C193.132 65.8893 193.244 65.8239 193.375 65.8053C193.524 65.7866 193.646 65.8239 193.739 65.9173C193.851 66.0106 193.916 66.1319 193.935 66.2813C194.047 67.6066 194.103 69.2399 194.103 71.1813Z" fill="white"/>
<ellipse cx="122.25" cy="69.8951" rx="26" ry="24.965" fill="#FF5C00"/>
<path d="M107.714 59.0573C107.845 59.1133 107.929 59.2066 107.966 59.3373C108.003 59.4679 108.134 59.8693 108.358 60.5413L109.114 62.8373C109.394 63.6773 109.674 64.4519 109.954 65.1613C110.458 66.5426 110.915 67.5973 111.326 68.3253C111.55 68.7359 111.755 69.0439 111.942 69.2493C112.017 69.3426 112.082 69.3986 112.138 69.4173C112.25 69.3799 112.381 69.2866 112.53 69.1373C112.754 68.9133 112.997 68.5959 113.258 68.1853C113.687 67.4946 114.191 66.4679 114.77 65.1053C115.087 64.3399 115.386 63.5839 115.666 62.8373C115.983 62.0346 116.263 61.2879 116.506 60.5973C116.749 59.8879 116.907 59.4399 116.982 59.2533C117.038 59.1413 117.131 59.0573 117.262 59.0013C117.393 58.9453 117.514 58.9453 117.626 59.0013C117.757 59.0386 117.85 59.1226 117.906 59.2533C117.962 59.3839 117.971 59.5146 117.934 59.6453C117.859 59.8133 117.701 60.2426 117.458 60.9333L116.618 63.2293C116.319 63.9946 116.011 64.7506 115.694 65.4973C115.097 66.8786 114.565 67.9519 114.098 68.7173C113.799 69.2026 113.519 69.5759 113.258 69.8373C113.053 70.0426 112.847 70.1919 112.642 70.2853C112.829 72.8053 112.801 75.5399 112.558 78.4893C112.539 78.6386 112.474 78.7599 112.362 78.8533C112.269 78.9466 112.147 78.9839 111.998 78.9653C111.867 78.9466 111.755 78.8813 111.662 78.7693C111.569 78.6759 111.531 78.5639 111.55 78.4333C111.793 75.4839 111.821 72.7679 111.634 70.2853C111.485 70.2106 111.335 70.0893 111.186 69.9213C110.962 69.6599 110.719 69.2959 110.458 68.8293C110.029 68.0639 109.543 66.9626 109.002 65.5253C108.722 64.7786 108.442 63.9946 108.162 63.1733L107.406 60.8773L107.014 59.6733C106.977 59.5426 106.986 59.4119 107.042 59.2813C107.098 59.1506 107.191 59.0666 107.322 59.0293C107.453 58.9919 107.583 59.0013 107.714 59.0573ZM122.246 66.0293C121.387 66.5519 120.678 67.4666 120.118 68.7733C119.558 70.0613 119.25 71.4333 119.194 72.8893C119.138 74.4573 119.38 75.6986 119.922 76.6133C120.482 77.5839 121.322 78.0226 122.442 77.9293C123.468 77.8546 124.355 77.2666 125.102 76.1653C125.867 75.1013 126.296 73.8226 126.39 72.3293C126.502 70.7799 126.212 69.4266 125.522 68.2693C124.831 67.1119 123.739 66.3653 122.246 66.0293ZM122.666 65.1053C123.842 65.3853 124.803 65.9266 125.55 66.7293C126.315 67.5133 126.838 68.3813 127.118 69.3333C127.379 70.3039 127.472 71.3213 127.398 72.3853C127.286 74.0466 126.782 75.5306 125.886 76.8373C125.008 78.1253 123.879 78.8253 122.498 78.9373C120.986 79.0679 119.838 78.4706 119.054 77.1453C118.4 76.0626 118.111 74.6346 118.186 72.8613C118.242 71.1813 118.624 69.5946 119.334 68.1013C120.024 66.5706 120.939 65.5346 122.078 64.9933C122.302 64.8813 122.498 64.9186 122.666 65.1053ZM129.338 65.3013C129.338 65.4879 129.263 66.5239 129.114 68.4093C128.983 70.0333 128.927 71.3119 128.946 72.2453C128.965 75.3253 129.506 77.2666 130.57 78.0693C130.943 78.3493 131.494 78.4239 132.222 78.2933C132.931 78.1813 133.501 77.6493 133.93 76.6973C134.341 75.8199 134.621 74.6346 134.77 73.1413C134.882 71.6666 134.901 70.3133 134.826 69.0813C134.751 67.8306 134.621 66.7946 134.434 65.9733C134.415 65.8426 134.443 65.7213 134.518 65.6093C134.593 65.4786 134.695 65.4039 134.826 65.3853C134.957 65.3479 135.078 65.3666 135.19 65.4413C135.321 65.5159 135.405 65.6186 135.442 65.7493C135.629 66.6266 135.759 67.7186 135.834 69.0253C135.909 70.3133 135.89 71.7226 135.778 73.2533C135.629 74.8586 135.321 76.1559 134.854 77.1453C134.257 78.3959 133.435 79.1146 132.39 79.3013C131.382 79.4693 130.57 79.3199 129.954 78.8533C128.629 77.8639 127.957 75.6706 127.938 72.2733C127.919 71.2653 127.975 69.9493 128.106 68.3253C128.255 66.4586 128.33 65.4319 128.33 65.2453C128.33 65.1146 128.377 65.0026 128.47 64.9093C128.582 64.8159 128.703 64.7693 128.834 64.7693C128.983 64.7693 129.105 64.8253 129.198 64.9373C129.291 65.0306 129.338 65.1519 129.338 65.3013Z" fill="white"/>
<path d="M160.695 246.06C160.458 246.06 160.243 246.015 160.05 245.925C159.857 245.835 159.693 245.715 159.56 245.565C159.427 245.412 159.332 245.243 159.275 245.06L159.635 244.925C159.722 245.178 159.857 245.372 160.04 245.505C160.223 245.635 160.442 245.7 160.695 245.7C160.855 245.7 160.995 245.675 161.115 245.625C161.238 245.572 161.333 245.498 161.4 245.405C161.467 245.312 161.5 245.203 161.5 245.08C161.5 244.897 161.45 244.755 161.35 244.655C161.25 244.555 161.107 244.478 160.92 244.425L160.25 244.225C159.987 244.148 159.783 244.02 159.64 243.84C159.5 243.66 159.43 243.455 159.43 243.225C159.43 243.028 159.478 242.855 159.575 242.705C159.672 242.552 159.803 242.432 159.97 242.345C160.14 242.258 160.332 242.215 160.545 242.215C160.768 242.215 160.968 242.257 161.145 242.34C161.325 242.42 161.477 242.527 161.6 242.66C161.723 242.793 161.812 242.942 161.865 243.105L161.515 243.245C161.435 243.025 161.31 242.858 161.14 242.745C160.973 242.632 160.777 242.575 160.55 242.575C160.407 242.575 160.28 242.6 160.17 242.65C160.063 242.7 159.98 242.772 159.92 242.865C159.86 242.958 159.83 243.068 159.83 243.195C159.83 243.348 159.878 243.487 159.975 243.61C160.072 243.73 160.22 243.82 160.42 243.88L161.01 244.055C161.303 244.142 161.525 244.267 161.675 244.43C161.825 244.593 161.9 244.798 161.9 245.045C161.9 245.245 161.848 245.422 161.745 245.575C161.645 245.725 161.503 245.843 161.32 245.93C161.14 246.017 160.932 246.06 160.695 246.06ZM163.937 246.06C163.687 246.06 163.461 246 163.257 245.88C163.057 245.757 162.899 245.588 162.782 245.375C162.666 245.162 162.607 244.92 162.607 244.65C162.607 244.38 162.664 244.142 162.777 243.935C162.891 243.725 163.044 243.56 163.237 243.44C163.434 243.32 163.654 243.26 163.897 243.26C164.091 243.26 164.262 243.297 164.412 243.37C164.566 243.44 164.696 243.537 164.802 243.66C164.909 243.78 164.991 243.917 165.047 244.07C165.104 244.22 165.132 244.375 165.132 244.535C165.132 244.568 165.131 244.607 165.127 244.65C165.124 244.69 165.119 244.732 165.112 244.775H162.847V244.425H164.897L164.717 244.575C164.747 244.392 164.726 244.228 164.652 244.085C164.582 243.938 164.481 243.823 164.347 243.74C164.214 243.653 164.064 243.61 163.897 243.61C163.731 243.61 163.576 243.653 163.432 243.74C163.292 243.827 163.182 243.948 163.102 244.105C163.022 244.258 162.991 244.442 163.007 244.655C162.991 244.868 163.024 245.055 163.107 245.215C163.194 245.372 163.311 245.493 163.457 245.58C163.607 245.667 163.767 245.71 163.937 245.71C164.134 245.71 164.299 245.663 164.432 245.57C164.566 245.477 164.674 245.36 164.757 245.22L165.077 245.39C165.024 245.51 164.942 245.622 164.832 245.725C164.722 245.825 164.591 245.907 164.437 245.97C164.287 246.03 164.121 246.06 163.937 246.06ZM165.894 246V242.215H166.269V246H165.894ZM168.356 246.06C168.106 246.06 167.88 246 167.676 245.88C167.476 245.757 167.318 245.588 167.201 245.375C167.085 245.162 167.026 244.92 167.026 244.65C167.026 244.38 167.083 244.142 167.196 243.935C167.31 243.725 167.463 243.56 167.656 243.44C167.853 243.32 168.073 243.26 168.316 243.26C168.51 243.26 168.681 243.297 168.831 243.37C168.985 243.44 169.115 243.537 169.221 243.66C169.328 243.78 169.41 243.917 169.466 244.07C169.523 244.22 169.551 244.375 169.551 244.535C169.551 244.568 169.55 244.607 169.546 244.65C169.543 244.69 169.538 244.732 169.531 244.775H167.266V244.425H169.316L169.136 244.575C169.166 244.392 169.145 244.228 169.071 244.085C169.001 243.938 168.9 243.823 168.766 243.74C168.633 243.653 168.483 243.61 168.316 243.61C168.15 243.61 167.995 243.653 167.851 243.74C167.711 243.827 167.601 243.948 167.521 244.105C167.441 244.258 167.41 244.442 167.426 244.655C167.41 244.868 167.443 245.055 167.526 245.215C167.613 245.372 167.73 245.493 167.876 245.58C168.026 245.667 168.186 245.71 168.356 245.71C168.553 245.71 168.718 245.663 168.851 245.57C168.985 245.477 169.093 245.36 169.176 245.22L169.496 245.39C169.443 245.51 169.361 245.622 169.251 245.725C169.141 245.825 169.01 245.907 168.856 245.97C168.706 246.03 168.54 246.06 168.356 246.06ZM171.537 246.06C171.274 246.06 171.042 245.998 170.842 245.875C170.642 245.752 170.486 245.585 170.372 245.375C170.259 245.162 170.202 244.922 170.202 244.655C170.202 244.388 170.259 244.15 170.372 243.94C170.486 243.73 170.642 243.565 170.842 243.445C171.042 243.322 171.274 243.26 171.537 243.26C171.704 243.26 171.861 243.29 172.007 243.35C172.154 243.41 172.284 243.492 172.397 243.595C172.511 243.695 172.596 243.812 172.652 243.945L172.312 244.12C172.246 243.977 172.144 243.86 172.007 243.77C171.871 243.68 171.714 243.635 171.537 243.635C171.361 243.635 171.201 243.68 171.057 243.77C170.917 243.857 170.806 243.978 170.722 244.135C170.642 244.288 170.602 244.463 170.602 244.66C170.602 244.853 170.642 245.028 170.722 245.185C170.806 245.338 170.917 245.46 171.057 245.55C171.201 245.64 171.361 245.685 171.537 245.685C171.714 245.685 171.869 245.64 172.002 245.55C172.139 245.46 172.242 245.34 172.312 245.19L172.652 245.375C172.596 245.505 172.511 245.622 172.397 245.725C172.284 245.828 172.154 245.91 172.007 245.97C171.861 246.03 171.704 246.06 171.537 246.06ZM174.435 246.03C174.195 246.03 174.01 245.96 173.88 245.82C173.75 245.68 173.685 245.48 173.685 245.22V243.695H173.19V243.32H173.315C173.429 243.32 173.519 243.283 173.585 243.21C173.652 243.133 173.685 243.038 173.685 242.925V242.7H174.06V243.32H174.65V243.695H174.06V245.22C174.06 245.31 174.074 245.39 174.1 245.46C174.127 245.527 174.172 245.58 174.235 245.62C174.302 245.66 174.39 245.68 174.5 245.68C174.527 245.68 174.559 245.678 174.595 245.675C174.632 245.672 174.664 245.668 174.69 245.665V246C174.65 246.01 174.605 246.017 174.555 246.02C174.505 246.027 174.465 246.03 174.435 246.03ZM176.571 246.06C176.321 246.06 176.095 246 175.891 245.88C175.691 245.757 175.533 245.588 175.416 245.375C175.3 245.162 175.241 244.92 175.241 244.65C175.241 244.38 175.298 244.142 175.411 243.935C175.525 243.725 175.678 243.56 175.871 243.44C176.068 243.32 176.288 243.26 176.531 243.26C176.725 243.26 176.896 243.297 177.046 243.37C177.2 243.44 177.33 243.537 177.436 243.66C177.543 243.78 177.625 243.917 177.681 244.07C177.738 244.22 177.766 244.375 177.766 244.535C177.766 244.568 177.765 244.607 177.761 244.65C177.758 244.69 177.753 244.732 177.746 244.775H175.481V244.425H177.531L177.351 244.575C177.381 244.392 177.36 244.228 177.286 244.085C177.216 243.938 177.115 243.823 176.981 243.74C176.848 243.653 176.698 243.61 176.531 243.61C176.365 243.61 176.21 243.653 176.066 243.74C175.926 243.827 175.816 243.948 175.736 244.105C175.656 244.258 175.625 244.442 175.641 244.655C175.625 244.868 175.658 245.055 175.741 245.215C175.828 245.372 175.945 245.493 176.091 245.58C176.241 245.667 176.401 245.71 176.571 245.71C176.768 245.71 176.933 245.663 177.066 245.57C177.2 245.477 177.308 245.36 177.391 245.22L177.711 245.39C177.658 245.51 177.576 245.622 177.466 245.725C177.356 245.825 177.225 245.907 177.071 245.97C176.921 246.03 176.755 246.06 176.571 246.06ZM179.737 246.06C179.487 246.06 179.262 246 179.062 245.88C178.862 245.757 178.704 245.59 178.587 245.38C178.474 245.167 178.417 244.927 178.417 244.66C178.417 244.39 178.474 244.15 178.587 243.94C178.704 243.73 178.861 243.565 179.057 243.445C179.257 243.322 179.484 243.26 179.737 243.26C179.967 243.26 180.172 243.31 180.352 243.41C180.532 243.51 180.674 243.645 180.777 243.815L180.717 243.92V242.215H181.092V246H180.717V245.4L180.777 245.455C180.684 245.648 180.544 245.798 180.357 245.905C180.174 246.008 179.967 246.06 179.737 246.06ZM179.757 245.685C179.937 245.685 180.099 245.64 180.242 245.55C180.389 245.46 180.504 245.338 180.587 245.185C180.674 245.028 180.717 244.853 180.717 244.66C180.717 244.467 180.674 244.293 180.587 244.14C180.504 243.983 180.389 243.86 180.242 243.77C180.099 243.68 179.937 243.635 179.757 243.635C179.581 243.635 179.421 243.68 179.277 243.77C179.134 243.86 179.021 243.982 178.937 244.135C178.857 244.288 178.817 244.463 178.817 244.66C178.817 244.853 178.857 245.028 178.937 245.185C179.021 245.338 179.132 245.46 179.272 245.55C179.416 245.64 179.577 245.685 179.757 245.685ZM183.502 246L182.582 243.32H183.007L183.767 245.665H183.617L184.332 243.32H184.707L185.422 245.665H185.272L186.037 243.32H186.457L185.537 246H185.162L184.467 243.705H184.572L183.877 246H183.502ZM188.203 246.06C187.949 246.06 187.719 246 187.513 245.88C187.306 245.757 187.141 245.59 187.018 245.38C186.898 245.167 186.838 244.925 186.838 244.655C186.838 244.388 186.898 244.15 187.018 243.94C187.138 243.73 187.299 243.565 187.503 243.445C187.709 243.322 187.943 243.26 188.203 243.26C188.463 243.26 188.694 243.32 188.898 243.44C189.104 243.56 189.266 243.725 189.383 243.935C189.503 244.145 189.563 244.385 189.563 244.655C189.563 244.928 189.501 245.172 189.378 245.385C189.254 245.595 189.089 245.76 188.883 245.88C188.679 246 188.453 246.06 188.203 246.06ZM188.203 245.685C188.383 245.685 188.544 245.64 188.688 245.55C188.834 245.46 188.949 245.337 189.033 245.18C189.119 245.023 189.163 244.848 189.163 244.655C189.163 244.462 189.119 244.288 189.033 244.135C188.949 243.982 188.834 243.86 188.688 243.77C188.544 243.68 188.383 243.635 188.203 243.635C188.023 243.635 187.859 243.68 187.713 243.77C187.569 243.86 187.454 243.982 187.368 244.135C187.281 244.288 187.238 244.462 187.238 244.655C187.238 244.848 187.281 245.023 187.368 245.18C187.454 245.337 187.569 245.46 187.713 245.55C187.859 245.64 188.023 245.685 188.203 245.685ZM190.324 246V243.32H190.699V243.76L190.649 243.695C190.712 243.568 190.807 243.468 190.934 243.395C191.064 243.322 191.221 243.285 191.404 243.285H191.574V243.66H191.339C191.146 243.66 190.991 243.72 190.874 243.84C190.757 243.96 190.699 244.13 190.699 244.35V246H190.324ZM192.113 246V242.215H192.488V244.865L192.328 244.84L193.833 243.32H194.318L193.268 244.395L194.413 246H193.963L192.888 244.515L193.128 244.535L192.363 245.325L192.488 245.015V246H192.113ZM195.883 246.06C195.626 246.06 195.401 245.995 195.208 245.865C195.014 245.735 194.874 245.558 194.788 245.335L195.103 245.185C195.179 245.348 195.286 245.478 195.423 245.575C195.563 245.672 195.716 245.72 195.883 245.72C196.043 245.72 196.178 245.682 196.288 245.605C196.398 245.525 196.453 245.422 196.453 245.295C196.453 245.202 196.426 245.128 196.373 245.075C196.319 245.018 196.258 244.975 196.188 244.945C196.118 244.915 196.056 244.893 196.003 244.88L195.618 244.77C195.371 244.7 195.193 244.602 195.083 244.475C194.973 244.348 194.918 244.202 194.918 244.035C194.918 243.878 194.958 243.742 195.038 243.625C195.118 243.508 195.226 243.418 195.363 243.355C195.499 243.292 195.651 243.26 195.818 243.26C196.044 243.26 196.249 243.32 196.433 243.44C196.619 243.557 196.751 243.72 196.828 243.93L196.508 244.08C196.441 243.93 196.344 243.813 196.218 243.73C196.094 243.643 195.956 243.6 195.803 243.6C195.653 243.6 195.533 243.638 195.443 243.715C195.353 243.792 195.308 243.888 195.308 244.005C195.308 244.095 195.331 244.167 195.378 244.22C195.424 244.273 195.478 244.313 195.538 244.34C195.601 244.367 195.656 244.387 195.703 244.4L196.148 244.53C196.364 244.593 196.533 244.692 196.653 244.825C196.776 244.958 196.838 245.115 196.838 245.295C196.838 245.442 196.796 245.573 196.713 245.69C196.633 245.807 196.521 245.898 196.378 245.965C196.234 246.028 196.069 246.06 195.883 246.06ZM199.901 246.06C199.671 246.06 199.463 246.008 199.276 245.905C199.093 245.798 198.954 245.648 198.861 245.455L198.921 245.4V246H198.546V242.215H198.921V243.92L198.861 243.815C198.968 243.645 199.109 243.51 199.286 243.41C199.466 243.31 199.671 243.26 199.901 243.26C200.154 243.26 200.379 243.322 200.576 243.445C200.776 243.565 200.933 243.73 201.046 243.94C201.163 244.15 201.221 244.39 201.221 244.66C201.221 244.927 201.163 245.167 201.046 245.38C200.933 245.59 200.776 245.757 200.576 245.88C200.379 246 200.154 246.06 199.901 246.06ZM199.881 245.685C200.061 245.685 200.221 245.64 200.361 245.55C200.504 245.46 200.616 245.338 200.696 245.185C200.779 245.028 200.821 244.853 200.821 244.66C200.821 244.463 200.779 244.288 200.696 244.135C200.616 243.982 200.504 243.86 200.361 243.77C200.221 243.68 200.061 243.635 199.881 243.635C199.701 243.635 199.538 243.68 199.391 243.77C199.248 243.86 199.133 243.983 199.046 244.14C198.963 244.293 198.921 244.467 198.921 244.66C198.921 244.853 198.963 245.028 199.046 245.185C199.133 245.338 199.248 245.46 199.391 245.55C199.538 245.64 199.701 245.685 199.881 245.685ZM201.987 247.1C201.934 247.1 201.879 247.095 201.822 247.085C201.769 247.078 201.716 247.065 201.662 247.045V246.695C201.696 246.698 201.737 246.703 201.787 246.71C201.841 246.72 201.894 246.725 201.947 246.725C202.111 246.725 202.236 246.69 202.322 246.62C202.409 246.553 202.494 246.423 202.577 246.23L202.747 245.83L202.737 246.16L201.602 243.32H202.007L202.937 245.665H202.832L203.757 243.32H204.172L202.947 246.34C202.894 246.47 202.826 246.593 202.742 246.71C202.662 246.827 202.561 246.92 202.437 246.99C202.314 247.063 202.164 247.1 201.987 247.1ZM160.125 252L159.055 248.275H159.46L160.385 251.61H160.3L161.25 248.275H161.675L162.62 251.61H162.53L163.46 248.275H163.865L162.795 252H162.37L161.415 248.65H161.505L160.55 252H160.125ZM164.407 252V249.32H164.782V252H164.407ZM164.407 248.825V248.275H164.782V248.825H164.407ZM165.649 252V248.215H166.024V252H165.649ZM166.892 252V248.215H167.267V252H166.892ZM168.135 252V249.32H168.51V252H168.135ZM168.135 248.825V248.275H168.51V248.825H168.135ZM170.152 252.06C169.982 252.06 169.831 252.028 169.697 251.965C169.564 251.898 169.459 251.808 169.382 251.695C169.306 251.582 169.267 251.452 169.267 251.305C169.267 251.165 169.297 251.038 169.357 250.925C169.417 250.808 169.511 250.71 169.637 250.63C169.764 250.55 169.926 250.493 170.122 250.46L171.172 250.285V250.625L170.212 250.785C170.019 250.818 169.879 250.88 169.792 250.97C169.709 251.06 169.667 251.167 169.667 251.29C169.667 251.41 169.714 251.512 169.807 251.595C169.904 251.678 170.027 251.72 170.177 251.72C170.361 251.72 170.521 251.682 170.657 251.605C170.794 251.525 170.901 251.418 170.977 251.285C171.054 251.152 171.092 251.003 171.092 250.84V250.16C171.092 250 171.034 249.87 170.917 249.77C170.801 249.67 170.649 249.62 170.462 249.62C170.299 249.62 170.156 249.662 170.032 249.745C169.909 249.825 169.817 249.93 169.757 250.06L169.417 249.875C169.467 249.762 169.546 249.658 169.652 249.565C169.762 249.472 169.887 249.398 170.027 249.345C170.167 249.288 170.312 249.26 170.462 249.26C170.659 249.26 170.832 249.298 170.982 249.375C171.136 249.452 171.254 249.558 171.337 249.695C171.424 249.828 171.467 249.983 171.467 250.16V252H171.092V251.465L171.147 251.52C171.101 251.62 171.027 251.712 170.927 251.795C170.831 251.875 170.716 251.94 170.582 251.99C170.452 252.037 170.309 252.06 170.152 252.06ZM172.339 252V249.32H172.714V249.83L172.654 249.755C172.727 249.598 172.835 249.477 172.979 249.39C173.125 249.303 173.285 249.26 173.459 249.26C173.665 249.26 173.852 249.318 174.019 249.435C174.185 249.552 174.304 249.703 174.374 249.89L174.269 249.895C174.335 249.688 174.45 249.532 174.614 249.425C174.78 249.315 174.964 249.26 175.164 249.26C175.344 249.26 175.509 249.303 175.659 249.39C175.812 249.477 175.934 249.597 176.024 249.75C176.117 249.9 176.164 250.07 176.164 250.26V252H175.789V250.405C175.789 250.242 175.759 250.103 175.699 249.99C175.642 249.877 175.564 249.79 175.464 249.73C175.364 249.667 175.249 249.635 175.119 249.635C174.992 249.635 174.877 249.667 174.774 249.73C174.67 249.79 174.589 249.878 174.529 249.995C174.469 250.108 174.439 250.245 174.439 250.405V252H174.064V250.405C174.064 250.242 174.034 250.103 173.974 249.99C173.917 249.877 173.839 249.79 173.739 249.73C173.639 249.667 173.524 249.635 173.394 249.635C173.264 249.635 173.147 249.667 173.044 249.73C172.944 249.79 172.864 249.878 172.804 249.995C172.744 250.108 172.714 250.245 172.714 250.405V252H172.339ZM177.654 252V251.73L179.784 248.65H177.779V248.275H180.309V248.545L178.184 251.625H180.354V252H177.654ZM180.949 252V248.215H181.324V249.84L181.239 249.82C181.306 249.647 181.414 249.51 181.564 249.41C181.717 249.31 181.894 249.26 182.094 249.26C182.284 249.26 182.454 249.303 182.604 249.39C182.757 249.477 182.877 249.597 182.964 249.75C183.054 249.9 183.099 250.07 183.099 250.26V252H182.724V250.405C182.724 250.242 182.694 250.103 182.634 249.99C182.574 249.877 182.491 249.79 182.384 249.73C182.281 249.667 182.162 249.635 182.029 249.635C181.896 249.635 181.776 249.667 181.669 249.73C181.562 249.79 181.477 249.878 181.414 249.995C181.354 250.108 181.324 250.245 181.324 250.405V252H180.949ZM184.69 252.06C184.52 252.06 184.369 252.028 184.235 251.965C184.102 251.898 183.997 251.808 183.92 251.695C183.844 251.582 183.805 251.452 183.805 251.305C183.805 251.165 183.835 251.038 183.895 250.925C183.955 250.808 184.049 250.71 184.175 250.63C184.302 250.55 184.464 250.493 184.66 250.46L185.71 250.285V250.625L184.75 250.785C184.557 250.818 184.417 250.88 184.33 250.97C184.247 251.06 184.205 251.167 184.205 251.29C184.205 251.41 184.252 251.512 184.345 251.595C184.442 251.678 184.565 251.72 184.715 251.72C184.899 251.72 185.059 251.682 185.195 251.605C185.332 251.525 185.439 251.418 185.515 251.285C185.592 251.152 185.63 251.003 185.63 250.84V250.16C185.63 250 185.572 249.87 185.455 249.77C185.339 249.67 185.187 249.62 185 249.62C184.837 249.62 184.694 249.662 184.57 249.745C184.447 249.825 184.355 249.93 184.295 250.06L183.955 249.875C184.005 249.762 184.084 249.658 184.19 249.565C184.3 249.472 184.425 249.398 184.565 249.345C184.705 249.288 184.85 249.26 185 249.26C185.197 249.26 185.37 249.298 185.52 249.375C185.674 249.452 185.792 249.558 185.875 249.695C185.962 249.828 186.005 249.983 186.005 250.16V252H185.63V251.465L185.685 251.52C185.639 251.62 185.565 251.712 185.465 251.795C185.369 251.875 185.254 251.94 185.12 251.99C184.99 252.037 184.847 252.06 184.69 252.06ZM186.877 252V249.32H187.252V249.84L187.167 249.82C187.233 249.647 187.342 249.51 187.492 249.41C187.645 249.31 187.822 249.26 188.022 249.26C188.212 249.26 188.382 249.303 188.532 249.39C188.685 249.477 188.805 249.597 188.892 249.75C188.982 249.9 189.027 250.07 189.027 250.26V252H188.652V250.405C188.652 250.242 188.622 250.103 188.562 249.99C188.505 249.877 188.423 249.79 188.317 249.73C188.213 249.667 188.093 249.635 187.957 249.635C187.82 249.635 187.698 249.667 187.592 249.73C187.485 249.79 187.402 249.878 187.342 249.995C187.282 250.108 187.252 250.245 187.252 250.405V252H186.877ZM191.113 253.1C190.929 253.1 190.759 253.072 190.603 253.015C190.449 252.958 190.316 252.88 190.203 252.78C190.093 252.683 190.008 252.57 189.948 252.44L190.293 252.255C190.346 252.382 190.441 252.492 190.578 252.585C190.714 252.678 190.889 252.725 191.103 252.725C191.266 252.725 191.416 252.693 191.553 252.63C191.689 252.567 191.799 252.473 191.883 252.35C191.966 252.227 192.008 252.075 192.008 251.895V251.3L192.068 251.355C191.974 251.548 191.836 251.698 191.653 251.805C191.469 251.908 191.269 251.96 191.053 251.96C190.803 251.96 190.578 251.9 190.378 251.78C190.178 251.66 190.019 251.498 189.903 251.295C189.789 251.088 189.733 250.86 189.733 250.61C189.733 250.357 189.789 250.128 189.903 249.925C190.019 249.722 190.176 249.56 190.373 249.44C190.573 249.32 190.799 249.26 191.053 249.26C191.269 249.26 191.466 249.31 191.643 249.41C191.823 249.51 191.964 249.645 192.068 249.815L192.008 249.92V249.32H192.383V251.895C192.383 252.125 192.328 252.33 192.218 252.51C192.111 252.693 191.961 252.837 191.768 252.94C191.578 253.047 191.359 253.1 191.113 253.1ZM191.073 251.585C191.246 251.585 191.403 251.542 191.543 251.455C191.683 251.365 191.794 251.247 191.878 251.1C191.964 250.95 192.008 250.787 192.008 250.61C192.008 250.433 191.964 250.272 191.878 250.125C191.794 249.975 191.683 249.857 191.543 249.77C191.403 249.68 191.246 249.635 191.073 249.635C190.896 249.635 190.736 249.68 190.593 249.77C190.449 249.857 190.336 249.973 190.253 250.12C190.173 250.267 190.133 250.43 190.133 250.61C190.133 250.787 190.173 250.95 190.253 251.1C190.336 251.247 190.448 251.365 190.588 251.455C190.731 251.542 190.893 251.585 191.073 251.585Z" fill="white"/>
<defs>
<linearGradient id="paint0_linear_62_67" x1="169.5" y1="140" x2="-251" y2="-120.5" gradientUnits="userSpaceOnUse">
<stop stop-color="#82A4FF"/>
<stop offset="1" stop-color="#FDFDFF"/>
</linearGradient>
<linearGradient id="paint1_linear_62_67" x1="20" y1="148.5" x2="-242" y2="-386.5" gradientUnits="userSpaceOnUse">
<stop stop-color="#A2BCFF"/>
<stop offset="1" stop-color="white"/>
</linearGradient>
<linearGradient id="paint2_linear_62_67" x1="6.14635" y1="203.046" x2="7.49443" y2="203.046" gradientUnits="userSpaceOnUse">
<stop stop-color="#000468" stop-opacity="0"/>
<stop offset="1" stop-color="#060B96"/>
</linearGradient>
<linearGradient id="paint3_linear_62_67" x1="6.14635" y1="63.5" x2="7.49443" y2="63.5" gradientUnits="userSpaceOnUse">
<stop stop-color="#82A4FF"/>
<stop offset="1" stop-color="#C2C5FF" stop-opacity="0"/>
</linearGradient>
</defs>
</svg>
