<svg width="235" height="280" viewBox="0 0 235 280" fill="none" xmlns="http://www.w3.org/2000/svg">
<rect width="235" height="279.946" fill="#FAFAFA"/>
<rect width="9.07725" height="279.946" fill="#FAFAFA"/>
<rect x="8.01137" width="3.33807" height="280" fill="url(#paint0_linear_54_4)"/>
<circle cx="158.5" cy="74.5" r="32.5" fill="#FF3D00"/>
<path d="M45.764 63.764L46.856 63.624C47.416 63.5493 47.808 63.4933 48.032 63.456C48.256 63.4187 48.6107 63.372 49.096 63.316C49.6 63.26 50.0013 63.2227 50.3 63.204C50.6173 63.1667 50.9813 63.1387 51.392 63.12C51.8027 63.1013 52.1947 63.092 52.568 63.092C52.6987 63.092 52.8107 63.148 52.904 63.26C53.016 63.3533 53.072 63.4653 53.072 63.596C53.072 63.7267 53.016 63.848 52.904 63.96C52.8107 64.0533 52.6987 64.1 52.568 64.1C51.3547 64.1 49.1707 64.3147 46.016 64.744C46.016 65.4907 45.9973 66.732 45.96 68.468C45.9413 70.1853 45.932 71.5013 45.932 72.416C48.0973 72.416 50.1693 72.2947 52.148 72.052C52.2787 72.0333 52.4 72.0707 52.512 72.164C52.624 72.2387 52.6893 72.3507 52.708 72.5C52.7267 72.6307 52.6893 72.752 52.596 72.864C52.5213 72.976 52.4093 73.0413 52.26 73.06C50.244 73.3027 48.1347 73.424 45.932 73.424C45.9693 77.1573 46.268 80.312 46.828 82.888C46.8467 83.0373 46.8187 83.168 46.744 83.28C46.6693 83.392 46.5573 83.4573 46.408 83.476C46.2773 83.5133 46.156 83.4947 46.044 83.42C45.932 83.3453 45.8573 83.2427 45.82 83.112C45.5213 81.656 45.2973 80.032 45.148 78.24C45.0173 76.448 44.9427 74.9733 44.924 73.816C44.924 72.64 44.9333 70.9413 44.952 68.72C44.9893 66.4987 45.008 64.996 45.008 64.212C45.008 64.0813 45.0547 63.9693 45.148 63.876C45.26 63.764 45.3813 63.708 45.512 63.708C45.6053 63.708 45.6893 63.7267 45.764 63.764ZM57.851 70.288C56.9924 70.8107 56.283 71.7253 55.723 73.032C55.163 74.32 54.855 75.692 54.799 77.148C54.743 78.716 54.9857 79.9573 55.527 80.872C56.087 81.8427 56.927 82.2813 58.047 82.188C59.0737 82.1133 59.9604 81.5253 60.707 80.424C61.4724 79.36 61.9017 78.0813 61.995 76.588C62.107 75.0387 61.8177 73.6853 61.127 72.528C60.4364 71.3707 59.3444 70.624 57.851 70.288ZM58.271 69.364C59.447 69.644 60.4084 70.1853 61.155 70.988C61.9204 71.772 62.443 72.64 62.723 73.592C62.9844 74.5627 63.0777 75.58 63.003 76.644C62.891 78.3053 62.387 79.7893 61.491 81.096C60.6137 82.384 59.4844 83.084 58.103 83.196C56.591 83.3267 55.443 82.7293 54.659 81.404C54.0057 80.3213 53.7164 78.8933 53.791 77.12C53.847 75.44 54.2297 73.8533 54.939 72.36C55.6297 70.8293 56.5444 69.7933 57.683 69.252C57.907 69.14 58.103 69.1773 58.271 69.364ZM65.6436 63.736C65.3262 71.5013 65.3636 78.044 65.7556 83.364C65.7556 83.4947 65.7089 83.6067 65.6156 83.7C65.5409 83.812 65.4289 83.868 65.2796 83.868C65.1489 83.8867 65.0276 83.8493 64.9156 83.756C64.8222 83.6813 64.7662 83.5693 64.7476 83.42C64.3556 78.0813 64.3182 71.5013 64.6356 63.68C64.6356 63.5493 64.6822 63.4373 64.7756 63.344C64.8876 63.2507 65.0089 63.204 65.1396 63.204C65.2889 63.204 65.4102 63.26 65.5036 63.372C65.5969 63.4653 65.6436 63.5867 65.6436 63.736ZM67.9886 63.736C67.6712 71.5013 67.7086 78.044 68.1006 83.364C68.1006 83.4947 68.0539 83.6067 67.9606 83.7C67.8859 83.812 67.7739 83.868 67.6246 83.868C67.4939 83.8867 67.3726 83.8493 67.2606 83.756C67.1672 83.6813 67.1112 83.5693 67.0926 83.42C66.7006 78.0813 66.6632 71.5013 66.9806 63.68C66.9806 63.5493 67.0272 63.4373 67.1206 63.344C67.2326 63.2507 67.3539 63.204 67.4846 63.204C67.6339 63.204 67.7552 63.26 67.8486 63.372C67.9419 63.4653 67.9886 63.5867 67.9886 63.736ZM72.4056 70.288C71.5469 70.8107 70.8376 71.7253 70.2776 73.032C69.7176 74.32 69.4096 75.692 69.3536 77.148C69.2976 78.716 69.5402 79.9573 70.0816 80.872C70.6416 81.8427 71.4816 82.2813 72.6016 82.188C73.6282 82.1133 74.5149 81.5253 75.2616 80.424C76.0269 79.36 76.4562 78.0813 76.5496 76.588C76.6616 75.0387 76.3722 73.6853 75.6816 72.528C74.9909 71.3707 73.8989 70.624 72.4056 70.288ZM72.8256 69.364C74.0016 69.644 74.9629 70.1853 75.7096 70.988C76.4749 71.772 76.9976 72.64 77.2776 73.592C77.5389 74.5627 77.6322 75.58 77.5576 76.644C77.4456 78.3053 76.9416 79.7893 76.0456 81.096C75.1682 82.384 74.0389 83.084 72.6576 83.196C71.1456 83.3267 69.9976 82.7293 69.2136 81.404C68.5602 80.3213 68.2709 78.8933 68.3456 77.12C68.4016 75.44 68.7842 73.8533 69.4936 72.36C70.1842 70.8293 71.0989 69.7933 72.2376 69.252C72.4616 69.14 72.6576 69.1773 72.8256 69.364ZM78.5741 69.728C78.7981 70.568 78.9941 71.4453 79.1621 72.36C79.3301 73.2747 79.4981 74.404 79.6661 75.748C79.8528 77.0733 79.9834 77.9413 80.0581 78.352C80.1141 78.7253 80.1981 79.3973 80.3101 80.368C80.6088 79.192 80.8981 78.156 81.1781 77.26C81.5328 76.14 81.8688 75.272 82.1861 74.656C82.3914 74.2827 82.5874 73.9933 82.7741 73.788C83.0914 73.4893 83.4274 73.396 83.7821 73.508C84.0248 73.5827 84.2581 73.788 84.4821 74.124C84.6314 74.348 84.7994 74.6653 84.9861 75.076C85.2661 75.692 85.5741 76.5507 85.9101 77.652C86.0781 78.212 86.2741 78.9213 86.4981 79.78C86.4981 79.4627 86.5074 79.1453 86.5261 78.828C86.6754 76.252 87.2541 73.2 88.2621 69.672C88.2994 69.5413 88.3741 69.448 88.4861 69.392C88.6168 69.3173 88.7474 69.2987 88.8781 69.336C89.0088 69.3733 89.1021 69.4573 89.1581 69.588C89.2328 69.7 89.2514 69.8213 89.2141 69.952C88.2248 73.424 87.6648 76.4013 87.5341 78.884C87.4968 79.3693 87.4968 79.9107 87.5341 80.508C87.5901 81.404 87.6181 81.992 87.6181 82.272V82.356C87.6368 82.4493 87.6461 82.524 87.6461 82.58C87.6648 82.7107 87.6554 82.8227 87.6181 82.916C87.5434 83.14 87.3941 83.28 87.1701 83.336C86.8341 83.392 86.5728 83.252 86.3861 82.916C86.3674 82.8787 86.3208 82.748 86.2461 82.524C86.1528 82.2813 85.9754 81.6653 85.7141 80.676L84.9301 77.96C84.6128 76.8773 84.3234 76.0467 84.0621 75.468C83.9128 75.132 83.7728 74.8707 83.6421 74.684C83.5861 74.6093 83.5394 74.5533 83.5021 74.516H83.4741C83.3621 74.628 83.2314 74.8333 83.0821 75.132C82.7834 75.6733 82.4661 76.4853 82.1301 77.568C81.7568 78.7067 81.3554 80.2187 80.9261 82.104C80.9074 82.1227 80.8981 82.1693 80.8981 82.244C80.8794 82.3747 80.8701 82.468 80.8701 82.524C80.8141 82.916 80.6274 83.1587 80.3101 83.252C80.0674 83.3267 79.8714 83.252 79.7221 83.028C79.6848 82.972 79.6474 82.8973 79.6101 82.804C79.5914 82.7107 79.5634 82.58 79.5261 82.412C79.4888 82.1693 79.4421 81.7773 79.3861 81.236C79.1994 79.6867 79.0874 78.7813 79.0501 78.52C78.9754 78.0533 78.8448 77.1667 78.6581 75.86C78.4901 74.5533 78.3221 73.4613 78.1541 72.584C78.0048 71.688 77.8274 70.8293 77.6221 70.008C77.5848 69.8587 77.6034 69.728 77.6781 69.616C77.7341 69.504 77.8274 69.4293 77.9581 69.392C78.1074 69.3547 78.2381 69.3733 78.3501 69.448C78.4621 69.504 78.5368 69.5973 78.5741 69.728ZM98.0494 68.412C97.5081 68.412 96.9761 68.4493 96.4534 68.524C96.3227 68.5427 96.2014 68.5147 96.0894 68.44C95.9774 68.3467 95.9121 68.2347 95.8934 68.104C95.8747 67.9547 95.9121 67.824 96.0054 67.712C96.0801 67.6 96.1921 67.5347 96.3414 67.516C96.9201 67.4413 97.4987 67.404 98.0774 67.404C98.1707 65.724 98.2267 64.5013 98.2454 63.736C98.2454 63.6053 98.2921 63.4933 98.3854 63.4C98.4974 63.3067 98.6187 63.26 98.7494 63.26C98.8987 63.26 99.0201 63.316 99.1134 63.428C99.2067 63.5213 99.2534 63.6427 99.2534 63.792C99.2347 64.576 99.1787 65.78 99.0854 67.404C99.6267 67.4227 100.252 67.46 100.961 67.516C101.111 67.5347 101.232 67.6 101.325 67.712C101.419 67.8053 101.456 67.9267 101.437 68.076C101.419 68.2067 101.353 68.3187 101.241 68.412C101.148 68.5053 101.036 68.5427 100.905 68.524C100.177 68.468 99.5614 68.4307 99.0574 68.412C98.8147 73.6013 98.8614 77.5307 99.1974 80.2C99.3281 81.2453 99.6734 82.0107 100.233 82.496C100.793 82.9813 101.475 82.9907 102.277 82.524C102.389 82.468 102.511 82.4587 102.641 82.496C102.791 82.5333 102.893 82.608 102.949 82.72C103.024 82.832 103.043 82.9533 103.005 83.084C102.968 83.2333 102.893 83.3453 102.781 83.42C101.568 84.1107 100.495 84.0547 99.5614 83.252C98.8147 82.5987 98.3574 81.6187 98.1894 80.312C97.8534 77.6053 97.8067 73.6387 98.0494 68.412ZM105.157 63.4C105.008 67.712 104.971 71.3053 105.045 74.18C105.475 72.6307 106.184 71.3987 107.173 70.484C107.733 69.9427 108.331 69.672 108.965 69.672C109.525 69.6533 110.057 69.84 110.561 70.232C111.42 70.904 112.027 71.8747 112.381 73.144C112.792 74.6187 113.007 76.252 113.025 78.044C113.044 79.836 112.857 81.4787 112.465 82.972C112.447 83.1213 112.372 83.224 112.241 83.28C112.129 83.3547 111.999 83.3733 111.849 83.336C111.719 83.3173 111.616 83.2427 111.541 83.112C111.485 83 111.476 82.8787 111.513 82.748C111.868 81.3293 112.036 79.7707 112.017 78.072C111.999 76.3547 111.803 74.8053 111.429 73.424C111.131 72.36 110.636 71.5667 109.945 71.044C109.628 70.7827 109.311 70.6613 108.993 70.68C108.62 70.68 108.237 70.8573 107.845 71.212C106.632 72.3507 105.904 74.124 105.661 76.532C105.568 77.3533 105.521 78.4173 105.521 79.724C105.521 81.46 105.512 82.4867 105.493 82.804V83.196V83.28C105.493 83.336 105.484 83.392 105.465 83.448C105.465 83.4667 105.456 83.4947 105.437 83.532C105.381 83.6253 105.307 83.6907 105.213 83.728C105.027 83.8213 104.849 83.8027 104.681 83.672C104.625 83.6347 104.579 83.5787 104.541 83.504L104.485 83.336V83.252V82.776C104.467 82.4027 104.439 81.9453 104.401 81.404C104.383 81.292 104.299 79.7427 104.149 76.756C103.963 73.1907 103.963 68.72 104.149 63.344C104.149 63.2133 104.196 63.1013 104.289 63.008C104.401 62.9147 104.523 62.868 104.653 62.868C104.803 62.868 104.924 62.924 105.017 63.036C105.111 63.1293 105.157 63.2507 105.157 63.4ZM114.633 75.216C115.529 75.5333 116.369 75.5053 117.153 75.132C117.974 74.7213 118.599 74.04 119.029 73.088C119.439 72.192 119.542 71.4173 119.337 70.764C119.15 70.1853 118.702 69.9427 117.993 70.036C117.059 70.148 116.247 70.876 115.557 72.22C115.127 73.0973 114.819 74.096 114.633 75.216ZM113.653 74.992C113.858 73.7787 114.194 72.7053 114.661 71.772C115.501 70.1107 116.574 69.196 117.881 69.028C118.497 68.9533 119.01 69.0467 119.421 69.308C119.85 69.5693 120.149 69.952 120.317 70.456C120.597 71.352 120.475 72.3693 119.953 73.508C119.411 74.684 118.627 75.524 117.601 76.028C116.63 76.4947 115.603 76.5693 114.521 76.252C114.502 76.42 114.493 76.5973 114.493 76.784C114.437 78.5387 114.726 79.9387 115.361 80.984C116.033 82.0667 117.003 82.5053 118.273 82.3C119.001 82.188 119.682 81.852 120.317 81.292C120.951 80.732 121.493 80.0507 121.941 79.248C122.015 79.136 122.118 79.0613 122.249 79.024C122.379 78.9867 122.501 79.0053 122.613 79.08C122.743 79.136 122.827 79.2293 122.865 79.36C122.902 79.4907 122.893 79.6213 122.837 79.752C122.314 80.6293 121.679 81.404 120.933 82.076C120.186 82.748 119.355 83.1587 118.441 83.308C116.705 83.5693 115.389 82.972 114.493 81.516C113.746 80.3027 113.41 78.716 113.485 76.756C113.485 76.4387 113.503 76.1213 113.541 75.804C113.354 75.636 113.317 75.44 113.429 75.216C113.485 75.104 113.559 75.0293 113.653 74.992Z" fill="#FF3D00"/>
<path d="M139.161 68.972C139.161 68.916 139.152 68.8227 139.133 68.692C139.021 67.9453 138.947 67.432 138.909 67.152C138.835 66.7973 138.685 66.396 138.461 65.948C138.256 65.4813 137.976 65.0987 137.621 64.8C137.192 64.408 136.66 64.2027 136.025 64.184C135.391 64.1467 134.775 64.2773 134.177 64.576C133.561 64.856 133.048 65.248 132.637 65.752C132.227 66.2373 132.003 66.7507 131.965 67.292C131.891 68.244 132.283 69.28 133.141 70.4C133.645 71.0533 134.672 72.108 136.221 73.564C137.733 74.9827 138.779 76.1027 139.357 76.924C140.328 78.2867 140.739 79.612 140.589 80.9C140.421 82.244 139.815 83.112 138.769 83.504C137.873 83.8213 136.809 83.756 135.577 83.308C134.457 82.8787 133.421 82.2067 132.469 81.292C131.536 80.3587 130.948 79.36 130.705 78.296C130.687 78.1653 130.715 78.044 130.789 77.932C130.864 77.8013 130.967 77.7267 131.097 77.708C131.228 77.6707 131.349 77.6893 131.461 77.764C131.592 77.8387 131.676 77.9413 131.713 78.072C131.9 78.9493 132.395 79.7893 133.197 80.592C134.019 81.3947 134.933 81.9827 135.941 82.356C136.931 82.7293 137.752 82.7947 138.405 82.552C139.077 82.3093 139.469 81.7213 139.581 80.788C139.712 79.7613 139.367 78.6693 138.545 77.512C137.985 76.7467 136.977 75.6733 135.521 74.292C133.935 72.8173 132.871 71.7253 132.329 71.016C131.321 69.6907 130.864 68.4307 130.957 67.236C131.013 66.4707 131.303 65.7707 131.825 65.136C132.367 64.5013 133.011 64.0067 133.757 63.652C134.448 63.2973 135.223 63.1387 136.081 63.176C136.94 63.2133 137.677 63.4933 138.293 64.016C138.443 64.1467 138.583 64.296 138.713 64.464C138.844 64.6133 138.956 64.7533 139.049 64.884C139.143 65.0147 139.236 65.1733 139.329 65.36L139.553 65.836C139.609 65.948 139.665 66.116 139.721 66.34C139.777 66.564 139.815 66.732 139.833 66.844C139.871 66.9373 139.908 67.1147 139.945 67.376C140.001 67.6187 140.029 67.7773 140.029 67.852C140.048 67.9267 140.067 68.104 140.085 68.384C140.123 68.6453 140.151 68.804 140.169 68.86C140.188 68.9907 140.151 69.112 140.057 69.224C139.983 69.336 139.871 69.4013 139.721 69.42C139.591 69.4387 139.469 69.4107 139.357 69.336C139.245 69.2427 139.18 69.1213 139.161 68.972ZM142.616 69.56C142.616 69.7467 142.542 70.7827 142.392 72.668C142.262 74.292 142.206 75.5707 142.224 76.504C142.243 79.584 142.784 81.5253 143.848 82.328C144.222 82.608 144.772 82.6827 145.5 82.552C146.21 82.44 146.779 81.908 147.208 80.956C147.619 80.0787 147.899 78.8933 148.048 77.4C148.16 75.9253 148.179 74.572 148.104 73.34C148.03 72.0893 147.899 71.0533 147.712 70.232C147.694 70.1013 147.722 69.98 147.796 69.868C147.871 69.7373 147.974 69.6627 148.104 69.644C148.235 69.6067 148.356 69.6253 148.468 69.7C148.599 69.7747 148.683 69.8773 148.72 70.008C148.907 70.8853 149.038 71.9773 149.112 73.284C149.187 74.572 149.168 75.9813 149.056 77.512C148.907 79.1173 148.599 80.4147 148.132 81.404C147.535 82.6547 146.714 83.3733 145.668 83.56C144.66 83.728 143.848 83.5787 143.232 83.112C141.907 82.1227 141.235 79.9293 141.216 76.532C141.198 75.524 141.254 74.208 141.384 72.584C141.534 70.7173 141.608 69.6907 141.608 69.504C141.608 69.3733 141.655 69.2613 141.748 69.168C141.86 69.0747 141.982 69.028 142.112 69.028C142.262 69.028 142.383 69.084 142.476 69.196C142.57 69.2893 142.616 69.4107 142.616 69.56ZM151.001 75.44C151.505 73.9467 152.102 72.6493 152.793 71.548C153.428 70.54 154.081 69.8493 154.753 69.476C155.649 68.972 156.508 69.056 157.329 69.728C157.926 70.1947 158.384 71.0533 158.701 72.304C158.944 73.256 159.112 74.4787 159.205 75.972C159.242 76.7187 159.261 77.5213 159.261 78.38C159.28 79.2387 159.28 80.1253 159.261 81.04C159.242 81.936 159.233 82.4867 159.233 82.692C159.233 82.8227 159.177 82.9347 159.065 83.028C158.972 83.14 158.86 83.196 158.729 83.196C158.598 83.196 158.477 83.14 158.365 83.028C158.272 82.9347 158.225 82.8227 158.225 82.692C158.225 82.4867 158.234 81.936 158.253 81.04C158.272 80.144 158.272 79.276 158.253 78.436C158.253 77.596 158.234 76.7933 158.197 76.028C158.104 74.6093 157.945 73.452 157.721 72.556C157.46 71.5293 157.124 70.848 156.713 70.512C156.228 70.1387 155.733 70.092 155.229 70.372C154.725 70.652 154.202 71.2307 153.661 72.108C153.213 72.8173 152.812 73.6107 152.457 74.488C152.102 75.3467 151.85 76.0467 151.701 76.588C151.608 76.9613 151.524 77.344 151.449 77.736C151.374 78.128 151.318 78.5667 151.281 79.052C151.244 79.5187 151.206 79.892 151.169 80.172C151.15 80.452 151.122 80.9 151.085 81.516C151.066 82.1133 151.048 82.5147 151.029 82.72C151.029 82.7947 151.02 82.8507 151.001 82.888V82.944C150.982 82.9813 150.973 83.0187 150.973 83.056C150.88 83.224 150.749 83.3173 150.581 83.336C150.338 83.3547 150.17 83.2613 150.077 83.056L150.021 82.944C150.021 82.9253 150.012 82.8973 149.993 82.86V82.524V81.208V78.744C149.993 74.7307 149.937 72.0147 149.825 70.596C149.806 70.4653 149.844 70.3533 149.937 70.26C150.03 70.148 150.142 70.0827 150.273 70.064C150.422 70.0453 150.544 70.0827 150.637 70.176C150.749 70.2693 150.814 70.3907 150.833 70.54C150.945 71.8653 151.001 73.4987 151.001 75.44ZM166.544 72.22C166.394 71.5107 165.993 70.988 165.34 70.652C164.705 70.2973 163.977 70.1573 163.156 70.232C162.334 70.3253 161.662 70.596 161.14 71.044C160.636 71.492 160.412 72.052 160.468 72.724C160.524 73.3213 160.869 73.9653 161.504 74.656C161.84 74.9733 162.596 75.608 163.772 76.56C164.257 76.952 164.658 77.288 164.976 77.568C165.274 77.848 165.592 78.212 165.928 78.66C166.282 79.0893 166.516 79.5467 166.628 80.032C166.758 80.4987 166.777 80.9933 166.684 81.516C166.534 82.2813 166.133 82.8227 165.48 83.14C164.938 83.4013 164.304 83.4667 163.576 83.336C162.885 83.2053 162.241 82.9347 161.644 82.524C161.046 82.1133 160.617 81.6093 160.356 81.012C160.318 80.8813 160.318 80.7507 160.356 80.62C160.412 80.4893 160.505 80.4053 160.636 80.368C160.766 80.312 160.897 80.312 161.028 80.368C161.158 80.4053 161.252 80.4893 161.308 80.62C161.476 81.0307 161.784 81.3947 162.232 81.712C162.698 82.0293 163.202 82.2347 163.744 82.328C164.266 82.4213 164.696 82.384 165.032 82.216C165.386 82.048 165.601 81.7587 165.676 81.348C165.825 80.6387 165.676 79.9947 165.228 79.416C164.798 78.8187 164.098 78.128 163.128 77.344C161.877 76.336 161.102 75.6733 160.804 75.356C159.982 74.4973 159.534 73.6387 159.46 72.78C159.385 71.772 159.712 70.96 160.44 70.344C161.168 69.7093 162.036 69.3453 163.044 69.252C164.07 69.14 165.022 69.3173 165.9 69.784C166.777 70.2507 167.328 70.988 167.552 71.996C167.57 72.1267 167.542 72.2573 167.468 72.388C167.393 72.5 167.29 72.5747 167.16 72.612C167.029 72.6307 166.898 72.6027 166.768 72.528C166.656 72.4533 166.581 72.3507 166.544 72.22ZM169.308 75.216C170.204 75.5333 171.044 75.5053 171.828 75.132C172.649 74.7213 173.275 74.04 173.704 73.088C174.115 72.192 174.217 71.4173 174.012 70.764C173.825 70.1853 173.377 69.9427 172.668 70.036C171.735 70.148 170.923 70.876 170.232 72.22C169.803 73.0973 169.495 74.096 169.308 75.216ZM168.328 74.992C168.533 73.7787 168.869 72.7053 169.336 71.772C170.176 70.1107 171.249 69.196 172.556 69.028C173.172 68.9533 173.685 69.0467 174.096 69.308C174.525 69.5693 174.824 69.952 174.992 70.456C175.272 71.352 175.151 72.3693 174.628 73.508C174.087 74.684 173.303 75.524 172.276 76.028C171.305 76.4947 170.279 76.5693 169.196 76.252C169.177 76.42 169.168 76.5973 169.168 76.784C169.112 78.5387 169.401 79.9387 170.036 80.984C170.708 82.0667 171.679 82.5053 172.948 82.3C173.676 82.188 174.357 81.852 174.992 81.292C175.627 80.732 176.168 80.0507 176.616 79.248C176.691 79.136 176.793 79.0613 176.924 79.024C177.055 78.9867 177.176 79.0053 177.288 79.08C177.419 79.136 177.503 79.2293 177.54 79.36C177.577 79.4907 177.568 79.6213 177.512 79.752C176.989 80.6293 176.355 81.404 175.608 82.076C174.861 82.748 174.031 83.1587 173.116 83.308C171.38 83.5693 170.064 82.972 169.168 81.516C168.421 80.3027 168.085 78.716 168.16 76.756C168.16 76.4387 168.179 76.1213 168.216 75.804C168.029 75.636 167.992 75.44 168.104 75.216C168.16 75.104 168.235 75.0293 168.328 74.992ZM179.338 68.412C178.797 68.412 178.265 68.4493 177.742 68.524C177.611 68.5427 177.49 68.5147 177.378 68.44C177.266 68.3467 177.201 68.2347 177.182 68.104C177.163 67.9547 177.201 67.824 177.294 67.712C177.369 67.6 177.481 67.5347 177.63 67.516C178.209 67.4413 178.787 67.404 179.366 67.404C179.459 65.724 179.515 64.5013 179.534 63.736C179.534 63.6053 179.581 63.4933 179.674 63.4C179.786 63.3067 179.907 63.26 180.038 63.26C180.187 63.26 180.309 63.316 180.402 63.428C180.495 63.5213 180.542 63.6427 180.542 63.792C180.523 64.576 180.467 65.78 180.374 67.404C180.915 67.4227 181.541 67.46 182.25 67.516C182.399 67.5347 182.521 67.6 182.614 67.712C182.707 67.8053 182.745 67.9267 182.726 68.076C182.707 68.2067 182.642 68.3187 182.53 68.412C182.437 68.5053 182.325 68.5427 182.194 68.524C181.466 68.468 180.85 68.4307 180.346 68.412C180.103 73.6013 180.15 77.5307 180.486 80.2C180.617 81.2453 180.962 82.0107 181.522 82.496C182.082 82.9813 182.763 82.9907 183.566 82.524C183.678 82.468 183.799 82.4587 183.93 82.496C184.079 82.5333 184.182 82.608 184.238 82.72C184.313 82.832 184.331 82.9533 184.294 83.084C184.257 83.2333 184.182 83.3453 184.07 83.42C182.857 84.1107 181.783 84.0547 180.85 83.252C180.103 82.5987 179.646 81.6187 179.478 80.312C179.142 77.6053 179.095 73.6387 179.338 68.412Z" fill="white"/>
<defs>
<linearGradient id="paint0_linear_54_4" x1="10.2367" y1="127.375" x2="-1.16832" y2="127.375" gradientUnits="userSpaceOnUse">
<stop stop-color="white"/>
<stop offset="1" stop-color="#757575" stop-opacity="0"/>
</linearGradient>
</defs>
</svg>
