<svg width="272" height="450" viewBox="0 0 272 450" fill="none" xmlns="http://www.w3.org/2000/svg">
<g filter="url(#filter0_iii_81_1814)">
<path fill-rule="evenodd" clip-rule="evenodd" d="M229.04 7.5H42.96C33.9105 7.5 27.7182 7.51004 22.9851 8.01659C18.3893 8.50844 16.0552 9.39741 14.4067 10.5755C12.9272 11.6327 11.6327 12.9272 10.5755 14.4067C9.39741 16.0552 8.50844 18.3893 8.01659 22.9851C7.51004 27.7182 7.5 33.9105 7.5 42.96V406.183C7.5 415.232 7.51004 421.425 8.01659 426.158C8.50844 430.754 9.39741 433.088 10.5755 434.736C11.6327 436.216 12.9272 437.51 14.4067 438.567C16.0552 439.745 18.3893 440.634 22.9851 441.126C27.7182 441.633 33.9105 441.643 42.96 441.643H229.04C238.09 441.643 244.282 441.633 249.015 441.126C253.611 440.634 255.945 439.745 257.593 438.567C259.073 437.51 260.367 436.216 261.425 434.736C262.603 433.088 263.492 430.754 263.983 426.158C264.49 421.425 264.5 415.232 264.5 406.183V42.96C264.5 33.9105 264.49 27.7182 263.983 22.9851C263.492 18.3893 262.603 16.0552 261.425 14.4067C260.367 12.9272 259.073 11.6327 257.593 10.5755C255.945 9.39741 253.611 8.50844 249.015 8.01659C244.282 7.51004 238.09 7.5 229.04 7.5ZM4.4734 10.0461C0 16.306 0 25.1907 0 42.96V406.183C0 423.952 0 432.837 4.4734 439.097C6.0112 441.249 7.89414 443.132 10.0461 444.669C16.306 449.143 25.1907 449.143 42.96 449.143H229.04C246.809 449.143 255.694 449.143 261.954 444.669C264.106 443.132 265.989 441.249 267.527 439.097C272 432.837 272 423.952 272 406.183V42.96C272 25.1907 272 16.306 267.527 10.0461C265.989 7.89414 264.106 6.0112 261.954 4.4734C255.694 0 246.809 0 229.04 0H42.96C25.1907 0 16.306 0 10.0461 4.4734C7.89414 6.0112 6.0112 7.89414 4.4734 10.0461Z" fill="#7E8489"/>
<path fill-rule="evenodd" clip-rule="evenodd" d="M229.04 7.5H42.96C33.9105 7.5 27.7182 7.51004 22.9851 8.01659C18.3893 8.50844 16.0552 9.39741 14.4067 10.5755C12.9272 11.6327 11.6327 12.9272 10.5755 14.4067C9.39741 16.0552 8.50844 18.3893 8.01659 22.9851C7.51004 27.7182 7.5 33.9105 7.5 42.96V406.183C7.5 415.232 7.51004 421.425 8.01659 426.158C8.50844 430.754 9.39741 433.088 10.5755 434.736C11.6327 436.216 12.9272 437.51 14.4067 438.567C16.0552 439.745 18.3893 440.634 22.9851 441.126C27.7182 441.633 33.9105 441.643 42.96 441.643H229.04C238.09 441.643 244.282 441.633 249.015 441.126C253.611 440.634 255.945 439.745 257.593 438.567C259.073 437.51 260.367 436.216 261.425 434.736C262.603 433.088 263.492 430.754 263.983 426.158C264.49 421.425 264.5 415.232 264.5 406.183V42.96C264.5 33.9105 264.49 27.7182 263.983 22.9851C263.492 18.3893 262.603 16.0552 261.425 14.4067C260.367 12.9272 259.073 11.6327 257.593 10.5755C255.945 9.39741 253.611 8.50844 249.015 8.01659C244.282 7.51004 238.09 7.5 229.04 7.5ZM4.4734 10.0461C0 16.306 0 25.1907 0 42.96V406.183C0 423.952 0 432.837 4.4734 439.097C6.0112 441.249 7.89414 443.132 10.0461 444.669C16.306 449.143 25.1907 449.143 42.96 449.143H229.04C246.809 449.143 255.694 449.143 261.954 444.669C264.106 443.132 265.989 441.249 267.527 439.097C272 432.837 272 423.952 272 406.183V42.96C272 25.1907 272 16.306 267.527 10.0461C265.989 7.89414 264.106 6.0112 261.954 4.4734C255.694 0 246.809 0 229.04 0H42.96C25.1907 0 16.306 0 10.0461 4.4734C7.89414 6.0112 6.0112 7.89414 4.4734 10.0461Z" fill="url(#paint0_radial_81_1814)"/>
<path fill-rule="evenodd" clip-rule="evenodd" d="M229.04 7.5H42.96C33.9105 7.5 27.7182 7.51004 22.9851 8.01659C18.3893 8.50844 16.0552 9.39741 14.4067 10.5755C12.9272 11.6327 11.6327 12.9272 10.5755 14.4067C9.39741 16.0552 8.50844 18.3893 8.01659 22.9851C7.51004 27.7182 7.5 33.9105 7.5 42.96V406.183C7.5 415.232 7.51004 421.425 8.01659 426.158C8.50844 430.754 9.39741 433.088 10.5755 434.736C11.6327 436.216 12.9272 437.51 14.4067 438.567C16.0552 439.745 18.3893 440.634 22.9851 441.126C27.7182 441.633 33.9105 441.643 42.96 441.643H229.04C238.09 441.643 244.282 441.633 249.015 441.126C253.611 440.634 255.945 439.745 257.593 438.567C259.073 437.51 260.367 436.216 261.425 434.736C262.603 433.088 263.492 430.754 263.983 426.158C264.49 421.425 264.5 415.232 264.5 406.183V42.96C264.5 33.9105 264.49 27.7182 263.983 22.9851C263.492 18.3893 262.603 16.0552 261.425 14.4067C260.367 12.9272 259.073 11.6327 257.593 10.5755C255.945 9.39741 253.611 8.50844 249.015 8.01659C244.282 7.51004 238.09 7.5 229.04 7.5ZM4.4734 10.0461C0 16.306 0 25.1907 0 42.96V406.183C0 423.952 0 432.837 4.4734 439.097C6.0112 441.249 7.89414 443.132 10.0461 444.669C16.306 449.143 25.1907 449.143 42.96 449.143H229.04C246.809 449.143 255.694 449.143 261.954 444.669C264.106 443.132 265.989 441.249 267.527 439.097C272 432.837 272 423.952 272 406.183V42.96C272 25.1907 272 16.306 267.527 10.0461C265.989 7.89414 264.106 6.0112 261.954 4.4734C255.694 0 246.809 0 229.04 0H42.96C25.1907 0 16.306 0 10.0461 4.4734C7.89414 6.0112 6.0112 7.89414 4.4734 10.0461Z" fill="url(#paint1_linear_81_1814)" fill-opacity="0.5"/>
<path fill-rule="evenodd" clip-rule="evenodd" d="M229.04 7.5H42.96C33.9105 7.5 27.7182 7.51004 22.9851 8.01659C18.3893 8.50844 16.0552 9.39741 14.4067 10.5755C12.9272 11.6327 11.6327 12.9272 10.5755 14.4067C9.39741 16.0552 8.50844 18.3893 8.01659 22.9851C7.51004 27.7182 7.5 33.9105 7.5 42.96V406.183C7.5 415.232 7.51004 421.425 8.01659 426.158C8.50844 430.754 9.39741 433.088 10.5755 434.736C11.6327 436.216 12.9272 437.51 14.4067 438.567C16.0552 439.745 18.3893 440.634 22.9851 441.126C27.7182 441.633 33.9105 441.643 42.96 441.643H229.04C238.09 441.643 244.282 441.633 249.015 441.126C253.611 440.634 255.945 439.745 257.593 438.567C259.073 437.51 260.367 436.216 261.425 434.736C262.603 433.088 263.492 430.754 263.983 426.158C264.49 421.425 264.5 415.232 264.5 406.183V42.96C264.5 33.9105 264.49 27.7182 263.983 22.9851C263.492 18.3893 262.603 16.0552 261.425 14.4067C260.367 12.9272 259.073 11.6327 257.593 10.5755C255.945 9.39741 253.611 8.50844 249.015 8.01659C244.282 7.51004 238.09 7.5 229.04 7.5ZM4.4734 10.0461C0 16.306 0 25.1907 0 42.96V406.183C0 423.952 0 432.837 4.4734 439.097C6.0112 441.249 7.89414 443.132 10.0461 444.669C16.306 449.143 25.1907 449.143 42.96 449.143H229.04C246.809 449.143 255.694 449.143 261.954 444.669C264.106 443.132 265.989 441.249 267.527 439.097C272 432.837 272 423.952 272 406.183V42.96C272 25.1907 272 16.306 267.527 10.0461C265.989 7.89414 264.106 6.0112 261.954 4.4734C255.694 0 246.809 0 229.04 0H42.96C25.1907 0 16.306 0 10.0461 4.4734C7.89414 6.0112 6.0112 7.89414 4.4734 10.0461Z" fill="url(#paint2_linear_81_1814)"/>
</g>
<path d="M229.04 7.94752H42.96C33.9217 7.94752 27.698 7.95682 22.9323 8.46329C18.295 8.95612 15.8645 9.85391 14.1173 11.0937C12.593 12.1753 11.2591 13.4999 10.1696 15.0138C8.92038 16.7497 8.01589 19.1647 7.51947 23.7707C7.00936 28.5037 7 34.6845 7 43.6594V404.341C7 413.315 7.00936 419.496 7.51947 424.229C8.01589 428.835 8.92038 431.25 10.1696 432.986C11.2591 434.5 12.593 435.825 14.1173 436.906C15.8645 438.146 18.295 439.044 22.9323 439.537C27.698 440.043 33.9217 440.052 42.96 440.052H229.04C238.078 440.052 244.302 440.043 249.068 439.537C253.705 439.044 256.136 438.146 257.883 436.906C259.407 435.825 260.741 434.5 261.83 432.986C263.08 431.25 263.984 428.835 264.481 424.229C264.991 419.496 265 413.315 265 404.341V43.6594C265 34.6845 264.991 28.5037 264.481 23.7707C263.984 19.1647 263.08 16.7497 261.83 15.0138C260.741 13.4999 259.407 12.1753 257.883 11.0937C256.136 9.85391 253.705 8.95612 249.068 8.46329C244.302 7.95682 238.078 7.94752 229.04 7.94752ZM0.5 43.6594C0.5 34.8258 0.500679 28.2406 1.0563 23.0853C1.6109 17.9394 2.71372 14.277 4.87923 11.2678C6.38477 9.17579 8.22833 7.34509 10.3354 5.84986C13.3668 3.69878 17.0565 2.60331 22.2398 2.05246C27.4321 1.50066 34.0644 1.5 42.96 1.5H229.04C237.936 1.5 244.568 1.50066 249.76 2.05246C254.943 2.60331 258.633 3.69878 261.665 5.84986C263.772 7.34509 265.615 9.17579 267.121 11.2678C269.286 14.277 270.389 17.9394 270.944 23.0853C271.499 28.2406 271.5 34.8258 271.5 43.6594V404.341C271.5 413.174 271.499 419.759 270.944 424.915C270.389 430.061 269.286 433.723 267.121 436.732C265.615 438.824 263.772 440.655 261.665 442.15C258.633 444.301 254.943 445.397 249.76 445.948C244.568 446.499 237.936 446.5 229.04 446.5H42.96C34.0644 446.5 27.4321 446.499 22.2398 445.948C17.0565 445.397 13.3668 444.301 10.3354 442.15C8.22833 440.655 6.38477 438.824 4.87923 436.732C2.71372 433.723 1.6109 430.061 1.0563 424.915C0.500679 419.759 0.5 413.174 0.5 404.341V43.6594Z" stroke="url(#paint3_radial_81_1814)"/>
<path d="M229.04 7.94752H42.96C33.9217 7.94752 27.698 7.95682 22.9323 8.46329C18.295 8.95612 15.8645 9.85391 14.1173 11.0937C12.593 12.1753 11.2591 13.4999 10.1696 15.0138C8.92038 16.7497 8.01589 19.1647 7.51947 23.7707C7.00936 28.5037 7 34.6845 7 43.6594V404.341C7 413.315 7.00936 419.496 7.51947 424.229C8.01589 428.835 8.92038 431.25 10.1696 432.986C11.2591 434.5 12.593 435.825 14.1173 436.906C15.8645 438.146 18.295 439.044 22.9323 439.537C27.698 440.043 33.9217 440.052 42.96 440.052H229.04C238.078 440.052 244.302 440.043 249.068 439.537C253.705 439.044 256.136 438.146 257.883 436.906C259.407 435.825 260.741 434.5 261.83 432.986C263.08 431.25 263.984 428.835 264.481 424.229C264.991 419.496 265 413.315 265 404.341V43.6594C265 34.6845 264.991 28.5037 264.481 23.7707C263.984 19.1647 263.08 16.7497 261.83 15.0138C260.741 13.4999 259.407 12.1753 257.883 11.0937C256.136 9.85391 253.705 8.95612 249.068 8.46329C244.302 7.95682 238.078 7.94752 229.04 7.94752ZM0.5 43.6594C0.5 34.8258 0.500679 28.2406 1.0563 23.0853C1.6109 17.9394 2.71372 14.277 4.87923 11.2678C6.38477 9.17579 8.22833 7.34509 10.3354 5.84986C13.3668 3.69878 17.0565 2.60331 22.2398 2.05246C27.4321 1.50066 34.0644 1.5 42.96 1.5H229.04C237.936 1.5 244.568 1.50066 249.76 2.05246C254.943 2.60331 258.633 3.69878 261.665 5.84986C263.772 7.34509 265.615 9.17579 267.121 11.2678C269.286 14.277 270.389 17.9394 270.944 23.0853C271.499 28.2406 271.5 34.8258 271.5 43.6594V404.341C271.5 413.174 271.499 419.759 270.944 424.915C270.389 430.061 269.286 433.723 267.121 436.732C265.615 438.824 263.772 440.655 261.665 442.15C258.633 444.301 254.943 445.397 249.76 445.948C244.568 446.499 237.936 446.5 229.04 446.5H42.96C34.0644 446.5 27.4321 446.499 22.2398 445.948C17.0565 445.397 13.3668 444.301 10.3354 442.15C8.22833 440.655 6.38477 438.824 4.87923 436.732C2.71372 433.723 1.6109 430.061 1.0563 424.915C0.500679 419.759 0.5 413.174 0.5 404.341V43.6594Z" stroke="url(#paint4_radial_81_1814)" stroke-opacity="0.5"/>
<path d="M229.04 7.94752H42.96C33.9217 7.94752 27.698 7.95682 22.9323 8.46329C18.295 8.95612 15.8645 9.85391 14.1173 11.0937C12.593 12.1753 11.2591 13.4999 10.1696 15.0138C8.92038 16.7497 8.01589 19.1647 7.51947 23.7707C7.00936 28.5037 7 34.6845 7 43.6594V404.341C7 413.315 7.00936 419.496 7.51947 424.229C8.01589 428.835 8.92038 431.25 10.1696 432.986C11.2591 434.5 12.593 435.825 14.1173 436.906C15.8645 438.146 18.295 439.044 22.9323 439.537C27.698 440.043 33.9217 440.052 42.96 440.052H229.04C238.078 440.052 244.302 440.043 249.068 439.537C253.705 439.044 256.136 438.146 257.883 436.906C259.407 435.825 260.741 434.5 261.83 432.986C263.08 431.25 263.984 428.835 264.481 424.229C264.991 419.496 265 413.315 265 404.341V43.6594C265 34.6845 264.991 28.5037 264.481 23.7707C263.984 19.1647 263.08 16.7497 261.83 15.0138C260.741 13.4999 259.407 12.1753 257.883 11.0937C256.136 9.85391 253.705 8.95612 249.068 8.46329C244.302 7.95682 238.078 7.94752 229.04 7.94752ZM0.5 43.6594C0.5 34.8258 0.500679 28.2406 1.0563 23.0853C1.6109 17.9394 2.71372 14.277 4.87923 11.2678C6.38477 9.17579 8.22833 7.34509 10.3354 5.84986C13.3668 3.69878 17.0565 2.60331 22.2398 2.05246C27.4321 1.50066 34.0644 1.5 42.96 1.5H229.04C237.936 1.5 244.568 1.50066 249.76 2.05246C254.943 2.60331 258.633 3.69878 261.665 5.84986C263.772 7.34509 265.615 9.17579 267.121 11.2678C269.286 14.277 270.389 17.9394 270.944 23.0853C271.499 28.2406 271.5 34.8258 271.5 43.6594V404.341C271.5 413.174 271.499 419.759 270.944 424.915C270.389 430.061 269.286 433.723 267.121 436.732C265.615 438.824 263.772 440.655 261.665 442.15C258.633 444.301 254.943 445.397 249.76 445.948C244.568 446.499 237.936 446.5 229.04 446.5H42.96C34.0644 446.5 27.4321 446.499 22.2398 445.948C17.0565 445.397 13.3668 444.301 10.3354 442.15C8.22833 440.655 6.38477 438.824 4.87923 436.732C2.71372 433.723 1.6109 430.061 1.0563 424.915C0.500679 419.759 0.5 413.174 0.5 404.341V43.6594Z" stroke="url(#paint5_linear_81_1814)" stroke-opacity="0.2"/>
<path d="M271 405C271 422.786 271 431.679 266.627 437.945C265.123 440.099 263.282 441.983 261.178 443.522C260.052 444.347 258.839 445.019 257.5 445.568" stroke="url(#paint6_linear_81_1814)" stroke-width="2"/>
<g filter="url(#filter1_f_81_1814)">
<path d="M250 443C251.63 442.473 253.108 441.826 254.48 441.034C257.043 439.554 259.285 437.742 261.116 435.671C264.118 432.276 265.428 428.079 266 422" stroke="url(#paint7_radial_81_1814)" stroke-width="5"/>
</g>
<g filter="url(#filter2_dii_81_1814)">
<rect x="5" y="5" width="262" height="437" rx="20" fill="url(#paint8_linear_81_1814)"/>
<rect x="5" y="5" width="262" height="437" rx="20" fill="url(#paint9_radial_81_1814)"/>
<rect x="5" y="5" width="262" height="437" rx="20" fill="url(#paint10_radial_81_1814)"/>
<rect x="5" y="5" width="262" height="437" rx="20" fill="url(#paint11_radial_81_1814)" fill-opacity="0.6"/>
<rect x="5" y="5" width="262" height="437" rx="20" fill="url(#paint12_linear_81_1814)" fill-opacity="0.2"/>
</g>
<g opacity="0.9" filter="url(#filter3_dii_81_1814)">
<rect x="44" y="21" width="183" height="149" rx="7" fill="url(#paint13_linear_81_1814)"/>
<rect x="44" y="21" width="183" height="149" rx="7" fill="url(#paint14_linear_81_1814)" fill-opacity="0.6"/>
</g>
<g filter="url(#filter4_ddii_81_1814)">
<mask id="path-7-inside-1_81_1814" fill="white">
<path d="M250 305C250 367.96 198.96 419 136 419C73.0395 419 22 367.96 22 305C22 242.04 73.0395 191 136 191C198.96 191 250 242.04 250 305ZM48.904 305C48.904 353.102 87.8982 392.096 136 392.096C184.102 392.096 223.096 353.102 223.096 305C223.096 256.898 184.102 217.904 136 217.904C87.8982 217.904 48.904 256.898 48.904 305Z"/>
</mask>
<path d="M250 305C250 367.96 198.96 419 136 419C73.0395 419 22 367.96 22 305C22 242.04 73.0395 191 136 191C198.96 191 250 242.04 250 305ZM48.904 305C48.904 353.102 87.8982 392.096 136 392.096C184.102 392.096 223.096 353.102 223.096 305C223.096 256.898 184.102 217.904 136 217.904C87.8982 217.904 48.904 256.898 48.904 305Z" fill="#E5E8ED"/>
<path d="M250 305C250 367.96 198.96 419 136 419C73.0395 419 22 367.96 22 305C22 242.04 73.0395 191 136 191C198.96 191 250 242.04 250 305ZM48.904 305C48.904 353.102 87.8982 392.096 136 392.096C184.102 392.096 223.096 353.102 223.096 305C223.096 256.898 184.102 217.904 136 217.904C87.8982 217.904 48.904 256.898 48.904 305Z" fill="url(#paint15_radial_81_1814)" fill-opacity="0.9"/>
<path d="M250 305C250 367.96 198.96 419 136 419C73.0395 419 22 367.96 22 305C22 242.04 73.0395 191 136 191C198.96 191 250 242.04 250 305ZM48.904 305C48.904 353.102 87.8982 392.096 136 392.096C184.102 392.096 223.096 353.102 223.096 305C223.096 256.898 184.102 217.904 136 217.904C87.8982 217.904 48.904 256.898 48.904 305Z" fill="url(#paint16_radial_81_1814)" fill-opacity="0.5"/>
<path d="M250 305C250 367.96 198.96 419 136 419C73.0395 419 22 367.96 22 305C22 242.04 73.0395 191 136 191C198.96 191 250 242.04 250 305ZM48.904 305C48.904 353.102 87.8982 392.096 136 392.096C184.102 392.096 223.096 353.102 223.096 305C223.096 256.898 184.102 217.904 136 217.904C87.8982 217.904 48.904 256.898 48.904 305Z" fill="url(#paint17_radial_81_1814)" fill-opacity="0.2"/>
<path d="M250 305C250 367.96 198.96 419 136 419C73.0395 419 22 367.96 22 305C22 242.04 73.0395 191 136 191C198.96 191 250 242.04 250 305ZM48.904 305C48.904 353.102 87.8982 392.096 136 392.096C184.102 392.096 223.096 353.102 223.096 305C223.096 256.898 184.102 217.904 136 217.904C87.8982 217.904 48.904 256.898 48.904 305Z" fill="url(#paint18_radial_81_1814)"/>
<path d="M250 305C250 367.96 198.96 419 136 419C73.0395 419 22 367.96 22 305C22 242.04 73.0395 191 136 191C198.96 191 250 242.04 250 305ZM48.904 305C48.904 353.102 87.8982 392.096 136 392.096C184.102 392.096 223.096 353.102 223.096 305C223.096 256.898 184.102 217.904 136 217.904C87.8982 217.904 48.904 256.898 48.904 305Z" stroke="url(#paint19_linear_81_1814)" stroke-opacity="0.5" stroke-width="3" mask="url(#path-7-inside-1_81_1814)"/>
</g>
<path d="M56.5 225L215.5 384" stroke="url(#paint20_linear_81_1814)" stroke-opacity="0.8"/>
<path d="M213.5 223.5L54.5 382.5" stroke="url(#paint21_linear_81_1814)" stroke-opacity="0.8"/>
<g filter="url(#filter5_ii_81_1814)">
<circle cx="136" cy="305" r="89" fill="#E0E1E3"/>
<circle cx="136" cy="305" r="89" fill="url(#paint22_radial_81_1814)" fill-opacity="0.5"/>
<circle cx="136" cy="305" r="89" fill="url(#paint23_radial_81_1814)" fill-opacity="0.2"/>
</g>
<circle cx="136" cy="305" r="88.25" stroke="url(#paint24_linear_81_1814)" stroke-width="1.5"/>
<g filter="url(#filter6_dii_81_1814)">
<circle cx="136" cy="305" r="32" fill="url(#paint25_linear_81_1814)"/>
<circle cx="136" cy="305" r="32.5" stroke="url(#paint26_linear_81_1814)"/>
<circle cx="136" cy="305" r="32.5" stroke="url(#paint27_radial_81_1814)" stroke-opacity="0.5"/>
</g>
<g style="mix-blend-mode:overlay">
<path fill-rule="evenodd" clip-rule="evenodd" d="M229.04 8.44752H42.96C33.9105 8.44752 27.7182 8.45749 22.9851 8.96049C18.3893 9.44891 16.0552 10.3317 14.4067 11.5015C12.9272 12.5513 11.6327 13.8368 10.5755 15.3059C9.39741 16.9429 8.50844 19.2606 8.01659 23.8243C7.51004 28.5242 7.5 34.6732 7.5 43.6594V404.341C7.5 413.327 7.51004 419.476 8.01659 424.176C8.50844 428.739 9.39741 431.057 10.5755 432.694C11.6327 434.163 12.9272 435.449 14.4067 436.499C16.0552 437.668 18.3893 438.551 22.9851 439.039C27.7182 439.543 33.9105 439.552 42.96 439.552H229.04C238.09 439.552 244.282 439.543 249.015 439.039C253.611 438.551 255.945 437.668 257.593 436.499C259.073 435.449 260.367 434.163 261.425 432.694C262.603 431.057 263.492 428.739 263.983 424.176C264.49 419.476 264.5 413.327 264.5 404.341V43.6594C264.5 34.6732 264.49 28.5242 263.983 23.8243C263.492 19.2606 262.603 16.9429 261.425 15.3059C260.367 13.8368 259.073 12.5513 257.593 11.5015C255.945 10.3317 253.611 9.44891 249.015 8.96049C244.282 8.45749 238.09 8.44752 229.04 8.44752ZM4.4734 10.9758C0 17.1919 0 26.0144 0 43.6594V404.341C0 421.986 0 430.808 4.4734 437.024C6.0112 439.161 7.89414 441.031 10.0461 442.558C16.306 447 25.1907 447 42.96 447H229.04C246.809 447 255.694 447 261.954 442.558C264.106 441.031 265.989 439.161 267.527 437.024C272 430.808 272 421.986 272 404.341V43.6594C272 26.0144 272 17.1919 267.527 10.9758C265.989 8.8389 264.106 6.96913 261.954 5.44209C255.694 1 246.809 1 229.04 1H42.96C25.1907 1 16.306 1 10.0461 5.44209C7.89414 6.96913 6.0112 8.8389 4.4734 10.9758Z" fill="url(#paint28_linear_81_1814)"/>
</g>
<g style="mix-blend-mode:multiply" opacity="0.2">
<path fill-rule="evenodd" clip-rule="evenodd" d="M229.04 8.44752H42.96C33.9105 8.44752 27.7182 8.45749 22.9851 8.96049C18.3893 9.44891 16.0552 10.3317 14.4067 11.5015C12.9272 12.5513 11.6327 13.8368 10.5755 15.3059C9.39741 16.9429 8.50844 19.2606 8.01659 23.8243C7.51004 28.5242 7.5 34.6732 7.5 43.6594V404.341C7.5 413.327 7.51004 419.476 8.01659 424.176C8.50844 428.739 9.39741 431.057 10.5755 432.694C11.6327 434.163 12.9272 435.449 14.4067 436.499C16.0552 437.668 18.3893 438.551 22.9851 439.039C27.7182 439.543 33.9105 439.552 42.96 439.552H229.04C238.09 439.552 244.282 439.543 249.015 439.039C253.611 438.551 255.945 437.668 257.593 436.499C259.073 435.449 260.367 434.163 261.425 432.694C262.603 431.057 263.492 428.739 263.983 424.176C264.49 419.476 264.5 413.327 264.5 404.341V43.6594C264.5 34.6732 264.49 28.5242 263.983 23.8243C263.492 19.2606 262.603 16.9429 261.425 15.3059C260.367 13.8368 259.073 12.5513 257.593 11.5015C255.945 10.3317 253.611 9.44891 249.015 8.96049C244.282 8.45749 238.09 8.44752 229.04 8.44752ZM4.4734 10.9758C0 17.1919 0 26.0144 0 43.6594V404.341C0 421.986 0 430.808 4.4734 437.024C6.0112 439.161 7.89414 441.031 10.0461 442.558C16.306 447 25.1907 447 42.96 447H229.04C246.809 447 255.694 447 261.954 442.558C264.106 441.031 265.989 439.161 267.527 437.024C272 430.808 272 421.986 272 404.341V43.6594C272 26.0144 272 17.1919 267.527 10.9758C265.989 8.8389 264.106 6.96913 261.954 5.44209C255.694 1 246.809 1 229.04 1H42.96C25.1907 1 16.306 1 10.0461 5.44209C7.89414 6.96913 6.0112 8.8389 4.4734 10.9758Z" fill="url(#paint29_linear_81_1814)"/>
</g>
<g style="mix-blend-mode:hard-light" filter="url(#filter7_f_81_1814)">
<path d="M123.832 202.036C124.124 203.945 124.406 205.827 124.698 207.682C125.285 207.592 125.862 207.51 126.428 207.429C126.187 205.573 125.934 203.691 125.692 201.782C126.309 201.708 126.926 201.635 127.552 201.562C127.765 203.481 127.967 205.346 128.169 207.185C128.756 207.113 129.333 207.049 129.91 206.977C129.774 205.466 129.628 203.938 129.501 202.383C129.477 202.125 129.393 201.886 129.279 201.666C129.145 201.436 129.002 201.234 128.82 201.077C128.628 200.903 128.406 200.764 128.155 200.679C127.924 200.594 127.664 200.554 127.406 200.586C124.919 200.896 122.442 201.242 119.956 201.606C120.384 203.868 120.831 206.076 121.268 208.258C121.825 208.15 122.401 208.051 122.978 207.952C122.636 206.098 122.304 204.217 121.982 202.309C122.599 202.218 123.215 202.127 123.832 202.036ZM133.297 203.945C134.493 203.897 135.688 203.859 136.894 203.838C136.894 203.224 136.883 202.61 136.872 201.996C136.888 201.746 136.814 201.498 136.71 201.26C136.616 201.012 136.483 200.801 136.31 200.608C136.127 200.416 135.925 200.268 135.674 200.165C135.432 200.045 135.163 200.014 134.904 200.019C134.315 200.029 133.738 200.048 133.14 200.085C132.881 200.099 132.643 200.174 132.416 200.311C132.189 200.431 132.002 200.603 131.827 200.811C131.671 201.01 131.545 201.243 131.45 201.494C131.374 201.727 131.339 201.986 131.363 202.234C131.419 203.15 131.484 204.048 131.55 204.946C131.564 205.168 131.627 205.389 131.731 205.61C131.844 205.813 131.987 206.015 132.17 206.181C132.342 206.329 132.533 206.459 132.754 206.544C132.975 206.638 133.215 206.679 133.454 206.657C134.002 206.629 134.55 206.602 135.098 206.584C135.317 206.571 135.535 206.514 135.753 206.421C135.971 206.31 136.168 206.182 136.324 206.019C136.501 205.847 136.637 205.649 136.753 205.442C136.849 205.218 136.905 204.995 136.901 204.754C136.611 204.759 136.322 204.764 136.013 204.77C136.016 204.894 135.998 205.01 135.94 205.127C135.872 205.235 135.814 205.334 135.725 205.407C135.627 205.497 135.519 205.562 135.41 205.617C135.291 205.664 135.162 205.684 135.032 205.686C134.484 205.713 133.937 205.741 133.389 205.768C133.358 205.163 133.328 204.559 133.297 203.945ZM135.044 202.927C134.446 202.955 133.839 202.983 133.251 203.011C133.22 202.371 133.188 201.722 133.157 201.064C133.765 201.035 134.372 201.007 135 200.978C135.012 201.646 135.033 202.295 135.044 202.927ZM142.463 200.109C141.225 200.051 139.998 200.001 138.761 199.969C138.741 202.239 138.72 204.438 138.687 206.565C139.265 206.582 139.864 206.607 140.443 206.633C140.501 204.807 140.568 202.937 140.624 201.014C141.243 201.047 141.861 201.072 142.49 201.106C142.394 203.021 142.297 204.909 142.2 206.744C142.789 206.788 143.368 206.84 143.957 206.892C144.06 205.368 144.173 203.817 144.285 202.258C144.29 202.009 144.266 201.751 144.172 201.503C144.098 201.264 143.974 201.035 143.801 200.834C143.638 200.632 143.436 200.457 143.214 200.328C142.983 200.198 142.732 200.122 142.463 200.109ZM147.503 207.266C148.642 207.406 149.781 207.556 150.92 207.705C151.271 205.5 151.621 203.26 151.949 200.967C151.32 200.898 150.691 200.82 150.071 200.76C149.826 202.713 149.571 204.64 149.305 206.54C148.715 206.471 148.136 206.392 147.546 206.322C147.763 204.431 147.978 202.514 148.184 200.561C147.554 200.501 146.935 200.441 146.316 200.38C146.175 202.003 146.033 203.607 145.881 205.185C145.856 205.444 145.88 205.692 145.944 205.931C146.018 206.17 146.132 206.382 146.275 206.575C146.427 206.76 146.609 206.908 146.811 207.029C147.022 207.15 147.253 207.235 147.503 207.266Z" fill="url(#paint30_linear_81_1814)"/>
<path d="M35 305L40.5 301.5V309.5L35 305V308.5L29.5 306V308.5C29.5 309.052 29.0523 309.5 28.5 309.5H28C27.4477 309.5 27 309.052 27 308.5V302.82C27 302.343 27.3365 301.933 27.8039 301.839L28.3039 301.739C28.9227 301.615 29.5 302.089 29.5 302.72V304.5L35 302V305Z" fill="#626262"/>
<path d="M236.5 304.455L232 302V308.5L236.5 305.636V308.5L242 306V308.5C242 309.052 242.448 309.5 243 309.5H243.5C244.052 309.5 244.5 309.052 244.5 308.5V302.82C244.5 302.343 244.164 301.933 243.696 301.839L243.196 301.739C242.577 301.615 242 302.089 242 302.72V304.5L236.5 302V304.455Z" fill="url(#paint31_linear_81_1814)"/>
<path d="M127.5 410.5V403C129.9 404.6 132.833 406.333 134 407L127.5 410.5Z" fill="#626262"/>
<rect x="138" y="403" width="2.5" height="8" rx="1" fill="#626262"/>
<rect x="142" y="403" width="2.5" height="8" rx="1" fill="#626262"/>
</g>
<path d="M94.349 37H93.16V26.4585H93.7255L100.192 32.3165V26.4585H101.396V37H100.845L94.349 31.1275V37ZM103.315 29.489C103.77 29.0347 104.321 28.8075 104.968 28.8075H107.317C107.955 28.8075 108.501 29.0298 108.956 29.4745C109.41 29.9192 109.637 30.4702 109.637 31.1275V34.651C109.637 35.3083 109.41 35.8593 108.956 36.304C108.521 36.768 107.975 37 107.317 37H104.968C104.359 37 103.813 36.768 103.33 36.304C102.846 35.8303 102.605 35.2793 102.605 34.651V31.1275C102.605 30.5185 102.842 29.9723 103.315 29.489ZM105.302 30.3155C105.079 30.5378 104.968 30.8085 104.968 31.1275V34.651C104.968 34.9797 105.079 35.26 105.302 35.492C105.563 35.724 105.838 35.84 106.128 35.84C106.428 35.84 106.708 35.724 106.969 35.492C107.201 35.2407 107.317 34.9603 107.317 34.651V31.1275C107.317 30.8375 107.196 30.5717 106.955 30.33C106.723 30.0787 106.447 29.953 106.128 29.953C105.829 29.953 105.553 30.0738 105.302 30.3155ZM110.846 37V28.8075H113.21V35.84H114.37C114.669 35.84 114.95 35.724 115.211 35.492C115.443 35.2407 115.559 34.9603 115.559 34.651V28.8075H117.879V35.84H119.082C119.343 35.84 119.619 35.724 119.909 35.492C120.121 35.2503 120.228 34.97 120.228 34.651V28.8075H122.591V32.998C122.591 34.0807 122.204 35.0183 121.431 35.811C120.658 36.6037 119.706 37 118.575 37H115.559V36.6375C115.104 36.8792 114.548 37 113.891 37H110.846ZM133.402 37H131.038V26.4585H135.751C136.389 26.4585 136.935 26.6857 137.389 27.14C137.844 27.5847 138.071 28.1405 138.071 28.8075V29.953C138.071 30.6103 137.844 31.1613 137.389 31.606C137.177 31.838 136.935 32.0168 136.664 32.1425C136.394 32.2585 136.089 32.3165 135.751 32.3165H133.402V37ZM133.402 27.604V31.1275H134.562C134.891 31.1275 135.171 31.0163 135.403 30.794C135.635 30.5427 135.751 30.2623 135.751 29.953V28.8075C135.751 28.5175 135.635 28.2323 135.403 27.952C135.171 27.749 134.891 27.633 134.562 27.604H133.402ZM141.643 37H139.28V26.4585H141.643V37ZM147.546 32.3165V31.1275C147.546 30.8375 147.425 30.5717 147.184 30.33C146.952 30.0787 146.676 29.953 146.357 29.953H145.197C144.53 29.953 144.139 30.3445 144.023 31.1275H142.834C143.008 29.5808 143.796 28.8075 145.197 28.8075H147.546C148.184 28.8075 148.73 29.0298 149.185 29.4745C149.639 29.9192 149.866 30.4702 149.866 31.1275V37H147.546V35.84C147.459 36.6133 147.063 37 146.357 37H145.197C144.588 37 144.042 36.768 143.559 36.304C143.075 35.8303 142.834 35.2793 142.834 34.651C142.834 34.0227 143.071 33.4765 143.544 33.0125C144.018 32.5485 144.569 32.3165 145.197 32.3165H147.546ZM147.546 33.4765H146.357C146.067 33.4765 145.792 33.5877 145.531 33.81C145.424 33.926 145.342 34.0517 145.284 34.187C145.226 34.3223 145.197 34.477 145.197 34.651C145.197 34.9797 145.308 35.26 145.531 35.492C145.792 35.724 146.067 35.84 146.357 35.84C146.657 35.84 146.937 35.724 147.198 35.492C147.43 35.2407 147.546 34.9603 147.546 34.651V33.4765ZM151.075 38.16H152.264C152.264 38.9527 152.656 39.349 153.439 39.349H154.599C154.908 39.349 155.188 39.2378 155.44 39.0155C155.672 38.7835 155.788 38.4983 155.788 38.16V35.84C155.701 36.6133 155.304 37 154.599 37H153.439C152.83 37 152.283 36.768 151.8 36.304C151.317 35.8303 151.075 35.2793 151.075 34.651V28.8075H153.439V34.651C153.439 34.9797 153.55 35.26 153.772 35.492C154.033 35.724 154.309 35.84 154.599 35.84C154.898 35.84 155.179 35.724 155.44 35.492C155.672 35.2407 155.788 34.9603 155.788 34.651V28.8075H158.108V38.16C158.108 38.8173 157.871 39.3732 157.397 39.8275C156.933 40.2915 156.397 40.5235 155.788 40.5235H153.439C152.076 40.5235 151.288 39.7357 151.075 38.16ZM161.68 27.604H159.316V26.4585H161.68V27.604ZM161.68 37H159.316V28.8075H161.68V37ZM165.234 37H162.87V28.8075H165.234V29.953C165.234 29.7887 165.263 29.634 165.321 29.489C165.389 29.344 165.48 29.2135 165.596 29.0975C165.79 28.9042 166.056 28.8075 166.394 28.8075H167.583C168.221 28.8075 168.767 29.0298 169.221 29.4745C169.676 29.9192 169.903 30.4702 169.903 31.1275V37H167.583V31.1275C167.583 30.8375 167.462 30.5717 167.22 30.33C166.988 30.0787 166.713 29.953 166.394 29.953C166.094 29.953 165.824 30.069 165.582 30.301C165.35 30.533 165.234 30.8085 165.234 31.1275V37ZM173.475 28.8075H178.144V38.16C178.144 38.8173 177.907 39.3732 177.434 39.8275C176.97 40.2915 176.433 40.5235 175.824 40.5235H173.475C172.112 40.5235 171.324 39.7357 171.112 38.16H172.301C172.301 38.9527 172.692 39.349 173.475 39.349H174.635C174.944 39.349 175.225 39.2378 175.476 39.0155C175.708 38.7835 175.824 38.4983 175.824 38.16V35.84C175.737 36.6133 175.341 37 174.635 37H173.475C172.866 37 172.32 36.768 171.837 36.304C171.353 35.8303 171.112 35.2793 171.112 34.651V31.1275C171.112 30.5185 171.344 29.982 171.808 29.518C172.272 29.0443 172.827 28.8075 173.475 28.8075ZM175.824 34.651V29.953H174.635C174.335 29.953 174.065 30.069 173.823 30.301C173.591 30.533 173.475 30.8085 173.475 31.1275V34.651C173.475 34.9797 173.586 35.26 173.809 35.492C174.07 35.724 174.345 35.84 174.635 35.84C174.935 35.84 175.215 35.724 175.476 35.492C175.708 35.2407 175.824 34.9603 175.824 34.651Z" fill="#282425"/>
<path d="M198.5 26H219.5V29.5H221.5V31.5V33.75H219.5V38H198.5V26Z" stroke="#282425"/>
<rect x="200.5" y="28" width="3.25" height="8" fill="#282425"/>
<rect x="205" y="28" width="3.25" height="8" fill="#282425"/>
<rect x="209.5" y="28" width="3.25" height="8" fill="#282425"/>
<rect x="214" y="28" width="3.25" height="8" fill="#282425"/>
<path d="M49 43L222 43" stroke="#282425" stroke-width="1.5"/>
<defs>
<filter id="filter0_iii_81_1814" x="-3" y="-2" width="276" height="452.143" filterUnits="userSpaceOnUse" color-interpolation-filters="sRGB">
<feFlood flood-opacity="0" result="BackgroundImageFix"/>
<feBlend mode="normal" in="SourceGraphic" in2="BackgroundImageFix" result="shape"/>
<feColorMatrix in="SourceAlpha" type="matrix" values="0 0 0 0 0 0 0 0 0 0 0 0 0 0 0 0 0 0 127 0" result="hardAlpha"/>
<feOffset dy="-1"/>
<feGaussianBlur stdDeviation="0.5"/>
<feComposite in2="hardAlpha" operator="arithmetic" k2="-1" k3="1"/>
<feColorMatrix type="matrix" values="0 0 0 0 0 0 0 0 0 0 0 0 0 0 0 0 0 0 0.25 0"/>
<feBlend mode="normal" in2="shape" result="effect1_innerShadow_81_1814"/>
<feColorMatrix in="SourceAlpha" type="matrix" values="0 0 0 0 0 0 0 0 0 0 0 0 0 0 0 0 0 0 127 0" result="hardAlpha"/>
<feOffset dx="1" dy="1"/>
<feGaussianBlur stdDeviation="0.5"/>
<feComposite in2="hardAlpha" operator="arithmetic" k2="-1" k3="1"/>
<feColorMatrix type="matrix" values="0 0 0 0 0 0 0 0 0 0 0 0 0 0 0 0 0 0 0.15 0"/>
<feBlend mode="normal" in2="effect1_innerShadow_81_1814" result="effect2_innerShadow_81_1814"/>
<feColorMatrix in="SourceAlpha" type="matrix" values="0 0 0 0 0 0 0 0 0 0 0 0 0 0 0 0 0 0 127 0" result="hardAlpha"/>
<feOffset dx="-3" dy="-2"/>
<feGaussianBlur stdDeviation="2"/>
<feComposite in2="hardAlpha" operator="arithmetic" k2="-1" k3="1"/>
<feColorMatrix type="matrix" values="0 0 0 0 1 0 0 0 0 1 0 0 0 0 1 0 0 0 0.25 0"/>
<feBlend mode="normal" in2="effect2_innerShadow_81_1814" result="effect3_innerShadow_81_1814"/>
</filter>
<filter id="filter1_f_81_1814" x="246.23" y="418.766" width="25.2588" height="29.6128" filterUnits="userSpaceOnUse" color-interpolation-filters="sRGB">
<feFlood flood-opacity="0" result="BackgroundImageFix"/>
<feBlend mode="normal" in="SourceGraphic" in2="BackgroundImageFix" result="shape"/>
<feGaussianBlur stdDeviation="1.5" result="effect1_foregroundBlur_81_1814"/>
</filter>
<filter id="filter2_dii_81_1814" x="5" y="-1" width="268" height="446" filterUnits="userSpaceOnUse" color-interpolation-filters="sRGB">
<feFlood flood-opacity="0" result="BackgroundImageFix"/>
<feColorMatrix in="SourceAlpha" type="matrix" values="0 0 0 0 0 0 0 0 0 0 0 0 0 0 0 0 0 0 127 0" result="hardAlpha"/>
<feOffset dx="1" dy="2"/>
<feGaussianBlur stdDeviation="0.5"/>
<feComposite in2="hardAlpha" operator="out"/>
<feColorMatrix type="matrix" values="0 0 0 0 0 0 0 0 0 0 0 0 0 0 0 0 0 0 0.15 0"/>
<feBlend mode="normal" in2="BackgroundImageFix" result="effect1_dropShadow_81_1814"/>
<feBlend mode="normal" in="SourceGraphic" in2="effect1_dropShadow_81_1814" result="shape"/>
<feColorMatrix in="SourceAlpha" type="matrix" values="0 0 0 0 0 0 0 0 0 0 0 0 0 0 0 0 0 0 127 0" result="hardAlpha"/>
<feMorphology radius="3" operator="dilate" in="SourceAlpha" result="effect2_innerShadow_81_1814"/>
<feOffset dx="7" dy="-10"/>
<feGaussianBlur stdDeviation="4.5"/>
<feComposite in2="hardAlpha" operator="arithmetic" k2="-1" k3="1"/>
<feColorMatrix type="matrix" values="0 0 0 0 0.797535 0 0 0 0 0.827934 0 0 0 0 0.858333 0 0 0 1 0"/>
<feBlend mode="normal" in2="shape" result="effect2_innerShadow_81_1814"/>
<feColorMatrix in="SourceAlpha" type="matrix" values="0 0 0 0 0 0 0 0 0 0 0 0 0 0 0 0 0 0 127 0" result="hardAlpha"/>
<feOffset dx="2" dy="-3"/>
<feGaussianBlur stdDeviation="2"/>
<feComposite in2="hardAlpha" operator="arithmetic" k2="-1" k3="1"/>
<feColorMatrix type="matrix" values="0 0 0 0 1 0 0 0 0 1 0 0 0 0 1 0 0 0 0.25 0"/>
<feBlend mode="normal" in2="effect2_innerShadow_81_1814" result="effect3_innerShadow_81_1814"/>
</filter>
<filter id="filter3_dii_81_1814" x="40" y="20" width="191" height="158" filterUnits="userSpaceOnUse" color-interpolation-filters="sRGB">
<feFlood flood-opacity="0" result="BackgroundImageFix"/>
<feColorMatrix in="SourceAlpha" type="matrix" values="0 0 0 0 0 0 0 0 0 0 0 0 0 0 0 0 0 0 127 0" result="hardAlpha"/>
<feOffset dy="4"/>
<feGaussianBlur stdDeviation="2"/>
<feComposite in2="hardAlpha" operator="out"/>
<feColorMatrix type="matrix" values="0 0 0 0 1 0 0 0 0 1 0 0 0 0 1 0 0 0 0.25 0"/>
<feBlend mode="normal" in2="BackgroundImageFix" result="effect1_dropShadow_81_1814"/>
<feBlend mode="normal" in="SourceGraphic" in2="effect1_dropShadow_81_1814" result="shape"/>
<feColorMatrix in="SourceAlpha" type="matrix" values="0 0 0 0 0 0 0 0 0 0 0 0 0 0 0 0 0 0 127 0" result="hardAlpha"/>
<feOffset dy="1"/>
<feGaussianBlur stdDeviation="3.5"/>
<feComposite in2="hardAlpha" operator="arithmetic" k2="-1" k3="1"/>
<feColorMatrix type="matrix" values="0 0 0 0 0 0 0 0 0 0 0 0 0 0 0 0 0 0 0.65 0"/>
<feBlend mode="normal" in2="shape" result="effect2_innerShadow_81_1814"/>
<feColorMatrix in="SourceAlpha" type="matrix" values="0 0 0 0 0 0 0 0 0 0 0 0 0 0 0 0 0 0 127 0" result="hardAlpha"/>
<feOffset dy="-1"/>
<feGaussianBlur stdDeviation="1.5"/>
<feComposite in2="hardAlpha" operator="arithmetic" k2="-1" k3="1"/>
<feColorMatrix type="matrix" values="0 0 0 0 0 0 0 0 0 0 0 0 0 0 0 0 0 0 0.35 0"/>
<feBlend mode="normal" in2="effect2_innerShadow_81_1814" result="effect3_innerShadow_81_1814"/>
</filter>
<filter id="filter4_ddii_81_1814" x="16" y="178" width="240" height="248" filterUnits="userSpaceOnUse" color-interpolation-filters="sRGB">
<feFlood flood-opacity="0" result="BackgroundImageFix"/>
<feColorMatrix in="SourceAlpha" type="matrix" values="0 0 0 0 0 0 0 0 0 0 0 0 0 0 0 0 0 0 127 0" result="hardAlpha"/>
<feOffset dy="4"/>
<feGaussianBlur stdDeviation="1.5"/>
<feComposite in2="hardAlpha" operator="out"/>
<feColorMatrix type="matrix" values="0 0 0 0 1 0 0 0 0 1 0 0 0 0 1 0 0 0 0.25 0"/>
<feBlend mode="normal" in2="BackgroundImageFix" result="effect1_dropShadow_81_1814"/>
<feColorMatrix in="SourceAlpha" type="matrix" values="0 0 0 0 0 0 0 0 0 0 0 0 0 0 0 0 0 0 127 0" result="hardAlpha"/>
<feOffset dy="-7"/>
<feGaussianBlur stdDeviation="3"/>
<feComposite in2="hardAlpha" operator="out"/>
<feColorMatrix type="matrix" values="0 0 0 0 1 0 0 0 0 1 0 0 0 0 1 0 0 0 0.25 0"/>
<feBlend mode="normal" in2="effect1_dropShadow_81_1814" result="effect2_dropShadow_81_1814"/>
<feBlend mode="normal" in="SourceGraphic" in2="effect2_dropShadow_81_1814" result="shape"/>
<feColorMatrix in="SourceAlpha" type="matrix" values="0 0 0 0 0 0 0 0 0 0 0 0 0 0 0 0 0 0 127 0" result="hardAlpha"/>
<feOffset dy="7"/>
<feGaussianBlur stdDeviation="4"/>
<feComposite in2="hardAlpha" operator="arithmetic" k2="-1" k3="1"/>
<feColorMatrix type="matrix" values="0 0 0 0 1 0 0 0 0 1 0 0 0 0 1 0 0 0 0.55 0"/>
<feBlend mode="normal" in2="shape" result="effect3_innerShadow_81_1814"/>
<feColorMatrix in="SourceAlpha" type="matrix" values="0 0 0 0 0 0 0 0 0 0 0 0 0 0 0 0 0 0 127 0" result="hardAlpha"/>
<feMorphology radius="2" operator="erode" in="SourceAlpha" result="effect4_innerShadow_81_1814"/>
<feOffset dx="5" dy="-5"/>
<feGaussianBlur stdDeviation="5.5"/>
<feComposite in2="hardAlpha" operator="arithmetic" k2="-1" k3="1"/>
<feColorMatrix type="matrix" values="0 0 0 0 0.5925 0 0 0 0 0.630119 0 0 0 0 0.658333 0 0 0 0.8 0"/>
<feBlend mode="normal" in2="effect3_innerShadow_81_1814" result="effect4_innerShadow_81_1814"/>
</filter>
<filter id="filter5_ii_81_1814" x="47" y="204" width="195" height="190" filterUnits="userSpaceOnUse" color-interpolation-filters="sRGB">
<feFlood flood-opacity="0" result="BackgroundImageFix"/>
<feBlend mode="normal" in="SourceGraphic" in2="BackgroundImageFix" result="shape"/>
<feColorMatrix in="SourceAlpha" type="matrix" values="0 0 0 0 0 0 0 0 0 0 0 0 0 0 0 0 0 0 127 0" result="hardAlpha"/>
<feOffset dx="17" dy="-12"/>
<feGaussianBlur stdDeviation="35"/>
<feComposite in2="hardAlpha" operator="arithmetic" k2="-1" k3="1"/>
<feColorMatrix type="matrix" values="0 0 0 0 0.9375 0 0 0 0 0.9375 0 0 0 0 0.9375 0 0 0 0.5 0"/>
<feBlend mode="normal" in2="shape" result="effect1_innerShadow_81_1814"/>
<feColorMatrix in="SourceAlpha" type="matrix" values="0 0 0 0 0 0 0 0 0 0 0 0 0 0 0 0 0 0 127 0" result="hardAlpha"/>
<feOffset dx="2" dy="-3"/>
<feGaussianBlur stdDeviation="0.5"/>
<feComposite in2="hardAlpha" operator="arithmetic" k2="-1" k3="1"/>
<feColorMatrix type="matrix" values="0 0 0 0 1 0 0 0 0 1 0 0 0 0 1 0 0 0 0.45 0"/>
<feBlend mode="normal" in2="effect1_innerShadow_81_1814" result="effect2_innerShadow_81_1814"/>
</filter>
<filter id="filter6_dii_81_1814" x="100" y="268" width="77" height="78" filterUnits="userSpaceOnUse" color-interpolation-filters="sRGB">
<feFlood flood-opacity="0" result="BackgroundImageFix"/>
<feColorMatrix in="SourceAlpha" type="matrix" values="0 0 0 0 0 0 0 0 0 0 0 0 0 0 0 0 0 0 127 0" result="hardAlpha"/>
<feMorphology radius="1" operator="dilate" in="SourceAlpha" result="effect1_dropShadow_81_1814"/>
<feOffset/>
<feGaussianBlur stdDeviation="1"/>
<feComposite in2="hardAlpha" operator="out"/>
<feColorMatrix type="matrix" values="0 0 0 0 1 0 0 0 0 1 0 0 0 0 1 0 0 0 0.55 0"/>
<feBlend mode="normal" in2="BackgroundImageFix" result="effect1_dropShadow_81_1814"/>
<feBlend mode="normal" in="SourceGraphic" in2="effect1_dropShadow_81_1814" result="shape"/>
<feColorMatrix in="SourceAlpha" type="matrix" values="0 0 0 0 0 0 0 0 0 0 0 0 0 0 0 0 0 0 127 0" result="hardAlpha"/>
<feOffset dx="-2" dy="-8"/>
<feGaussianBlur stdDeviation="2"/>
<feComposite in2="hardAlpha" operator="arithmetic" k2="-1" k3="1"/>
<feColorMatrix type="matrix" values="0 0 0 0 0.9375 0 0 0 0 0.9375 0 0 0 0 0.9375 0 0 0 1 0"/>
<feBlend mode="normal" in2="shape" result="effect2_innerShadow_81_1814"/>
<feColorMatrix in="SourceAlpha" type="matrix" values="0 0 0 0 0 0 0 0 0 0 0 0 0 0 0 0 0 0 127 0" result="hardAlpha"/>
<feOffset dx="8" dy="31"/>
<feGaussianBlur stdDeviation="4"/>
<feComposite in2="hardAlpha" operator="arithmetic" k2="-1" k3="1"/>
<feColorMatrix type="matrix" values="0 0 0 0 0.882353 0 0 0 0 0.886275 0 0 0 0 0.894118 0 0 0 1 0"/>
<feBlend mode="normal" in2="effect2_innerShadow_81_1814" result="effect3_innerShadow_81_1814"/>
</filter>
<filter id="filter7_f_81_1814" x="26.5" y="199.469" width="218.5" height="212.031" filterUnits="userSpaceOnUse" color-interpolation-filters="sRGB">
<feFlood flood-opacity="0" result="BackgroundImageFix"/>
<feBlend mode="normal" in="SourceGraphic" in2="BackgroundImageFix" result="shape"/>
<feGaussianBlur stdDeviation="0.25" result="effect1_foregroundBlur_81_1814"/>
</filter>
<radialGradient id="paint0_radial_81_1814" cx="0" cy="0" r="1" gradientUnits="userSpaceOnUse" gradientTransform="translate(264 445) rotate(176.186) scale(60.1332 19.99)">
<stop offset="0.307292" stop-color="white" stop-opacity="0.51"/>
<stop offset="0.369792" stop-color="white" stop-opacity="0.33"/>
<stop offset="0.619792" stop-color="white" stop-opacity="0.14"/>
<stop offset="0.75" stop-color="white" stop-opacity="0.23"/>
<stop offset="1" stop-color="white" stop-opacity="0"/>
</radialGradient>
<linearGradient id="paint1_linear_81_1814" x1="272" y1="397" x2="136" y2="449.143" gradientUnits="userSpaceOnUse">
<stop stop-color="white"/>
<stop offset="1" stop-color="white" stop-opacity="0"/>
</linearGradient>
<linearGradient id="paint2_linear_81_1814" x1="136" y1="0" x2="46.5" y2="45.5" gradientUnits="userSpaceOnUse">
<stop offset="0.922871" stop-color="#BFC3CC"/>
<stop offset="0.963345" stop-color="#BFC3CC" stop-opacity="0"/>
</linearGradient>
<radialGradient id="paint3_radial_81_1814" cx="0" cy="0" r="1" gradientUnits="userSpaceOnUse" gradientTransform="translate(211 462) rotate(-168.69) scale(76.4853 46.6457)">
<stop stop-color="white"/>
<stop offset="1" stop-color="white" stop-opacity="0"/>
</radialGradient>
<radialGradient id="paint4_radial_81_1814" cx="0" cy="0" r="1" gradientUnits="userSpaceOnUse" gradientTransform="translate(23 444.5) rotate(2.75249) scale(52.0601 31.7496)">
<stop/>
<stop offset="1" stop-opacity="0"/>
</radialGradient>
<linearGradient id="paint5_linear_81_1814" x1="136" y1="1" x2="136" y2="447" gradientUnits="userSpaceOnUse">
<stop stop-color="white"/>
<stop offset="1" stop-color="white" stop-opacity="0"/>
</linearGradient>
<linearGradient id="paint6_linear_81_1814" x1="272" y1="420.5" x2="252" y2="448" gradientUnits="userSpaceOnUse">
<stop stop-color="white" stop-opacity="0"/>
<stop offset="1" stop-color="white"/>
</linearGradient>
<radialGradient id="paint7_radial_81_1814" cx="0" cy="0" r="1" gradientUnits="userSpaceOnUse" gradientTransform="translate(259 437.5) rotate(-114.342) scale(17.5611 22.9702)">
<stop offset="0.00401358" stop-color="white"/>
<stop offset="1" stop-color="white" stop-opacity="0"/>
</radialGradient>
<linearGradient id="paint8_linear_81_1814" x1="5" y1="257.971" x2="212.461" y2="28.4774" gradientUnits="userSpaceOnUse">
<stop stop-color="#DDE1E4"/>
<stop offset="1" stop-color="#E9ECF1"/>
</linearGradient>
<radialGradient id="paint9_radial_81_1814" cx="0" cy="0" r="1" gradientUnits="userSpaceOnUse" gradientTransform="translate(344.059 247.268) rotate(-126.173) scale(368.824 222.689)">
<stop offset="0.508615" stop-color="#F4F4F4"/>
<stop offset="1" stop-color="#F4F4F4" stop-opacity="0"/>
</radialGradient>
<radialGradient id="paint10_radial_81_1814" cx="0" cy="0" r="1" gradientUnits="userSpaceOnUse" gradientTransform="translate(89 442) rotate(64.378) scale(108.688 169.686)">
<stop stop-color="#C8D2D9"/>
<stop offset="0.653517" stop-color="#D3D8DD" stop-opacity="0.346483"/>
<stop offset="1" stop-color="#D8DCDF" stop-opacity="0"/>
</radialGradient>
<radialGradient id="paint11_radial_81_1814" cx="0" cy="0" r="1" gradientUnits="userSpaceOnUse" gradientTransform="translate(103 358) rotate(68.5523) scale(90.2497 86.1942)">
<stop stop-color="white"/>
<stop offset="1" stop-color="white" stop-opacity="0"/>
</radialGradient>
<linearGradient id="paint12_linear_81_1814" x1="5" y1="177" x2="57" y2="177" gradientUnits="userSpaceOnUse">
<stop offset="0.365385" stop-color="white" stop-opacity="0"/>
<stop offset="0.6875" stop-color="white"/>
<stop offset="1" stop-color="white" stop-opacity="0"/>
</linearGradient>
<linearGradient id="paint13_linear_81_1814" x1="44" y1="170" x2="227" y2="21" gradientUnits="userSpaceOnUse">
<stop stop-color="#A09B8C"/>
<stop offset="1" stop-color="#BAB7B0"/>
</linearGradient>
<linearGradient id="paint14_linear_81_1814" x1="135.5" y1="21" x2="234" y2="160" gradientUnits="userSpaceOnUse">
<stop stop-color="white" stop-opacity="0"/>
<stop offset="1" stop-color="#F5F3E9"/>
</linearGradient>
<radialGradient id="paint15_radial_81_1814" cx="0" cy="0" r="1" gradientUnits="userSpaceOnUse" gradientTransform="translate(136 184) rotate(90) scale(60 114)">
<stop stop-color="white"/>
<stop offset="1" stop-color="white" stop-opacity="0"/>
</radialGradient>
<radialGradient id="paint16_radial_81_1814" cx="0" cy="0" r="1" gradientUnits="userSpaceOnUse" gradientTransform="translate(163 255) rotate(125.395) scale(46.6155 65.7824)">
<stop/>
<stop offset="1" stop-opacity="0"/>
</radialGradient>
<radialGradient id="paint17_radial_81_1814" cx="0" cy="0" r="1" gradientUnits="userSpaceOnUse" gradientTransform="translate(189 312) rotate(-160.278) scale(56.3028 79.4529)">
<stop/>
<stop offset="1" stop-opacity="0"/>
</radialGradient>
<radialGradient id="paint18_radial_81_1814" cx="0" cy="0" r="1" gradientUnits="userSpaceOnUse" gradientTransform="translate(244.5 249) rotate(92.411) scale(47.5421 36.1785)">
<stop stop-color="white"/>
<stop offset="1" stop-color="white" stop-opacity="0"/>
</radialGradient>
<linearGradient id="paint19_linear_81_1814" x1="136" y1="191" x2="203" y2="404.5" gradientUnits="userSpaceOnUse">
<stop stop-color="#686F74"/>
<stop offset="0.995614" stop-color="#838A8F"/>
</linearGradient>
<linearGradient id="paint20_linear_81_1814" x1="136" y1="225" x2="182.724" y2="373.888" gradientUnits="userSpaceOnUse">
<stop stop-color="#686F74"/>
<stop offset="0.995614" stop-color="#838A8F"/>
</linearGradient>
<linearGradient id="paint21_linear_81_1814" x1="213.5" y1="303" x2="64.6119" y2="349.724" gradientUnits="userSpaceOnUse">
<stop stop-color="#686F74"/>
<stop offset="0.995614" stop-color="#838A8F"/>
</linearGradient>
<radialGradient id="paint22_radial_81_1814" cx="0" cy="0" r="1" gradientUnits="userSpaceOnUse" gradientTransform="translate(181 384) rotate(-168.024) scale(67.4685)">
<stop stop-color="#C3CAD8"/>
<stop offset="1" stop-color="#C3CAD8" stop-opacity="0"/>
</radialGradient>
<radialGradient id="paint23_radial_81_1814" cx="0" cy="0" r="1" gradientUnits="userSpaceOnUse" gradientTransform="translate(107 382) rotate(117.553) scale(51.8845)">
<stop stop-color="white"/>
<stop offset="1" stop-color="white" stop-opacity="0"/>
</radialGradient>
<linearGradient id="paint24_linear_81_1814" x1="136" y1="216" x2="136" y2="394" gradientUnits="userSpaceOnUse">
<stop stop-color="#45514F"/>
<stop offset="1" stop-color="#818682"/>
</linearGradient>
<linearGradient id="paint25_linear_81_1814" x1="114" y1="282" x2="136" y2="337" gradientUnits="userSpaceOnUse">
<stop stop-color="#DCE0E3"/>
<stop offset="1" stop-color="#E7E9ED"/>
</linearGradient>
<linearGradient id="paint26_linear_81_1814" x1="136" y1="273" x2="136" y2="337" gradientUnits="userSpaceOnUse">
<stop stop-color="#45514F"/>
<stop offset="1" stop-color="#818682"/>
</linearGradient>
<radialGradient id="paint27_radial_81_1814" cx="0" cy="0" r="1" gradientUnits="userSpaceOnUse" gradientTransform="translate(107 291.5) rotate(66.0375) scale(14.7733)">
<stop stop-color="white"/>
<stop offset="1" stop-color="white" stop-opacity="0"/>
</radialGradient>
<linearGradient id="paint28_linear_81_1814" x1="242" y1="83" x2="136" y2="150" gradientUnits="userSpaceOnUse">
<stop stop-color="#070707"/>
<stop offset="1" stop-color="#C5CAD0" stop-opacity="0"/>
</linearGradient>
<linearGradient id="paint29_linear_81_1814" x1="242" y1="83" x2="136" y2="150" gradientUnits="userSpaceOnUse">
<stop stop-color="#B9BEC4"/>
<stop offset="1" stop-color="#C5CAD0" stop-opacity="0"/>
</linearGradient>
<linearGradient id="paint30_linear_81_1814" x1="121.256" y1="195.5" x2="119.511" y2="214.843" gradientUnits="userSpaceOnUse">
<stop offset="0.177083" stop-color="#626262" stop-opacity="0.63"/>
<stop offset="0.286458" stop-color="#626262"/>
</linearGradient>
<linearGradient id="paint31_linear_81_1814" x1="232" y1="304.5" x2="244" y2="304" gradientUnits="userSpaceOnUse">
<stop offset="0.635417" stop-color="#626262"/>
<stop offset="1" stop-color="#626262" stop-opacity="0.63"/>
</linearGradient>
</defs>
</svg>
