<svg width="491" height="194" viewBox="0 0 491 194" fill="none" xmlns="http://www.w3.org/2000/svg">
<path fill-rule="evenodd" clip-rule="evenodd" d="M76.4794 25.526C73.6832 26.134 72.0899 27.8289 70.7814 31.5848C70.5027 32.3869 68.7867 36.3945 67.909 38.2946C67.6684 38.8141 67.4708 39.2993 67.4708 39.3705C67.4708 39.443 66.9958 40.5999 66.4152 41.9424C65.8346 43.2848 65.0539 45.1247 64.6807 46.0299C63.2875 49.4075 62.033 52.3577 61.1148 54.4125C61.0043 54.6593 60.8264 55.131 60.7208 55.4601C60.614 55.7905 60.4802 56.1271 60.4237 56.2094C60.366 56.2917 60.0408 57.0323 59.6995 57.8552C59.3583 58.6793 58.6831 60.2625 58.1983 61.374C57.7134 62.4843 57.0665 64.0343 56.7609 64.8167C56.4565 65.5991 55.9888 66.7094 55.7236 67.2867C54.9896 68.8772 54.0444 71.1322 53.7682 71.9465C53.6332 72.3469 53.357 73.0114 53.1569 73.4241C52.9556 73.8355 52.6365 74.543 52.4474 74.995C50.0526 80.7234 48.56 84.252 48.2015 85.0381C47.6835 86.1717 47.341 86.9946 46.5898 88.9168C46.2829 89.6992 45.8165 90.8107 45.5501 91.3867C44.9118 92.7734 43.9261 95.0984 43.4769 96.2763C43.2792 96.7983 42.7342 98.1002 42.2666 99.17C41.8001 100.241 41.3152 101.352 41.19 101.64C41.0648 101.929 40.7666 102.584 40.5284 103.097C40.2891 103.61 40.0939 104.09 40.0939 104.165C40.0939 104.326 39.0959 106.743 38.3999 108.265C37.9482 109.255 37.5309 110.253 36.226 113.466C35.8295 114.442 34.0644 118.525 33.6692 119.379C33.593 119.544 33.4445 119.948 33.3377 120.277C33.2322 120.606 33.0444 121.037 32.9216 121.235C32.8001 121.433 32.6884 121.671 32.6749 121.765C32.6601 121.859 32.0967 123.214 31.4216 124.773C30.7465 126.334 30.0566 127.983 29.8872 128.435C29.7191 128.888 28.8831 130.862 28.03 132.819C27.1781 134.778 26.4797 136.445 26.4797 136.524C26.4797 136.602 25.9678 137.828 25.3418 139.249C24.7158 140.67 24.0799 142.144 23.9302 142.525C23.7792 142.906 23.5251 143.512 23.3643 143.872C23.2035 144.232 22.5971 145.673 22.0165 147.072C21.4359 148.472 20.8626 149.818 20.7436 150.066C20.3238 150.931 19.5983 152.661 19.5983 152.796C19.5983 152.927 18.7575 154.919 18.0333 156.502C14.9461 163.26 15.9244 166.495 21.4113 167.673C25.0447 168.451 26.6184 167.117 29.1078 161.142C29.4171 160.402 29.7264 159.731 29.7952 159.654C29.8639 159.575 29.9204 159.361 29.9204 159.177C29.9204 158.994 30.0186 158.746 30.1376 158.627C30.2579 158.506 30.3205 158.374 30.2776 158.331C30.2346 158.289 30.3647 157.927 30.566 157.527C30.9146 156.838 31.7849 154.802 33.8864 149.766C34.402 148.531 35.0538 147.015 35.3361 146.399C35.6184 145.781 36.0247 144.838 36.2395 144.302C37.2252 141.843 38.0464 139.873 38.1434 139.737C38.2011 139.654 38.5043 138.981 38.8161 138.24C39.1278 137.499 39.5047 136.623 39.6532 136.294C39.8017 135.965 40.0251 135.386 40.1479 135.009C40.2706 134.634 40.6021 133.824 40.8832 133.214C41.1643 132.602 41.6553 131.479 41.9732 130.718L42.5501 129.334H78.5711H114.592L114.98 130.101C115.195 130.524 115.392 130.978 115.421 131.111C115.483 131.414 117.094 135.214 117.784 136.693C118.066 137.296 118.469 138.263 118.678 138.839C119.085 139.959 119.724 141.483 120.498 143.179C120.76 143.755 121.264 144.935 121.618 145.799C121.972 146.664 122.463 147.843 122.708 148.419C122.955 148.995 123.554 150.398 124.039 151.536C124.524 152.674 125.085 153.953 125.285 154.38C125.485 154.806 125.695 155.357 125.753 155.604C125.811 155.851 125.908 156.121 125.971 156.203C126.032 156.286 126.333 156.959 126.638 157.699C126.942 158.441 127.35 159.383 127.541 159.796C128.156 161.109 129.109 163.36 129.109 163.499C129.109 164.505 130.892 166.922 132.025 167.451C133.353 168.072 136.518 167.784 137.497 166.957C137.627 166.846 137.802 166.756 137.885 166.756C138.212 166.756 139.871 164.991 140.239 164.253C141.004 162.717 140.661 160.748 138.992 157.101C138.843 156.772 138.482 155.93 138.193 155.229C137.905 154.531 137.435 153.452 137.15 152.834C136.865 152.218 136.477 151.308 136.286 150.814C135.874 149.749 135.048 147.782 133.678 144.602C133.129 143.326 132.553 141.945 132.401 141.534C132.122 140.783 130.195 136.289 129.747 135.343C129.614 135.066 129.507 134.745 129.507 134.631C129.507 134.517 129.458 134.422 129.399 134.422C129.341 134.422 129.18 134.078 129.042 133.658C128.905 133.237 128.389 131.974 127.897 130.852C126.971 128.739 125.921 126.235 125.25 124.544C125.038 124.008 124.618 123.032 124.318 122.372C124.017 121.714 123.315 120.063 122.756 118.705C122.198 117.346 121.62 115.966 121.472 115.637C121.324 115.308 120.933 114.397 120.604 113.616C120.275 112.834 119.836 111.828 119.629 111.381C119.42 110.934 119.285 110.513 119.327 110.445C119.367 110.377 119.339 110.322 119.263 110.322C119.187 110.322 118.948 109.83 118.735 109.228C118.521 108.625 117.775 106.838 117.075 105.256C116.376 103.674 115.64 101.927 115.439 101.375C115.239 100.821 114.872 99.9302 114.625 99.3947C114.059 98.1702 112.481 94.4303 112.445 94.2313C112.43 94.1478 112.378 94.0139 112.326 93.9316C112.276 93.8493 111.883 92.9404 111.455 91.9124C111.026 90.8832 110.222 88.9979 109.67 87.7205C109.117 86.4432 108.44 84.8268 108.166 84.1268C107.891 83.4267 107.449 82.3827 107.185 81.8067C106.514 80.3438 105.564 78.095 105.131 76.9417C104.929 76.4062 104.611 75.6312 104.423 75.2197C103.643 73.5076 101.983 69.6227 101.705 68.8575C101.54 68.4056 101.276 67.7485 101.119 67.3997C100.961 67.0496 100.59 66.1739 100.293 65.4529C99.9959 64.732 99.7038 64.0749 99.6436 63.9926C99.5847 63.9103 99.2483 63.1365 98.8985 62.2718C98.5487 61.4072 97.9619 59.9923 97.5949 59.1276C97.2279 58.2642 96.3514 56.175 95.6469 54.4874C94.9435 52.7998 94.2389 51.1331 94.0843 50.7831C93.9284 50.4343 93.5564 49.5586 93.2581 48.8376C92.9611 48.1166 92.4627 46.9842 92.1522 46.3222C91.8416 45.659 91.5212 44.884 91.439 44.6002C91.2868 44.0709 90.252 41.6083 89.3977 39.7427C89.1337 39.1666 88.6918 38.1226 88.4169 37.4225C88.1419 36.7225 87.4496 35.073 86.8776 33.7551C86.3068 32.4384 85.7127 31.0407 85.5593 30.6502C84.9283 29.051 84.3109 28.0377 83.4615 27.2087C82.9778 26.7358 82.5813 26.3833 82.5813 26.4251C82.5813 26.4656 82.3236 26.3293 82.0093 26.1205C80.8849 25.3762 78.4005 25.1084 76.4794 25.526ZM227.099 25.3971C219.459 25.7262 211.803 27.2443 207.328 29.3163C206.806 29.5583 205.806 30.0213 205.107 30.3456C200.63 32.4188 196.113 36.3086 193.325 40.4919C192.304 42.0247 190.745 44.7697 190.745 45.0363C190.745 45.1345 190.518 45.6676 190.239 46.2215C189.268 48.1535 187.639 53.3145 187.299 55.5351C187.229 55.9883 187.001 57.4364 186.79 58.7542C185.861 64.5698 185.883 63.6352 185.883 96.4765C185.883 129.825 185.871 129.387 187.011 135.885C187.174 136.812 187.34 137.831 187.38 138.149C188.233 144.942 193.481 154.478 198.689 158.699C200.698 160.328 205.736 163.408 206.603 163.538C206.645 163.545 207.25 163.775 207.95 164.051C209.658 164.726 212.542 165.664 214.009 166.023C215.947 166.497 217.995 166.91 218.1 166.846C218.154 166.814 218.567 166.848 219.02 166.925C223.719 167.707 223.514 167.7 243.406 167.765C262.821 167.827 264.744 167.786 269.276 167.191C270.557 167.023 271.908 166.862 272.279 166.832C275.095 166.61 284.02 163.772 285.771 162.541C285.992 162.386 286.362 162.176 286.593 162.076C291.059 160.124 296.542 154.36 299.511 148.494C301.083 145.388 303.637 136.482 303.717 133.827C303.723 133.619 303.821 132.541 303.935 131.429C304.049 130.318 304.21 128.248 304.292 126.829C304.445 124.215 304.519 67.9855 304.371 67.8369C304.329 67.7951 304.295 67.3112 304.295 66.761C304.295 66.212 304.191 64.6902 304.063 63.3809C303.935 62.0704 303.8 60.5609 303.761 60.0267C303.525 56.7535 302.51 52.7961 300.436 47.0641C299.894 45.5669 298.815 43.5059 297.427 41.3172C291.145 31.4129 280.154 26.3575 262.929 25.4487C260.478 25.3197 229.924 25.2755 227.099 25.3971ZM412.36 25.5101C410.072 26.0652 408.744 27.3131 407.353 30.2117C406.852 31.2557 406.422 32.21 406.396 32.3328C406.344 32.5735 404.949 35.762 403.958 37.8979C403.628 38.6115 403.106 39.8237 402.799 40.5926C402.492 41.3602 401.924 42.6621 401.537 43.485C401.15 44.3092 400.547 45.6553 400.196 46.4794C399.091 49.0808 398.749 49.8632 397.683 52.2422C397.111 53.5183 395.998 56.0448 395.208 57.8552C394.419 59.6668 393.534 61.6393 393.242 62.2387C392.95 62.8368 392.71 63.3895 392.71 63.4657C392.71 63.6204 391.915 65.4714 391.069 67.2867C390.53 68.44 390.015 69.6289 388.665 72.8247C388.317 73.6476 387.982 74.3894 387.921 74.4717C387.773 74.6682 385.894 79.0051 385.751 79.4804C385.689 79.6843 385.419 80.2898 385.15 80.8278C384.881 81.3657 384.48 82.2402 384.259 82.7708C384.037 83.3026 383.552 84.3798 383.181 85.1671C382.811 85.9531 382.485 86.6974 382.458 86.8215C382.412 87.0352 381.019 90.2101 379.996 92.4344C379.731 93.0105 379.226 94.1895 378.874 95.0542C378.523 95.9189 377.782 97.6028 377.227 98.7966C376.672 99.9904 375.929 101.674 375.576 102.539C375.064 103.792 373.451 107.443 372.336 109.874C372.242 110.079 372.147 110.315 372.125 110.397C372.053 110.67 369.576 116.22 369.171 117.016C368.952 117.446 368.774 117.865 368.774 117.947C368.774 118.107 367.145 121.859 366.686 122.757C366.536 123.05 366.162 123.893 365.856 124.628C364.641 127.542 364.091 128.815 363.984 128.959C363.924 129.041 363.468 130.052 362.971 131.204C361.347 134.972 361.057 135.638 358.829 140.71C357.617 143.468 356.357 146.297 356.028 146.997C355.699 147.697 355.291 148.64 355.123 149.092C354.955 149.545 354.113 151.465 353.254 153.359C352.394 155.253 351.665 156.932 351.633 157.09C351.602 157.249 351.524 157.417 351.46 157.465C351.396 157.512 351.324 157.672 351.298 157.822C351.274 157.971 350.973 158.678 350.632 159.393C349.869 160.992 349.695 162.697 350.154 164.079C350.394 164.8 352.679 167.492 352.882 167.289C352.911 167.26 353.486 167.411 354.16 167.625C355.126 167.93 355.606 168 356.432 167.955C358.527 167.841 471.499 167.901 472.235 168.016C475.314 168.502 478.798 165.604 478.79 162.564C478.785 160.984 478.476 159.97 477.052 156.877C476.149 154.913 475.872 154.289 474.997 152.236C474.488 151.042 473.945 149.796 473.791 149.467C472.894 147.551 472.046 145.504 472.117 145.433C472.163 145.388 472.13 145.35 472.044 145.35C471.958 145.35 471.804 145.131 471.704 144.863C471.349 143.923 469.861 140.475 469.427 139.587C469.184 139.093 468.749 138.117 468.459 137.417C467.528 135.169 466.8 133.502 465.747 131.204C465.181 129.97 464.628 128.69 464.522 128.36C464.414 128.031 464.097 127.29 463.816 126.714C463.536 126.138 462.798 124.487 462.178 123.047C461.558 121.606 460.926 120.158 460.775 119.827C460.624 119.498 460.092 118.299 459.592 117.163C459.092 116.027 458.515 114.766 458.311 114.362C458.106 113.956 457.913 113.504 457.885 113.358C457.855 113.212 457.727 112.856 457.599 112.567C457.471 112.28 457.1 111.437 456.774 110.697C456.447 109.956 455.894 108.743 455.543 108.002C455.193 107.261 454.651 106.015 454.34 105.232C454.029 104.451 453.443 103.104 453.038 102.239C452.635 101.375 451.946 99.8258 451.511 98.7966C451.076 97.7673 450.256 95.8955 449.691 94.6366C449.125 93.3765 448.662 92.3128 448.662 92.2711C448.662 92.2281 448.392 91.6545 448.063 90.9949C447.734 90.3342 447.466 89.736 447.466 89.6636C447.466 89.5088 445.38 84.7188 445.218 84.5014C445.157 84.4178 444.856 83.7448 444.549 83.0042C443.414 80.2652 442.778 78.7914 442.375 77.9685C441.954 77.1087 441.048 75.0392 440.387 73.4241C440.184 72.9291 439.478 71.33 438.818 69.8696C438.157 68.4093 437.498 66.8936 437.355 66.5018C437.21 66.11 437.043 65.7219 436.984 65.6396C436.925 65.5573 436.527 64.6816 436.1 63.6941C435.673 62.7054 435.031 61.2573 434.674 60.475C434.315 59.6926 433.655 58.177 433.204 57.1072C432.754 56.0374 432.084 54.5218 431.717 53.7394C431.348 52.957 430.898 51.9462 430.715 51.4942C430.204 50.2267 429.086 47.6659 428.427 46.2547C428.099 45.5546 427.51 44.2072 427.117 43.2603C426.08 40.7645 423.82 35.7251 423.663 35.5593C423.589 35.4807 423.529 35.3333 423.529 35.2326C423.529 34.4527 420.558 28.5057 419.639 27.4445C418.203 25.7889 414.868 24.9021 412.36 25.5101ZM265.248 37.2088C275.159 38.1509 282.361 41.1674 286.321 46.0336C287.547 47.5394 290.083 52.0408 289.923 52.4277C289.915 52.4498 290.044 52.8121 290.209 53.2346C291.515 56.5508 292.9 64.619 292.749 68.0457C292.722 68.6574 292.754 69.1585 292.819 69.1572C293.087 69.1572 292.851 126.533 292.572 128.959C292.114 132.955 291.352 136.659 290.47 139.174C290.274 139.731 290.069 140.388 290.013 140.635C289.844 141.375 288.321 144.279 287.293 145.821C283.597 151.364 276.782 154.623 266.145 155.936C263.296 156.287 228.036 156.347 224.93 156.006C219.649 155.426 215.802 154.502 211.615 152.809C210.664 152.424 207.95 150.871 207.95 150.711C207.95 150.645 207.877 150.589 207.789 150.589C206.439 150.589 202.144 145.177 200.839 141.832C200.614 141.256 200.303 140.499 200.148 140.151C199.39 138.451 198.34 133.843 197.818 129.932C197.54 127.845 197.38 68.478 197.642 65.0415C198.033 59.9505 199.092 55.0696 200.565 51.5728C200.841 50.917 201.068 50.3176 201.068 50.2402C201.068 49.1704 205.119 44.1704 207.276 42.5798C207.606 42.3366 207.963 42.0554 208.07 41.9534C208.906 41.1625 213.153 39.2784 215.728 38.5562C218.059 37.9016 223.253 37.0602 224.431 37.1462C224.739 37.1683 225.038 37.1401 225.093 37.0836C225.318 36.86 262.798 36.9755 265.248 37.2088ZM79.4537 46.0446C79.9533 47.1893 80.5658 48.6313 80.815 49.2491C81.0654 49.8656 81.6398 51.2474 82.0928 52.3171C83.4651 55.5596 84.5944 58.2433 85.083 59.4273C85.3383 60.0451 86.0159 61.6418 86.5904 62.9756C87.1636 64.3095 87.5957 65.437 87.5503 65.4824C87.5048 65.5278 87.5429 65.5647 87.6325 65.5647C87.7663 65.5647 87.9664 65.9307 88.0425 66.3127C88.0928 66.5731 88.3518 67.2498 88.6734 67.9597C88.8784 68.4129 89.281 69.3562 89.5695 70.0551C89.858 70.7551 90.144 71.395 90.2041 71.4773C90.3428 71.6653 91.4169 74.2433 91.4832 74.5467C91.5396 74.8021 92.2651 76.5179 92.9709 78.0643C93.2336 78.6403 93.8068 79.9877 94.2438 81.0574C94.6796 82.1284 95.367 83.7632 95.7684 84.6905C96.171 85.6178 96.6375 86.7244 96.8056 87.1506C96.9738 87.5756 97.3752 88.4869 97.698 89.1735C98.0221 89.8613 98.2749 90.4717 98.2602 90.5307C98.2455 90.5896 98.3388 90.8733 98.4652 91.162C98.5929 91.4506 98.9832 92.3595 99.333 93.1824C99.6829 94.0065 100.155 95.0837 100.384 95.5774C100.612 96.0724 101.013 97.0144 101.276 97.674C102.376 100.43 102.556 100.866 103.019 101.881C103.287 102.465 103.988 104.115 104.578 105.548C105.169 106.98 105.775 108.429 105.927 108.768C106.078 109.106 106.467 110.016 106.793 110.789C107.118 111.561 107.627 112.721 107.926 113.366C108.223 114.011 108.428 114.6 108.381 114.675C108.334 114.751 108.367 114.814 108.455 114.814C108.542 114.814 108.613 114.902 108.613 115.012C108.613 115.121 108.854 115.766 109.148 116.446C109.443 117.126 109.656 117.711 109.622 117.746C109.41 117.957 47.0833 117.72 47.2858 117.507C47.4036 117.384 47.5203 117.158 47.546 117.007C47.573 116.855 47.7191 116.484 47.8726 116.183C48.026 115.882 48.5305 114.728 48.9957 113.616C49.4597 112.505 49.9298 111.393 50.0415 111.146C50.152 110.899 50.6283 109.754 51.1009 108.601C51.5735 107.448 52.2069 105.967 52.5088 105.307C52.8108 104.649 53.2159 103.706 53.4086 103.212C53.9045 101.941 55.1799 98.9047 56.1619 96.6558C56.6222 95.602 57.1083 94.402 57.2433 93.9893C57.3783 93.5754 57.5772 93.1492 57.6852 93.0412C57.7944 92.9331 57.8423 92.8041 57.7932 92.755C57.7441 92.7058 57.7736 92.5806 57.8595 92.4749C57.9442 92.3705 58.256 91.695 58.553 90.9741C58.8501 90.2531 59.2331 89.3442 59.4049 88.9536C60.0641 87.4528 60.4557 86.5242 61.3137 84.4264C61.8022 83.2326 62.3706 81.8853 62.5755 81.432C63.3992 79.6131 64.0301 78.1171 64.0301 77.982C64.0301 77.9021 64.5567 76.6432 65.2012 75.1816C65.8444 73.7213 66.6251 71.8851 66.9356 71.104C67.2462 70.3216 67.5555 69.5724 67.623 69.441C67.6918 69.3083 68.1963 68.1292 68.745 66.8212C69.2937 65.5131 69.9455 64.0049 70.1922 63.4694C70.4389 62.9339 70.828 61.9906 71.0551 61.374C71.2834 60.7562 71.9929 59.0723 72.6325 57.6316C73.272 56.1909 73.9839 54.4997 74.2135 53.8745C74.4442 53.2506 74.9316 52.0715 75.2986 51.256C75.6644 50.4392 76.148 49.335 76.3726 48.7995C76.5973 48.264 76.9164 47.5234 77.0809 47.1525C77.4381 46.3468 77.6382 45.8653 78.0911 44.7145C78.2777 44.2392 78.4569 43.8744 78.4889 43.9063C78.5195 43.937 78.9541 44.8999 79.4537 46.0446ZM415.56 46.1797C417.364 50.3508 418.63 53.2432 419.266 54.6372C419.622 55.4196 420.398 57.2042 420.99 58.6044C421.581 60.0033 422.118 61.2168 422.18 61.2991C422.243 61.3814 422.58 62.122 422.928 62.9449C423.99 65.4529 424.814 67.3468 425.702 69.3071C426.168 70.3363 426.738 71.6493 426.968 72.2265C427.198 72.8026 427.621 73.779 427.907 74.3968C428.452 75.5722 429.833 78.7042 431.536 82.6296C432.09 83.9057 432.731 85.323 432.959 85.7787C433.187 86.2344 433.398 86.7404 433.427 86.9013C433.455 87.0634 433.562 87.2845 433.665 87.3926C433.767 87.5019 433.851 87.6788 433.851 87.7856C433.851 87.9883 434.713 89.9792 435.798 92.2846C436.147 93.0252 436.718 94.3394 437.067 95.204C437.417 96.0687 437.941 97.281 438.231 97.8975C439.078 99.7006 440.6 103.191 440.658 103.458C440.686 103.592 440.779 103.827 440.865 103.981C441.036 104.287 441.445 105.188 442.351 107.254C442.676 107.995 443.185 109.12 443.484 109.755C443.781 110.388 444.025 110.951 444.025 111.005C444.025 111.135 445.243 113.933 446.039 115.637C446.387 116.377 446.841 117.388 447.048 117.882C447.997 120.136 448.726 121.81 449.774 124.14C450.397 125.524 450.906 126.721 450.906 126.801C450.906 126.881 451.217 127.601 451.596 128.402C451.974 129.202 452.741 130.901 453.299 132.177C455.193 136.508 456.413 139.284 457.084 140.784C457.451 141.609 457.977 142.821 458.249 143.479C458.522 144.137 459.059 145.35 459.443 146.174C459.828 146.997 460.394 148.277 460.7 149.017C461.419 150.75 462.032 152.155 462.742 153.682C463.455 155.221 463.772 155.979 463.772 156.146C463.772 156.222 442.638 156.277 414.403 156.277C387.249 156.277 365.034 156.221 365.034 156.151C365.034 155.877 365.39 155 365.545 154.895C365.634 154.835 365.662 154.785 365.607 154.784C365.516 154.781 366.997 151.37 368.26 148.667C368.542 148.063 368.774 147.52 368.774 147.46C368.774 147.337 370.008 144.533 370.856 142.731C371.165 142.072 371.59 141.13 371.798 140.635C372.006 140.141 372.417 139.164 372.712 138.464C373.007 137.764 373.711 136.182 374.278 134.947C374.844 133.712 375.447 132.331 375.616 131.879C375.786 131.425 376.194 130.482 376.525 129.782C376.855 129.083 377.391 127.904 377.718 127.162C378.044 126.422 378.447 125.513 378.615 125.142C378.782 124.771 379.37 123.425 379.92 122.149C380.47 120.873 381.243 119.121 381.636 118.256C382.407 116.562 384.065 112.795 385.26 110.024C386.122 108.022 386.654 106.821 388.168 103.46C388.774 102.114 389.27 100.952 389.27 100.877C389.27 100.803 389.598 100.052 389.998 99.208C390.398 98.3643 390.944 97.168 391.212 96.5514C391.479 95.9336 391.854 95.091 392.044 94.6796C392.234 94.2681 392.806 92.9552 393.316 91.7613C393.824 90.5675 394.576 88.8824 394.986 88.019C395.396 87.1543 395.852 86.1103 395.999 85.6989C396.145 85.2862 396.683 84.0408 397.191 82.9292C398.255 80.6018 399.41 77.982 399.895 76.7918C400.079 76.3386 400.547 75.2946 400.935 74.4717C401.323 73.6476 401.995 72.132 402.43 71.104C402.866 70.0747 403.44 68.7605 403.709 68.1845C403.976 67.6085 404.38 66.6983 404.605 66.1641C404.828 65.6286 405.348 64.4839 405.758 63.6192C406.166 62.7545 406.522 61.9464 406.547 61.8223C406.598 61.5742 408.009 58.3698 409.077 56.0779C409.455 55.2649 409.765 54.5427 409.765 54.4727C409.765 54.3621 412.319 48.6607 413.073 47.0874C413.228 46.7631 413.356 46.4094 413.356 46.3013C413.356 45.9709 414.448 43.8437 414.555 43.9677C414.61 44.0316 415.062 45.0277 415.56 46.1797ZM213.826 90.2556C208.759 92.0856 209.455 100.498 214.752 101.478C216.02 101.712 274.495 101.706 275.601 101.472C280.609 100.409 281.582 92.9982 277.044 90.4828L276.244 90.0394L245.425 90.0062C215.565 89.9743 214.583 89.9829 213.826 90.2556Z" fill="white"/>
</svg>
