<svg width="36" height="36" viewBox="0 0 36 36" fill="none" xmlns="http://www.w3.org/2000/svg">
<circle cx="18" cy="18" r="18" fill="#0F0F11"/>
<path d="M28 10H8V26H28V10Z" fill="#12100E"/>
<path fill-rule="evenodd" clip-rule="evenodd" d="M25.6383 23.5624L27 24.8008V24.8415H20.0922V24.8008L21.4782 23.5624C21.5509 23.5061 21.6063 23.4324 21.6389 23.3487C21.6714 23.2651 21.6797 23.1747 21.6631 23.087V15.1712C21.6631 14.8367 21.6631 14.3851 21.7249 13.9979L17.0662 25H17.011L12.1858 14.878C12.1302 14.7449 12.0955 14.6772 12.065 14.6178C12.0379 14.5649 12.0141 14.5186 11.9819 14.4383V21.075C11.9247 21.5197 12.0043 21.9701 12.2108 22.3716L14.1514 24.8014V24.8421H9V24.8014L10.9406 22.366C11.1456 21.9658 11.2249 21.5177 11.1688 21.0756V13.7405C11.2004 13.3793 11.0858 13.0203 10.8485 12.737L9.47429 11.0407V11H14.404L18.5332 19.5729L22.169 11H26.9941V11.0407L25.6383 12.4789C25.5587 12.5343 25.4969 12.6097 25.4599 12.6967C25.4228 12.7837 25.4119 12.8787 25.4285 12.9713V23.0876C25.4109 23.1777 25.4215 23.2707 25.4587 23.3552C25.496 23.4397 25.5584 23.5113 25.6383 23.5624Z" fill="white"/>
</svg>
