<svg width="36" height="36" viewBox="0 0 36 36" fill="none" xmlns="http://www.w3.org/2000/svg">
<circle cx="18" cy="18" r="18" fill="#0F0F11"/>
<path d="M9 8H27V28H9V8Z" fill="white"/>
<path d="M25 6H11C8.239 6 6 8.239 6 11V25C6 27.761 8.239 30 11 30H25C27.762 30 30 27.761 30 25V11C30 8.239 27.762 6 25 6ZM14 25H11V14H14V25ZM12.5 12.732C11.534 12.732 10.75 11.942 10.75 10.968C10.75 9.994 11.534 9.204 12.5 9.204C13.466 9.204 14.25 9.994 14.25 10.968C14.25 11.942 13.467 12.732 12.5 12.732ZM26 25H23V19.396C23 16.028 19 16.283 19 19.396V25H16V14H19V15.765C20.396 13.179 26 12.988 26 18.241V25Z" fill="#0F0F11"/>
</svg>
